{"glyphs":{"0":{"ha":876,"x_min":0,"x_max":0,"o":"m 438 -14 b 83 505 213 -14 83 175 b 438 1024 83 832 214 1024 b 793 505 662 1024 793 832 b 438 -14 793 176 664 -14 m 438 99 b 669 505 586 99 669 248 b 438 912 669 762 586 912 b 207 505 290 912 207 762 b 438 99 207 248 290 99 "},"1":{"ha":565,"x_min":0,"x_max":0,"o":"m 443 0 l 316 0 l 316 891 l 309 891 l 65 710 l 65 848 l 285 1010 l 443 1010 "},"2":{"ha":847,"x_min":0,"x_max":0,"o":"m 104 93 l 440 457 b 609 741 552 578 609 648 b 419 912 609 846 527 912 b 231 724 304 912 231 838 l 107 724 b 422 1024 107 903 243 1024 b 731 742 603 1024 731 900 b 503 357 731 633 682 547 l 282 121 l 282 113 l 748 113 l 748 0 l 104 0 "},"3":{"ha":858,"x_min":0,"x_max":0,"o":"m 431 -14 b 85 255 233 -14 92 95 l 215 255 b 429 100 222 159 313 100 b 648 276 555 100 648 171 b 413 462 648 385 563 462 l 331 462 l 331 574 l 413 574 b 612 746 531 574 612 642 b 432 912 612 846 542 912 b 231 756 329 912 235 854 l 106 756 b 435 1024 112 915 257 1024 b 739 753 623 1024 739 897 b 571 525 739 639 674 555 l 571 517 b 775 275 700 496 775 402 b 431 -14 775 109 629 -14 "},"4":{"ha":897,"x_min":0,"x_max":0,"o":"m 81 311 l 524 1010 l 680 1010 l 680 319 l 817 319 l 817 205 l 680 205 l 680 0 l 557 0 l 557 205 l 81 205 m 557 849 l 549 849 l 219 327 l 219 319 l 557 319 "},"5":{"ha":844,"x_min":0,"x_max":0,"o":"m 425 -14 b 107 255 247 -14 114 100 l 232 255 b 425 100 240 165 323 100 b 635 321 547 100 635 193 b 416 548 635 451 543 548 b 243 495 354 548 283 526 l 123 510 l 182 1010 l 714 1010 l 714 897 l 291 897 l 256 602 l 262 602 b 440 661 303 637 370 661 b 762 323 625 661 762 518 b 425 -14 762 129 619 -14 "},"6":{"ha":861,"x_min":0,"x_max":0,"o":"m 438 -14 b 83 467 269 -14 83 94 b 454 1024 83 822 224 1024 b 770 756 623 1024 746 915 l 644 756 b 454 910 622 844 559 910 b 205 526 298 910 205 769 l 213 526 b 462 661 267 610 357 661 b 779 326 635 661 779 522 b 438 -14 779 138 644 -14 m 438 100 b 654 326 559 100 654 200 b 441 549 654 450 564 549 b 223 325 319 549 223 443 b 438 100 223 205 314 100 "},"7":{"ha":786,"x_min":0,"x_max":0,"o":"m 585 889 l 585 897 l 66 897 l 66 1010 l 720 1010 l 720 890 l 271 0 l 136 0 "},"8":{"ha":859,"x_min":0,"x_max":0,"o":"m 429 -14 b 83 269 224 -14 83 104 b 280 525 83 396 167 505 l 280 530 b 119 755 182 555 119 648 b 429 1024 119 909 250 1024 b 739 755 606 1024 739 909 b 579 530 739 648 675 555 l 579 525 b 777 269 689 505 777 396 b 429 -14 777 104 633 -14 m 429 98 b 648 275 563 98 648 168 b 429 467 648 387 554 467 b 210 275 302 467 210 387 b 429 98 210 168 293 98 m 429 575 b 614 746 536 575 614 644 b 429 913 614 847 539 913 b 244 746 317 913 244 847 b 429 575 244 644 320 575 "},"9":{"ha":861,"x_min":0,"x_max":0,"o":"m 409 -14 b 91 257 237 -14 115 96 l 218 257 b 409 100 239 168 302 100 b 658 486 563 100 658 241 l 650 486 b 401 351 595 403 507 351 b 83 685 227 351 83 490 b 426 1024 83 873 218 1027 b 779 545 592 1021 779 917 b 409 -14 779 188 637 -14 m 420 463 b 640 688 543 463 640 570 b 424 911 640 804 548 911 b 209 686 302 911 209 810 b 420 463 209 562 298 463 "},"\u0000":{"ha":814,"x_min":0,"x_max":0,"o":""},"A":{"ha":958,"x_min":0,"x_max":0,"o":"m 402 1010 l 551 1010 l 923 0 l 787 0 l 686 282 l 270 282 l 172 0 l 35 0 m 646 395 l 573 600 b 476 907 549 667 519 761 b 380 600 433 758 402 662 l 309 395 "},"Ä":{"ha":958,"x_min":0,"x_max":0,"o":"m 402 1010 l 551 1010 l 923 0 l 787 0 l 686 282 l 270 282 l 172 0 l 35 0 m 646 395 l 573 600 b 476 907 549 667 519 761 b 380 600 433 758 402 662 l 309 395 m 336 1135 b 256 1215 292 1135 256 1171 b 336 1295 256 1259 292 1295 b 416 1215 380 1295 416 1259 b 336 1135 416 1171 380 1135 m 622 1135 b 541 1215 577 1135 541 1171 b 622 1295 541 1259 577 1295 b 702 1215 666 1295 702 1259 b 622 1135 702 1171 666 1135 "},"Ã":{"ha":958,"x_min":0,"x_max":0,"o":"m 402 1010 l 551 1010 l 923 0 l 787 0 l 686 282 l 270 282 l 172 0 l 35 0 m 646 395 l 573 600 b 476 907 549 667 519 761 b 380 600 433 758 402 662 l 309 395 m 568 1143 b 403 1199 500 1143 437 1199 b 367 1145 379 1199 368 1172 l 281 1145 b 391 1286 284 1227 319 1286 b 555 1229 462 1286 509 1229 b 593 1284 577 1229 588 1244 l 676 1284 b 568 1143 673 1198 634 1143 "},"À":{"ha":958,"x_min":0,"x_max":0,"o":"m 402 1010 l 551 1010 l 923 0 l 787 0 l 686 282 l 270 282 l 172 0 l 35 0 m 646 395 l 573 600 b 476 907 549 667 519 761 b 380 600 433 758 402 662 l 309 395 m 300 1309 l 436 1309 l 531 1109 l 431 1109 "},"Á":{"ha":958,"x_min":0,"x_max":0,"o":"m 402 1010 l 551 1010 l 923 0 l 787 0 l 686 282 l 270 282 l 172 0 l 35 0 m 646 395 l 573 600 b 476 907 549 667 519 761 b 380 600 433 758 402 662 l 309 395 m 520 1309 l 656 1309 l 525 1109 l 425 1109 "},"Â":{"ha":958,"x_min":0,"x_max":0,"o":"m 402 1010 l 551 1010 l 923 0 l 787 0 l 686 282 l 270 282 l 172 0 l 35 0 m 646 395 l 573 600 b 476 907 549 667 519 761 b 380 600 433 758 402 662 l 309 395 m 261 1122 l 261 1128 l 420 1309 l 536 1309 l 696 1128 l 696 1122 l 575 1122 l 479 1240 l 381 1122 "},"Å":{"ha":958,"x_min":0,"x_max":0,"o":"m 402 1010 l 551 1010 l 923 0 l 787 0 l 686 282 l 270 282 l 172 0 l 35 0 m 479 1045 b 300 1215 380 1045 300 1121 b 479 1385 300 1310 380 1385 b 657 1215 578 1385 657 1310 b 479 1045 657 1121 578 1045 m 646 395 l 573 600 b 476 907 549 667 519 761 b 380 600 433 758 402 662 l 309 395 m 479 1131 b 564 1215 526 1131 564 1168 b 479 1300 564 1262 526 1300 b 394 1215 431 1300 394 1262 b 479 1131 394 1168 432 1131 "},"Ǻ":{"ha":958,"x_min":0,"x_max":0,"o":"m 402 1010 l 551 1010 l 923 0 l 787 0 l 686 282 l 270 282 l 172 0 l 35 0 m 479 1045 b 300 1215 380 1045 300 1121 b 479 1385 300 1310 380 1385 b 657 1215 578 1385 657 1310 b 479 1045 657 1121 578 1045 m 646 395 l 573 600 b 476 907 549 667 519 761 b 380 600 433 758 402 662 l 309 395 m 479 1131 b 564 1215 526 1131 564 1168 b 479 1300 564 1262 526 1300 b 394 1215 431 1300 394 1262 b 479 1131 394 1168 432 1131 m 527 1539 l 650 1539 l 523 1417 l 428 1417 "},"":{"ha":958,"x_min":0,"x_max":0,"o":"m 402 1010 l 551 1010 l 923 0 b 810 -140 861 -44 810 -83 b 866 -193 810 -173 828 -193 b 928 -174 891 -193 911 -184 l 969 -262 b 846 -296 942 -277 901 -296 b 686 -164 758 -296 686 -249 b 787 1 686 -102 725 -45 l 686 282 l 270 282 l 172 0 l 35 0 m 479 1045 b 300 1215 380 1045 300 1121 b 479 1385 300 1310 380 1385 b 657 1215 578 1385 657 1310 b 479 1045 657 1121 578 1045 m 646 395 l 573 600 b 476 907 549 667 519 761 b 380 600 433 758 402 662 l 309 395 m 479 1131 b 564 1215 526 1131 564 1168 b 479 1300 564 1262 526 1300 b 394 1215 431 1300 394 1262 b 479 1131 394 1168 432 1131 "},"Ā":{"ha":958,"x_min":0,"x_max":0,"o":"m 402 1010 l 551 1010 l 923 0 l 787 0 l 686 282 l 270 282 l 172 0 l 35 0 m 646 395 l 573 600 b 476 907 549 667 519 761 b 380 600 433 758 402 662 l 309 395 m 667 1167 l 291 1167 l 291 1263 l 667 1263 "},"Ă":{"ha":958,"x_min":0,"x_max":0,"o":"m 402 1010 l 551 1010 l 923 0 l 787 0 l 686 282 l 270 282 l 172 0 l 35 0 m 646 395 l 573 600 b 476 907 549 667 519 761 b 380 600 433 758 402 662 l 309 395 m 479 1117 b 282 1309 369 1117 282 1201 l 372 1309 b 479 1204 372 1247 416 1204 b 586 1309 541 1204 586 1247 l 675 1309 b 479 1117 675 1202 589 1117 "},"Ą":{"ha":958,"x_min":0,"x_max":0,"o":"m 402 1010 l 551 1010 l 923 0 b 810 -140 861 -44 810 -83 b 866 -193 810 -173 828 -193 b 928 -174 891 -193 911 -184 l 969 -262 b 846 -296 942 -277 901 -296 b 686 -164 758 -296 686 -249 b 787 1 686 -102 725 -45 l 686 282 l 270 282 l 172 0 l 35 0 m 646 395 l 573 600 b 476 907 549 667 519 761 b 380 600 433 758 402 662 l 309 395 "},"Ǎ":{"ha":958,"x_min":0,"x_max":0,"o":"m 402 1010 l 551 1010 l 923 0 l 787 0 l 686 282 l 270 282 l 172 0 l 35 0 m 646 395 l 573 600 b 476 907 549 667 519 761 b 380 600 433 758 402 662 l 309 395 m 479 1190 l 575 1309 l 696 1309 l 696 1303 l 536 1122 l 420 1122 l 261 1303 l 261 1309 l 381 1309 "},"Ǟ":{"ha":958,"x_min":0,"x_max":0,"o":"m 402 1010 l 551 1010 l 923 0 l 787 0 l 686 282 l 270 282 l 172 0 l 35 0 m 646 395 l 573 600 b 476 907 549 667 519 761 b 380 600 433 758 402 662 l 309 395 m 667 1373 l 292 1373 l 292 1460 l 667 1460 m 340 1116 b 259 1196 295 1116 259 1152 b 340 1276 259 1240 295 1276 b 420 1196 384 1276 420 1240 b 340 1116 420 1152 384 1116 m 625 1116 b 545 1196 581 1116 545 1152 b 625 1276 545 1240 581 1276 b 705 1196 669 1276 705 1240 b 625 1116 705 1152 669 1116 "},"Ǡ":{"ha":958,"x_min":0,"x_max":0,"o":"m 402 1010 l 551 1010 l 923 0 l 787 0 l 686 282 l 270 282 l 172 0 l 35 0 m 646 395 l 573 600 b 476 907 549 667 519 761 b 380 600 433 758 402 662 l 309 395 m 667 1373 l 292 1373 l 292 1460 l 667 1460 m 481 1116 b 396 1196 435 1116 396 1152 b 481 1277 396 1241 435 1277 b 566 1196 528 1277 566 1241 b 481 1116 566 1152 528 1116 "},"Ȁ":{"ha":958,"x_min":0,"x_max":0,"o":"m 402 1010 l 551 1010 l 923 0 l 787 0 l 686 282 l 270 282 l 172 0 l 35 0 m 646 395 l 573 600 b 476 907 549 667 519 761 b 380 600 433 758 402 662 l 309 395 m 168 1309 l 304 1309 l 418 1109 l 318 1109 m 425 1309 l 561 1309 l 640 1109 l 541 1109 "},"Ȃ":{"ha":958,"x_min":0,"x_max":0,"o":"m 402 1010 l 551 1010 l 923 0 l 787 0 l 686 282 l 270 282 l 172 0 l 35 0 m 646 395 l 573 600 b 476 907 549 667 519 761 b 380 600 433 758 402 662 l 309 395 m 479 1326 b 686 1122 597 1326 686 1236 l 596 1122 b 479 1235 596 1188 541 1235 b 361 1122 416 1235 361 1188 l 272 1122 b 479 1326 272 1236 360 1326 "},"Ȧ":{"ha":958,"x_min":0,"x_max":0,"o":"m 402 1010 l 551 1010 l 923 0 l 787 0 l 686 282 l 270 282 l 172 0 l 35 0 m 646 395 l 573 600 b 476 907 549 667 519 761 b 380 600 433 758 402 662 l 309 395 m 479 1135 b 394 1215 433 1135 394 1171 b 479 1296 394 1260 433 1296 b 564 1215 526 1296 564 1260 b 479 1135 564 1171 526 1135 "},"Ḁ":{"ha":958,"x_min":0,"x_max":0,"o":"m 402 1010 l 551 1010 l 923 0 l 787 0 l 686 282 l 270 282 l 172 0 l 35 0 m 646 395 l 573 600 b 476 907 549 667 519 761 b 380 600 433 758 402 662 l 309 395 m 479 -358 b 310 -204 386 -358 310 -290 b 479 -51 310 -119 386 -51 b 649 -204 573 -51 649 -119 b 479 -358 649 -290 573 -358 m 479 -281 b 560 -204 524 -281 560 -247 b 479 -128 560 -162 524 -128 b 399 -204 434 -128 399 -162 b 479 -281 399 -247 435 -281 "},"Ạ":{"ha":958,"x_min":0,"x_max":0,"o":"m 402 1010 l 551 1010 l 923 0 l 787 0 l 686 282 l 270 282 l 172 0 l 35 0 m 646 395 l 573 600 b 476 907 549 667 519 761 b 380 600 433 758 402 662 l 309 395 m 481 -286 b 396 -205 435 -286 396 -250 b 481 -124 396 -160 435 -124 b 566 -205 528 -124 566 -160 b 481 -286 566 -250 528 -286 "},"Ả":{"ha":958,"x_min":0,"x_max":0,"o":"m 402 1010 l 551 1010 l 923 0 l 787 0 l 686 282 l 270 282 l 172 0 l 35 0 m 646 395 l 573 600 b 476 907 549 667 519 761 b 380 600 433 758 402 662 l 309 395 m 427 1109 l 475 1202 b 460 1229 484 1221 478 1229 l 366 1229 l 366 1309 l 460 1309 b 555 1168 572 1309 604 1244 l 519 1109 "},"Ấ":{"ha":958,"x_min":0,"x_max":0,"o":"m 402 1010 l 551 1010 l 923 0 l 787 0 l 686 282 l 270 282 l 172 0 l 35 0 m 646 395 l 573 600 b 476 907 549 667 519 761 b 380 600 433 758 402 662 l 309 395 m 266 1103 l 266 1109 l 425 1290 l 541 1290 l 701 1109 l 701 1103 l 580 1103 l 484 1221 l 386 1103 m 670 1535 l 806 1535 l 675 1348 l 575 1348 "},"Ầ":{"ha":958,"x_min":0,"x_max":0,"o":"m 402 1010 l 551 1010 l 923 0 l 787 0 l 686 282 l 270 282 l 172 0 l 35 0 m 646 395 l 573 600 b 476 907 549 667 519 761 b 380 600 433 758 402 662 l 309 395 m 266 1103 l 266 1109 l 425 1290 l 541 1290 l 701 1109 l 701 1103 l 580 1103 l 484 1221 l 386 1103 m 477 1535 l 614 1535 l 709 1348 l 608 1348 "},"Ẩ":{"ha":958,"x_min":0,"x_max":0,"o":"m 402 1010 l 551 1010 l 923 0 l 787 0 l 686 282 l 270 282 l 172 0 l 35 0 m 646 395 l 573 600 b 476 907 549 667 519 761 b 380 600 433 758 402 662 l 309 395 m 266 1103 l 266 1109 l 425 1290 l 541 1290 l 701 1109 l 701 1103 l 580 1103 l 484 1221 l 386 1103 m 572 1348 l 614 1428 b 600 1455 625 1447 618 1455 l 505 1455 l 505 1535 l 600 1535 b 695 1394 711 1535 746 1469 l 664 1348 "},"Ẫ":{"ha":958,"x_min":0,"x_max":0,"o":"m 402 1010 l 551 1010 l 923 0 l 787 0 l 686 282 l 270 282 l 172 0 l 35 0 m 646 395 l 573 600 b 476 907 549 667 519 761 b 380 600 433 758 402 662 l 309 395 m 266 1103 l 266 1109 l 425 1290 l 541 1290 l 701 1109 l 701 1103 l 580 1103 l 484 1221 l 386 1103 m 571 1367 b 406 1423 504 1367 441 1423 b 370 1369 382 1423 372 1396 l 285 1369 b 395 1510 288 1451 322 1510 b 558 1453 465 1510 513 1453 b 596 1508 581 1453 591 1468 l 680 1508 b 571 1367 677 1422 637 1367 "},"Ậ":{"ha":958,"x_min":0,"x_max":0,"o":"m 402 1010 l 551 1010 l 923 0 l 787 0 l 686 282 l 270 282 l 172 0 l 35 0 m 646 395 l 573 600 b 476 907 549 667 519 761 b 380 600 433 758 402 662 l 309 395 m 261 1122 l 261 1128 l 420 1309 l 536 1309 l 696 1128 l 696 1122 l 575 1122 l 479 1240 l 381 1122 m 481 -286 b 396 -205 435 -286 396 -250 b 481 -124 396 -160 435 -124 b 566 -205 528 -124 566 -160 b 481 -286 566 -250 528 -286 "},"Ắ":{"ha":958,"x_min":0,"x_max":0,"o":"m 402 1010 l 551 1010 l 923 0 l 787 0 l 686 282 l 270 282 l 172 0 l 35 0 m 646 395 l 573 600 b 476 907 549 667 519 761 b 380 600 433 758 402 662 l 309 395 m 482 1098 b 286 1290 372 1098 286 1182 l 375 1290 b 482 1185 375 1228 420 1185 b 589 1290 545 1185 589 1228 l 679 1290 b 482 1098 679 1183 593 1098 m 526 1535 l 663 1535 l 531 1348 l 431 1348 "},"Ằ":{"ha":958,"x_min":0,"x_max":0,"o":"m 402 1010 l 551 1010 l 923 0 l 787 0 l 686 282 l 270 282 l 172 0 l 35 0 m 646 395 l 573 600 b 476 907 549 667 519 761 b 380 600 433 758 402 662 l 309 395 m 475 1098 b 279 1290 365 1098 279 1183 l 368 1290 b 475 1185 368 1228 413 1185 b 583 1290 538 1185 583 1228 l 672 1290 b 475 1098 672 1182 585 1098 m 427 1348 l 295 1535 l 431 1535 l 526 1348 "},"Ẳ":{"ha":958,"x_min":0,"x_max":0,"o":"m 402 1010 l 551 1010 l 923 0 l 787 0 l 686 282 l 270 282 l 172 0 l 35 0 m 646 395 l 573 600 b 476 907 549 667 519 761 b 380 600 433 758 402 662 l 309 395 m 482 1098 b 286 1290 372 1098 286 1182 l 375 1290 b 482 1185 375 1228 420 1185 b 589 1290 545 1185 589 1228 l 679 1290 b 482 1098 679 1183 593 1098 m 437 1348 l 479 1428 b 465 1455 490 1447 483 1455 l 370 1455 l 370 1535 l 465 1535 b 560 1394 576 1535 611 1469 l 529 1348 "},"Ẵ":{"ha":958,"x_min":0,"x_max":0,"o":"m 402 1010 l 551 1010 l 923 0 l 787 0 l 686 282 l 270 282 l 172 0 l 35 0 m 646 395 l 573 600 b 476 907 549 667 519 761 b 380 600 433 758 402 662 l 309 395 m 479 1099 b 286 1289 370 1099 286 1183 l 372 1289 b 479 1183 372 1227 416 1183 b 585 1289 541 1183 585 1227 l 672 1289 b 479 1099 672 1183 587 1099 m 574 1366 b 409 1422 507 1366 444 1422 b 373 1369 385 1422 374 1395 l 288 1369 b 397 1510 290 1450 325 1510 b 561 1452 468 1510 515 1452 b 599 1507 583 1452 594 1468 l 682 1507 b 574 1366 680 1421 640 1366 "},"Ặ":{"ha":958,"x_min":0,"x_max":0,"o":"m 402 1010 l 551 1010 l 923 0 l 787 0 l 686 282 l 270 282 l 172 0 l 35 0 m 646 395 l 573 600 b 476 907 549 667 519 761 b 380 600 433 758 402 662 l 309 395 m 479 1117 b 282 1309 369 1117 282 1201 l 372 1309 b 479 1204 372 1247 416 1204 b 586 1309 541 1204 586 1247 l 675 1309 b 479 1117 675 1202 589 1117 m 481 -286 b 396 -205 435 -286 396 -250 b 481 -124 396 -160 435 -124 b 566 -205 528 -124 566 -160 b 481 -286 566 -250 528 -286 "},"Α":{"ha":958,"x_min":0,"x_max":0,"o":"m 402 1010 l 551 1010 l 923 0 l 787 0 l 686 282 l 270 282 l 172 0 l 35 0 m 646 395 l 573 600 b 476 907 549 667 519 761 b 380 600 433 758 402 662 l 309 395 "},"Ά":{"ha":958,"x_min":0,"x_max":0,"o":"m 402 1010 l 551 1010 l 923 0 l 787 0 l 686 282 l 270 282 l 172 0 l 35 0 m 646 395 l 573 600 b 476 907 549 667 519 761 b 380 600 433 758 402 662 l 309 395 m 111 1010 l 242 1010 l 173 811 l 88 811 "},"Ἀ":{"ha":989,"x_min":0,"x_max":0,"o":"m 433 1010 l 583 1010 l 954 0 l 819 0 l 718 282 l 301 282 l 203 0 l 66 0 m 677 395 l 604 600 b 507 907 580 667 550 761 b 412 600 465 758 433 662 l 340 395 m 92 827 l 92 876 l 100 876 b 170 924 146 876 170 892 b 100 966 170 952 146 966 l 75 966 l 75 1039 l 100 1039 b 261 935 208 1039 261 1004 b 100 827 261 863 208 827 "},"Ἁ":{"ha":989,"x_min":0,"x_max":0,"o":"m 433 1010 l 583 1010 l 954 0 l 819 0 l 718 282 l 301 282 l 203 0 l 66 0 m 677 395 l 604 600 b 507 907 580 667 550 761 b 412 600 465 758 433 662 l 340 395 m 231 805 b 70 913 123 805 70 841 b 231 1017 70 983 123 1017 l 256 1017 l 256 945 l 231 945 b 161 903 184 945 161 930 b 231 854 161 870 184 854 l 239 854 l 239 805 l 231 805 "},"Ἂ":{"ha":1200,"x_min":0,"x_max":0,"o":"m 644 1010 l 793 1010 l 1165 0 l 1029 0 l 928 282 l 512 282 l 414 0 l 277 0 m 888 395 l 815 600 b 718 907 791 667 761 761 b 623 600 675 758 644 662 l 551 395 m 83 805 l 83 854 l 92 854 b 161 903 138 854 161 870 b 92 945 161 930 138 945 l 66 945 l 66 1017 l 92 1017 b 252 913 199 1017 252 983 b 92 805 252 841 199 805 m 354 811 l 285 1010 l 416 1010 l 439 811 "},"Ἃ":{"ha":1217,"x_min":0,"x_max":0,"o":"m 661 1010 l 810 1010 l 1181 0 l 1046 0 l 945 282 l 528 282 l 431 0 l 294 0 m 905 395 l 831 600 b 734 907 807 667 777 761 b 639 600 692 758 661 662 l 568 395 m 227 805 b 66 913 120 805 66 841 b 227 1017 66 983 120 1017 l 252 1017 l 252 945 l 227 945 b 158 903 181 945 158 930 b 227 854 158 870 181 854 l 236 854 l 236 805 l 227 805 m 376 811 l 307 1010 l 437 1010 l 460 811 "},"Ἄ":{"ha":1203,"x_min":0,"x_max":0,"o":"m 647 1010 l 796 1010 l 1168 0 l 1032 0 l 931 282 l 515 282 l 417 0 l 280 0 m 891 395 l 818 600 b 721 907 793 667 764 761 b 625 600 678 758 647 662 l 554 395 m 83 805 l 83 854 l 92 854 b 161 903 138 854 161 870 b 92 945 161 930 138 945 l 66 945 l 66 1017 l 92 1017 b 252 913 199 1017 252 983 b 92 805 252 841 199 805 m 358 1010 l 489 1010 l 420 811 l 335 811 "},"Ἅ":{"ha":1208,"x_min":0,"x_max":0,"o":"m 652 1010 l 802 1010 l 1173 0 l 1038 0 l 937 282 l 520 282 l 422 0 l 286 0 m 897 395 l 823 600 b 726 907 799 667 769 761 b 631 600 684 758 652 662 l 559 395 m 227 805 b 66 913 120 805 66 841 b 227 1017 66 983 120 1017 l 252 1017 l 252 945 l 227 945 b 158 903 181 945 158 930 b 227 854 158 870 181 854 l 236 854 l 236 805 l 227 805 m 363 1010 l 494 1010 l 425 811 l 340 811 "},"Ἆ":{"ha":1091,"x_min":0,"x_max":0,"o":"m 535 1010 l 684 1010 l 1056 0 l 920 0 l 819 282 l 403 282 l 305 0 l 168 0 m 779 395 l 706 600 b 609 907 682 667 652 761 b 513 600 566 758 535 662 l 442 395 m 353 1095 b 188 1152 286 1095 222 1152 b 152 1098 164 1152 153 1124 l 66 1098 b 176 1239 69 1179 104 1239 b 340 1181 247 1239 294 1181 b 378 1236 362 1181 373 1197 l 461 1236 b 353 1095 458 1151 419 1095 m 187 814 l 187 863 l 196 863 b 265 912 242 863 265 880 b 196 954 265 940 242 954 l 171 954 l 171 1027 l 196 1027 b 357 923 303 1027 357 992 b 196 814 357 850 303 814 "},"Ἇ":{"ha":1091,"x_min":0,"x_max":0,"o":"m 535 1010 l 684 1010 l 1056 0 l 920 0 l 819 282 l 403 282 l 305 0 l 168 0 m 779 395 l 706 600 b 609 907 682 667 652 761 b 513 600 566 758 535 662 l 442 395 m 353 1084 b 188 1141 286 1084 222 1141 b 152 1087 164 1141 153 1114 l 66 1087 b 176 1228 69 1168 104 1228 b 340 1171 247 1228 294 1171 b 378 1225 362 1171 373 1186 l 461 1225 b 353 1084 458 1140 419 1084 m 332 804 b 171 912 224 804 171 840 b 332 1016 171 981 224 1016 l 357 1016 l 357 943 l 332 943 b 262 901 286 943 262 929 b 332 852 262 869 286 852 l 340 852 l 340 804 l 332 804 "},"Ᾰ":{"ha":958,"x_min":0,"x_max":0,"o":"m 402 1010 l 551 1010 l 923 0 l 787 0 l 686 282 l 270 282 l 172 0 l 35 0 m 646 395 l 573 600 b 476 907 549 667 519 761 b 380 600 433 758 402 662 l 309 395 m 479 1117 b 282 1309 369 1117 282 1201 l 372 1309 b 479 1204 372 1247 416 1204 b 586 1309 541 1204 586 1247 l 675 1309 b 479 1117 675 1202 589 1117 "},"Ᾱ":{"ha":958,"x_min":0,"x_max":0,"o":"m 402 1010 l 551 1010 l 923 0 l 787 0 l 686 282 l 270 282 l 172 0 l 35 0 m 646 395 l 573 600 b 476 907 549 667 519 761 b 380 600 433 758 402 662 l 309 395 m 667 1167 l 291 1167 l 291 1263 l 667 1263 "},"Ὰ":{"ha":958,"x_min":0,"x_max":0,"o":"m 402 1010 l 551 1010 l 923 0 l 787 0 l 686 282 l 270 282 l 172 0 l 35 0 m 646 395 l 573 600 b 476 907 549 667 519 761 b 380 600 433 758 402 662 l 309 395 m 75 857 l 6 1057 l 137 1057 l 160 857 "},"Ⱥ":{"ha":958,"x_min":0,"x_max":0,"o":"m 642 763 l 923 0 l 787 0 l 686 282 l 471 282 l 326 -129 l 213 -129 l 359 282 l 270 282 l 172 0 l 35 0 l 402 1010 l 551 1010 l 585 918 l 663 1138 l 776 1138 m 524 747 b 476 907 510 792 494 845 b 380 600 433 758 402 662 l 309 395 l 399 395 m 511 395 l 646 395 l 578 583 "},"Ά":{"ha":989,"x_min":0,"x_max":0,"o":"m 433 1010 l 583 1010 l 954 0 l 819 0 l 718 282 l 301 282 l 203 0 l 66 0 m 677 395 l 604 600 b 507 907 580 667 550 761 b 412 600 465 758 433 662 l 340 395 m 142 1010 l 273 1010 l 204 811 l 119 811 "},"А":{"ha":958,"x_min":0,"x_max":0,"o":"m 402 1010 l 551 1010 l 923 0 l 787 0 l 686 282 l 270 282 l 172 0 l 35 0 m 646 395 l 573 600 b 476 907 549 667 519 761 b 380 600 433 758 402 662 l 309 395 "},"Ӑ":{"ha":958,"x_min":0,"x_max":0,"o":"m 402 1010 l 551 1010 l 923 0 l 787 0 l 686 282 l 270 282 l 172 0 l 35 0 m 646 395 l 573 600 b 476 907 549 667 519 761 b 380 600 433 758 402 662 l 309 395 m 479 1117 b 282 1309 369 1117 282 1201 l 372 1309 b 479 1204 372 1247 416 1204 b 586 1309 541 1204 586 1247 l 675 1309 b 479 1117 675 1202 589 1117 "},"Ӓ":{"ha":958,"x_min":0,"x_max":0,"o":"m 402 1010 l 551 1010 l 923 0 l 787 0 l 686 282 l 270 282 l 172 0 l 35 0 m 646 395 l 573 600 b 476 907 549 667 519 761 b 380 600 433 758 402 662 l 309 395 m 336 1135 b 256 1215 292 1135 256 1171 b 336 1295 256 1259 292 1295 b 416 1215 380 1295 416 1259 b 336 1135 416 1171 380 1135 m 622 1135 b 541 1215 577 1135 541 1171 b 622 1295 541 1259 577 1295 b 702 1215 666 1295 702 1259 b 622 1135 702 1171 666 1135 "},"ᾈ":{"ha":989,"x_min":0,"x_max":0,"o":"m 433 1010 l 583 1010 l 954 0 l 819 0 l 718 282 l 301 282 l 203 0 l 66 0 m 677 395 l 604 600 b 507 907 580 667 550 761 b 412 600 465 758 433 662 l 340 395 m 571 -335 b 455 -209 496 -335 455 -292 l 455 -80 l 565 -80 l 565 -208 b 599 -260 565 -245 574 -260 b 629 -257 612 -260 618 -259 l 629 -327 b 571 -335 614 -332 590 -335 m 92 827 l 92 876 l 100 876 b 170 924 146 876 170 892 b 100 966 170 952 146 966 l 75 966 l 75 1039 l 100 1039 b 261 935 208 1039 261 1004 b 100 827 261 863 208 827 "},"ᾉ":{"ha":989,"x_min":0,"x_max":0,"o":"m 433 1010 l 583 1010 l 954 0 l 819 0 l 718 282 l 301 282 l 203 0 l 66 0 m 677 395 l 604 600 b 507 907 580 667 550 761 b 412 600 465 758 433 662 l 340 395 m 571 -335 b 455 -209 496 -335 455 -292 l 455 -80 l 565 -80 l 565 -208 b 599 -260 565 -245 574 -260 b 629 -257 612 -260 618 -259 l 629 -327 b 571 -335 614 -332 590 -335 m 231 805 b 70 913 123 805 70 841 b 231 1017 70 983 123 1017 l 256 1017 l 256 945 l 231 945 b 161 903 184 945 161 930 b 231 854 161 870 184 854 l 239 854 l 239 805 l 231 805 "},"ᾊ":{"ha":1200,"x_min":0,"x_max":0,"o":"m 644 1010 l 793 1010 l 1165 0 l 1029 0 l 928 282 l 512 282 l 414 0 l 277 0 m 888 395 l 815 600 b 718 907 791 667 761 761 b 623 600 675 758 644 662 l 551 395 m 782 -335 b 666 -209 707 -335 666 -292 l 666 -80 l 776 -80 l 776 -208 b 810 -260 776 -245 785 -260 b 840 -257 823 -260 829 -259 l 840 -327 b 782 -335 825 -332 801 -335 m 83 805 l 83 854 l 92 854 b 161 903 138 854 161 870 b 92 945 161 930 138 945 l 66 945 l 66 1017 l 92 1017 b 252 913 199 1017 252 983 b 92 805 252 841 199 805 m 354 811 l 285 1010 l 416 1010 l 439 811 "},"ᾋ":{"ha":1217,"x_min":0,"x_max":0,"o":"m 661 1010 l 810 1010 l 1181 0 l 1046 0 l 945 282 l 528 282 l 431 0 l 294 0 m 905 395 l 831 600 b 734 907 807 667 777 761 b 639 600 692 758 661 662 l 568 395 m 798 -335 b 682 -209 723 -335 682 -292 l 682 -80 l 792 -80 l 792 -208 b 826 -260 792 -245 802 -260 b 856 -257 840 -260 846 -259 l 856 -327 b 798 -335 842 -332 817 -335 m 227 805 b 66 913 120 805 66 841 b 227 1017 66 983 120 1017 l 252 1017 l 252 945 l 227 945 b 158 903 181 945 158 930 b 227 854 158 870 181 854 l 236 854 l 236 805 l 227 805 m 376 811 l 307 1010 l 437 1010 l 460 811 "},"ᾌ":{"ha":1203,"x_min":0,"x_max":0,"o":"m 647 1010 l 796 1010 l 1168 0 l 1032 0 l 931 282 l 515 282 l 417 0 l 280 0 m 891 395 l 818 600 b 721 907 793 667 764 761 b 625 600 678 758 647 662 l 554 395 m 785 -335 b 669 -209 709 -335 669 -292 l 669 -80 l 779 -80 l 779 -208 b 812 -260 779 -245 788 -260 b 842 -257 826 -260 832 -259 l 842 -327 b 785 -335 828 -332 804 -335 m 83 805 l 83 854 l 92 854 b 161 903 138 854 161 870 b 92 945 161 930 138 945 l 66 945 l 66 1017 l 92 1017 b 252 913 199 1017 252 983 b 92 805 252 841 199 805 m 358 1010 l 489 1010 l 420 811 l 335 811 "},"ᾍ":{"ha":1208,"x_min":0,"x_max":0,"o":"m 652 1010 l 802 1010 l 1173 0 l 1038 0 l 937 282 l 520 282 l 422 0 l 286 0 m 897 395 l 823 600 b 726 907 799 667 769 761 b 631 600 684 758 652 662 l 559 395 m 790 -335 b 674 -209 715 -335 674 -292 l 674 -80 l 784 -80 l 784 -208 b 818 -260 784 -245 793 -260 b 848 -257 831 -260 838 -259 l 848 -327 b 790 -335 833 -332 809 -335 m 227 805 b 66 913 120 805 66 841 b 227 1017 66 983 120 1017 l 252 1017 l 252 945 l 227 945 b 158 903 181 945 158 930 b 227 854 158 870 181 854 l 236 854 l 236 805 l 227 805 m 363 1010 l 494 1010 l 425 811 l 340 811 "},"ᾎ":{"ha":1091,"x_min":0,"x_max":0,"o":"m 535 1010 l 684 1010 l 1056 0 l 920 0 l 819 282 l 403 282 l 305 0 l 168 0 m 779 395 l 706 600 b 609 907 682 667 652 761 b 513 600 566 758 535 662 l 442 395 m 353 1095 b 188 1152 286 1095 222 1152 b 152 1098 164 1152 153 1124 l 66 1098 b 176 1239 69 1179 104 1239 b 340 1181 247 1239 294 1181 b 378 1236 362 1181 373 1197 l 461 1236 b 353 1095 458 1151 419 1095 m 673 -335 b 557 -209 597 -335 557 -292 l 557 -80 l 667 -80 l 667 -208 b 701 -260 667 -245 676 -260 b 730 -257 714 -260 720 -259 l 730 -327 b 673 -335 716 -332 692 -335 m 187 814 l 187 863 l 196 863 b 265 912 242 863 265 880 b 196 954 265 940 242 954 l 171 954 l 171 1027 l 196 1027 b 357 923 303 1027 357 992 b 196 814 357 850 303 814 "},"ᾏ":{"ha":1091,"x_min":0,"x_max":0,"o":"m 535 1010 l 684 1010 l 1056 0 l 920 0 l 819 282 l 403 282 l 305 0 l 168 0 m 779 395 l 706 600 b 609 907 682 667 652 761 b 513 600 566 758 535 662 l 442 395 m 353 1084 b 188 1141 286 1084 222 1141 b 152 1087 164 1141 153 1114 l 66 1087 b 176 1228 69 1168 104 1228 b 340 1171 247 1228 294 1171 b 378 1225 362 1171 373 1186 l 461 1225 b 353 1084 458 1140 419 1084 m 673 -335 b 557 -209 597 -335 557 -292 l 557 -80 l 667 -80 l 667 -208 b 701 -260 667 -245 676 -260 b 730 -257 714 -260 720 -259 l 730 -327 b 673 -335 716 -332 692 -335 m 332 804 b 171 912 224 804 171 840 b 332 1016 171 981 224 1016 l 357 1016 l 357 943 l 332 943 b 262 901 286 943 262 929 b 332 852 262 869 286 852 l 340 852 l 340 804 l 332 804 "},"ᾼ":{"ha":958,"x_min":0,"x_max":0,"o":"m 402 1010 l 551 1010 l 923 0 l 787 0 l 686 282 l 270 282 l 172 0 l 35 0 m 646 395 l 573 600 b 476 907 549 667 519 761 b 380 600 433 758 402 662 l 309 395 m 540 -335 b 424 -209 465 -335 424 -292 l 424 -80 l 534 -80 l 534 -208 b 568 -260 534 -245 543 -260 b 597 -257 581 -260 587 -259 l 597 -327 b 540 -335 583 -332 559 -335 "},"Λ":{"ha":958,"x_min":0,"x_max":0,"o":"m 402 1010 l 551 1010 l 923 0 l 787 0 l 573 600 b 476 907 549 667 519 761 b 380 600 433 758 402 662 l 172 0 l 35 0 "},"Æ":{"ha":1380,"x_min":0,"x_max":0,"o":"m 521 1010 l 1282 1010 l 1282 897 l 796 897 l 796 563 l 1251 563 l 1251 449 l 796 449 l 796 114 l 1289 114 l 1289 0 l 673 0 l 673 282 l 309 282 l 177 0 l 35 0 m 673 389 l 673 927 l 610 927 l 359 389 "},"Ǣ":{"ha":1380,"x_min":0,"x_max":0,"o":"m 521 1010 l 1282 1010 l 1282 897 l 796 897 l 796 563 l 1251 563 l 1251 449 l 796 449 l 796 114 l 1289 114 l 1289 0 l 673 0 l 673 282 l 309 282 l 177 0 l 35 0 m 673 389 l 673 927 l 610 927 l 359 389 m 1087 1167 l 711 1167 l 711 1263 l 1087 1263 "},"Ǽ":{"ha":1380,"x_min":0,"x_max":0,"o":"m 521 1010 l 1282 1010 l 1282 897 l 796 897 l 796 563 l 1251 563 l 1251 449 l 796 449 l 796 114 l 1289 114 l 1289 0 l 673 0 l 673 282 l 309 282 l 177 0 l 35 0 m 673 389 l 673 927 l 610 927 l 359 389 m 941 1309 l 1077 1309 l 945 1109 l 846 1109 "},"Ӕ":{"ha":1380,"x_min":0,"x_max":0,"o":"m 521 1010 l 1282 1010 l 1282 897 l 796 897 l 796 563 l 1251 563 l 1251 449 l 796 449 l 796 114 l 1289 114 l 1289 0 l 673 0 l 673 282 l 309 282 l 177 0 l 35 0 m 673 389 l 673 927 l 610 927 l 359 389 "},"B":{"ha":909,"x_min":0,"x_max":0,"o":"m 122 1010 l 480 1010 b 791 743 691 1010 791 890 b 625 530 791 613 713 554 l 625 521 b 830 269 720 515 830 428 b 492 0 830 117 730 0 l 122 0 m 488 114 b 706 271 646 114 706 183 b 495 458 706 372 625 458 l 251 458 l 251 114 m 473 567 b 667 740 582 567 667 635 b 477 897 667 827 608 897 l 251 897 l 251 567 "},"Ḃ":{"ha":909,"x_min":0,"x_max":0,"o":"m 122 1010 l 480 1010 b 791 743 691 1010 791 890 b 625 530 791 613 713 554 l 625 521 b 830 269 720 515 830 428 b 492 0 830 117 730 0 l 122 0 m 488 114 b 706 271 646 114 706 183 b 495 458 706 372 625 458 l 251 458 l 251 114 m 473 567 b 667 740 582 567 667 635 b 477 897 667 827 608 897 l 251 897 l 251 567 m 436 1135 b 351 1215 390 1135 351 1171 b 436 1296 351 1260 390 1296 b 522 1215 483 1296 522 1260 b 436 1135 522 1171 483 1135 "},"Ḅ":{"ha":909,"x_min":0,"x_max":0,"o":"m 122 1010 l 480 1010 b 791 743 691 1010 791 890 b 625 530 791 613 713 554 l 625 521 b 830 269 720 515 830 428 b 492 0 830 117 730 0 l 122 0 m 488 114 b 706 271 646 114 706 183 b 495 458 706 372 625 458 l 251 458 l 251 114 m 473 567 b 667 740 582 567 667 635 b 477 897 667 827 608 897 l 251 897 l 251 567 m 444 -286 b 359 -205 397 -286 359 -250 b 444 -124 359 -160 397 -124 b 529 -205 490 -124 529 -160 b 444 -286 529 -250 490 -286 "},"Ḇ":{"ha":909,"x_min":0,"x_max":0,"o":"m 122 1010 l 480 1010 b 791 743 691 1010 791 890 b 625 530 791 613 713 554 l 625 521 b 830 269 720 515 830 428 b 492 0 830 117 730 0 l 122 0 m 488 114 b 706 271 646 114 706 183 b 495 458 706 372 625 458 l 251 458 l 251 114 m 473 567 b 667 740 582 567 667 635 b 477 897 667 827 608 897 l 251 897 l 251 567 m 630 -253 l 254 -253 l 254 -157 l 630 -157 "},"Ƀ":{"ha":909,"x_min":0,"x_max":0,"o":"m 122 241 l 14 241 l 14 332 l 122 332 l 122 1010 l 480 1010 b 791 743 691 1010 791 890 b 625 530 791 613 713 554 l 625 521 b 830 269 720 515 830 428 b 492 0 830 117 730 0 l 122 0 m 473 567 b 667 740 582 567 667 635 b 477 897 667 827 608 897 l 251 897 l 251 567 m 488 114 b 706 271 646 114 706 183 b 495 458 706 372 625 458 l 251 458 l 251 332 l 452 332 l 452 241 l 251 241 l 251 114 "},"Ɓ":{"ha":1099,"x_min":0,"x_max":0,"o":"m 41 806 b 250 1010 41 943 110 1010 l 670 1010 b 981 743 881 1010 981 890 b 815 530 981 613 903 554 l 815 521 b 1020 269 909 515 1020 428 b 682 0 1020 117 920 0 l 312 0 l 312 897 l 250 897 b 161 804 189 897 161 869 l 161 755 l 41 755 m 678 114 b 896 271 836 114 896 183 b 685 458 896 372 814 458 l 441 458 l 441 114 m 663 567 b 857 740 772 567 857 635 b 667 897 857 827 798 897 l 441 897 l 441 567 "},"В":{"ha":909,"x_min":0,"x_max":0,"o":"m 122 1010 l 480 1010 b 791 743 691 1010 791 890 b 625 530 791 613 713 554 l 625 521 b 830 269 720 515 830 428 b 492 0 830 117 730 0 l 122 0 m 488 114 b 706 271 646 114 706 183 b 495 458 706 372 625 458 l 251 458 l 251 114 m 473 567 b 667 740 582 567 667 635 b 477 897 667 827 608 897 l 251 897 l 251 567 "},"Β":{"ha":909,"x_min":0,"x_max":0,"o":"m 122 1010 l 480 1010 b 791 743 691 1010 791 890 b 625 530 791 613 713 554 l 625 521 b 830 269 720 515 830 428 b 492 0 830 117 730 0 l 122 0 m 488 114 b 706 271 646 114 706 183 b 495 458 706 372 625 458 l 251 458 l 251 114 m 473 567 b 667 740 582 567 667 635 b 477 897 667 827 608 897 l 251 897 l 251 567 "},"C":{"ha":1015,"x_min":0,"x_max":0,"o":"m 531 -14 b 83 505 272 -14 83 184 b 531 1024 83 825 272 1024 b 939 692 736 1024 903 901 l 810 692 b 531 905 781 831 663 905 b 208 505 349 905 208 764 b 531 106 208 246 350 106 b 810 318 663 106 781 180 l 939 318 b 531 -14 903 113 738 -14 "},"Ƈ":{"ha":1015,"x_min":0,"x_max":0,"o":"m 531 -14 b 83 505 272 -14 83 184 b 531 1024 83 825 272 1024 b 821 917 644 1024 746 986 l 821 970 b 1017 1143 821 1082 889 1143 b 1088 1137 1047 1143 1075 1140 l 1088 1036 b 1048 1038 1074 1038 1060 1038 b 939 970 972 1038 939 1017 l 939 692 l 810 692 b 531 905 781 831 663 905 b 208 505 349 905 208 764 b 531 106 208 246 350 106 b 810 318 663 106 781 180 l 939 318 b 531 -14 903 113 738 -14 "},"Ç":{"ha":1015,"x_min":0,"x_max":0,"o":"m 455 -220 l 535 -220 b 602 -175 585 -220 602 -208 b 535 -131 602 -142 585 -131 l 479 -131 l 495 -12 b 83 505 254 5 83 199 b 531 1024 83 825 272 1024 b 939 692 736 1024 903 901 l 810 692 b 531 905 781 831 663 905 b 208 505 349 905 208 764 b 531 106 208 246 350 106 b 810 318 663 106 781 180 l 939 318 b 564 -12 905 123 755 0 l 564 -66 b 692 -176 652 -69 692 -102 b 536 -291 692 -256 644 -291 l 455 -291 "},"Ć":{"ha":1015,"x_min":0,"x_max":0,"o":"m 531 -14 b 83 505 272 -14 83 184 b 531 1024 83 825 272 1024 b 939 692 736 1024 903 901 l 810 692 b 531 905 781 831 663 905 b 208 505 349 905 208 764 b 531 106 208 246 350 106 b 810 318 663 106 781 180 l 939 318 b 531 -14 903 113 738 -14 m 572 1309 l 709 1309 l 577 1109 l 477 1109 "},"Ĉ":{"ha":1015,"x_min":0,"x_max":0,"o":"m 531 -14 b 83 505 272 -14 83 184 b 531 1024 83 825 272 1024 b 939 692 736 1024 903 901 l 810 692 b 531 905 781 831 663 905 b 208 505 349 905 208 764 b 531 106 208 246 350 106 b 810 318 663 106 781 180 l 939 318 b 531 -14 903 113 738 -14 m 313 1122 l 313 1128 l 473 1309 l 589 1309 l 749 1128 l 749 1122 l 627 1122 l 531 1240 l 433 1122 "},"Ċ":{"ha":1015,"x_min":0,"x_max":0,"o":"m 531 -14 b 83 505 272 -14 83 184 b 531 1024 83 825 272 1024 b 939 692 736 1024 903 901 l 810 692 b 531 905 781 831 663 905 b 208 505 349 905 208 764 b 531 106 208 246 350 106 b 810 318 663 106 781 180 l 939 318 b 531 -14 903 113 738 -14 m 531 1135 b 446 1215 485 1135 446 1171 b 531 1296 446 1260 485 1296 b 616 1215 578 1296 616 1260 b 531 1135 616 1171 578 1135 "},"Č":{"ha":1015,"x_min":0,"x_max":0,"o":"m 531 -14 b 83 505 272 -14 83 184 b 531 1024 83 825 272 1024 b 939 692 736 1024 903 901 l 810 692 b 531 905 781 831 663 905 b 208 505 349 905 208 764 b 531 106 208 246 350 106 b 810 318 663 106 781 180 l 939 318 b 531 -14 903 113 738 -14 m 531 1190 l 627 1309 l 749 1309 l 749 1303 l 589 1122 l 473 1122 l 313 1303 l 313 1309 l 433 1309 "},"Ḉ":{"ha":1015,"x_min":0,"x_max":0,"o":"m 455 -220 l 535 -220 b 602 -175 585 -220 602 -208 b 535 -131 602 -142 585 -131 l 479 -131 l 495 -12 b 83 505 254 5 83 199 b 531 1024 83 825 272 1024 b 939 692 736 1024 903 901 l 810 692 b 531 905 781 831 663 905 b 208 505 349 905 208 764 b 531 106 208 246 350 106 b 810 318 663 106 781 180 l 939 318 b 564 -12 905 123 755 0 l 564 -66 b 692 -176 652 -69 692 -102 b 536 -291 692 -256 644 -291 l 455 -291 m 572 1309 l 709 1309 l 577 1109 l 477 1109 "},"Ȼ":{"ha":1015,"x_min":0,"x_max":0,"o":"m 294 54 b 83 505 164 137 83 294 b 531 1024 83 825 272 1024 b 634 1013 567 1024 601 1020 l 678 1138 l 791 1138 l 734 977 b 939 692 840 924 916 825 l 810 692 b 692 861 794 769 751 826 l 431 121 b 531 106 462 111 496 106 b 810 318 663 106 781 180 l 939 318 b 531 -14 903 113 738 -14 b 390 8 481 -14 434 -6 l 342 -129 l 229 -129 m 593 899 b 531 905 573 903 552 905 b 208 505 349 905 208 764 b 336 174 208 351 258 239 "},"Ɔ":{"ha":1015,"x_min":0,"x_max":0,"o":"m 484 1024 b 932 506 743 1024 932 826 b 484 -14 932 185 743 -14 b 76 318 279 -14 112 110 l 205 318 b 484 106 233 180 352 106 b 806 506 665 106 806 247 b 484 905 806 764 665 905 b 205 692 351 905 233 830 l 76 692 b 484 1024 111 898 277 1024 "},"Ϲ":{"ha":1015,"x_min":0,"x_max":0,"o":"m 531 -14 b 83 505 272 -14 83 184 b 531 1024 83 825 272 1024 b 939 692 736 1024 903 901 l 810 692 b 531 905 781 831 663 905 b 208 505 349 905 208 764 b 531 106 208 246 350 106 b 810 318 663 106 781 180 l 939 318 b 531 -14 903 113 738 -14 "},"D":{"ha":1002,"x_min":0,"x_max":0,"o":"m 122 0 l 122 1010 l 450 1010 b 920 507 745 1010 920 821 b 437 0 920 191 745 0 m 429 114 b 795 507 675 114 795 262 b 441 897 795 750 675 897 l 251 897 l 251 114 "},"Ɗ":{"ha":1192,"x_min":0,"x_max":0,"o":"m 41 806 b 250 1010 41 943 110 1010 l 640 1010 b 1109 507 935 1010 1109 821 b 627 0 1109 191 935 0 l 312 0 l 312 897 l 250 897 b 161 804 189 897 161 869 l 161 755 l 41 755 m 619 114 b 985 507 865 114 985 262 b 631 897 985 750 865 897 l 441 897 l 441 114 "},"Ď":{"ha":1002,"x_min":0,"x_max":0,"o":"m 122 0 l 122 1010 l 450 1010 b 920 507 745 1010 920 821 b 437 0 920 191 745 0 m 429 114 b 795 507 675 114 795 262 b 441 897 795 750 675 897 l 251 897 l 251 114 m 420 1190 l 516 1309 l 637 1309 l 637 1303 l 477 1122 l 361 1122 l 202 1303 l 202 1309 l 322 1309 "},"Ḋ":{"ha":1002,"x_min":0,"x_max":0,"o":"m 122 0 l 122 1010 l 450 1010 b 920 507 745 1010 920 821 b 437 0 920 191 745 0 m 429 114 b 795 507 675 114 795 262 b 441 897 795 750 675 897 l 251 897 l 251 114 m 420 1135 b 335 1215 374 1135 335 1171 b 420 1296 335 1260 374 1296 b 505 1215 467 1296 505 1260 b 420 1135 505 1171 467 1135 "},"Ḍ":{"ha":1002,"x_min":0,"x_max":0,"o":"m 122 0 l 122 1010 l 450 1010 b 920 507 745 1010 920 821 b 437 0 920 191 745 0 m 429 114 b 795 507 675 114 795 262 b 441 897 795 750 675 897 l 251 897 l 251 114 m 428 -286 b 343 -205 382 -286 343 -250 b 428 -124 343 -160 382 -124 b 513 -205 475 -124 513 -160 b 428 -286 513 -250 475 -286 "},"Ḏ":{"ha":1002,"x_min":0,"x_max":0,"o":"m 122 0 l 122 1010 l 450 1010 b 920 507 745 1010 920 821 b 437 0 920 191 745 0 m 429 114 b 795 507 675 114 795 262 b 441 897 795 750 675 897 l 251 897 l 251 114 m 614 -253 l 239 -253 l 239 -157 l 614 -157 "},"Ḑ":{"ha":1002,"x_min":0,"x_max":0,"o":"m 122 0 l 122 1010 l 450 1010 b 920 507 745 1010 920 821 b 437 0 920 191 745 0 m 429 114 b 795 507 675 114 795 262 b 441 897 795 750 675 897 l 251 897 l 251 114 m 362 -80 l 487 -80 l 401 -334 l 307 -334 "},"Ḓ":{"ha":1002,"x_min":0,"x_max":0,"o":"m 122 0 l 122 1010 l 450 1010 b 920 507 745 1010 920 821 b 437 0 920 191 745 0 m 429 114 b 795 507 675 114 795 262 b 441 897 795 750 675 897 l 251 897 l 251 114 m 213 -298 l 213 -292 l 372 -111 l 488 -111 l 648 -292 l 648 -298 l 527 -298 l 431 -180 l 333 -298 "},"Ɖ":{"ha":1021,"x_min":0,"x_max":0,"o":"m 140 0 l 140 453 l 14 453 l 14 557 l 140 557 l 140 1010 l 469 1010 b 938 507 764 1010 938 821 b 456 0 938 191 764 0 m 448 114 b 813 507 694 114 813 262 b 460 897 813 750 694 897 l 269 897 l 269 557 l 565 557 l 565 453 l 269 453 l 269 114 "},"ǲ":{"ha":1769,"x_min":0,"x_max":0,"o":"m 122 0 l 122 1010 l 450 1010 b 920 507 745 1010 920 821 b 437 0 920 191 745 0 m 429 114 b 795 507 675 114 795 262 b 441 897 795 750 675 897 l 251 897 l 251 114 m 1088 91 l 1513 637 l 1513 645 l 1101 645 l 1101 758 l 1670 758 l 1670 661 l 1257 121 l 1257 113 l 1684 113 l 1684 0 l 1088 0 "},"ǅ":{"ha":1769,"x_min":0,"x_max":0,"o":"m 122 0 l 122 1010 l 450 1010 b 920 507 745 1010 920 821 b 437 0 920 191 745 0 m 429 114 b 795 507 675 114 795 262 b 441 897 795 750 675 897 l 251 897 l 251 114 m 1088 91 l 1513 637 l 1513 645 l 1101 645 l 1101 758 l 1670 758 l 1670 661 l 1257 121 l 1257 113 l 1684 113 l 1684 0 l 1088 0 m 1379 938 l 1475 1057 l 1596 1057 l 1596 1050 l 1436 869 l 1320 869 l 1161 1050 l 1161 1057 l 1281 1057 "},"E":{"ha":835,"x_min":0,"x_max":0,"o":"m 122 1010 l 738 1010 l 738 897 l 251 897 l 251 567 l 705 567 l 705 453 l 251 453 l 251 114 l 744 114 l 744 0 l 122 0 "},"È":{"ha":835,"x_min":0,"x_max":0,"o":"m 122 1010 l 738 1010 l 738 897 l 251 897 l 251 567 l 705 567 l 705 453 l 251 453 l 251 114 l 744 114 l 744 0 l 122 0 m 254 1309 l 391 1309 l 486 1109 l 385 1109 "},"É":{"ha":835,"x_min":0,"x_max":0,"o":"m 122 1010 l 738 1010 l 738 897 l 251 897 l 251 567 l 705 567 l 705 453 l 251 453 l 251 114 l 744 114 l 744 0 l 122 0 m 475 1309 l 611 1309 l 479 1109 l 380 1109 "},"Ê":{"ha":835,"x_min":0,"x_max":0,"o":"m 122 1010 l 738 1010 l 738 897 l 251 897 l 251 567 l 705 567 l 705 453 l 251 453 l 251 114 l 744 114 l 744 0 l 122 0 m 216 1122 l 216 1128 l 375 1309 l 491 1309 l 651 1128 l 651 1122 l 530 1122 l 433 1240 l 336 1122 "},"Ë":{"ha":835,"x_min":0,"x_max":0,"o":"m 122 1010 l 738 1010 l 738 897 l 251 897 l 251 567 l 705 567 l 705 453 l 251 453 l 251 114 l 744 114 l 744 0 l 122 0 m 291 1135 b 210 1215 246 1135 210 1171 b 291 1295 210 1259 246 1295 b 371 1215 335 1295 371 1259 b 291 1135 371 1171 335 1135 m 576 1135 b 496 1215 532 1135 496 1171 b 576 1295 496 1259 532 1295 b 656 1215 621 1295 656 1259 b 576 1135 656 1171 621 1135 "},"Ē":{"ha":835,"x_min":0,"x_max":0,"o":"m 122 1010 l 738 1010 l 738 897 l 251 897 l 251 567 l 705 567 l 705 453 l 251 453 l 251 114 l 744 114 l 744 0 l 122 0 m 621 1167 l 245 1167 l 245 1263 l 621 1263 "},"Ĕ":{"ha":835,"x_min":0,"x_max":0,"o":"m 122 1010 l 738 1010 l 738 897 l 251 897 l 251 567 l 705 567 l 705 453 l 251 453 l 251 114 l 744 114 l 744 0 l 122 0 m 433 1117 b 237 1309 323 1117 237 1201 l 326 1309 b 433 1204 326 1247 371 1204 b 541 1309 496 1204 541 1247 l 630 1309 b 433 1117 630 1202 544 1117 "},"Ė":{"ha":835,"x_min":0,"x_max":0,"o":"m 122 1010 l 738 1010 l 738 897 l 251 897 l 251 567 l 705 567 l 705 453 l 251 453 l 251 114 l 744 114 l 744 0 l 122 0 m 433 1135 b 349 1215 387 1135 349 1171 b 433 1296 349 1260 387 1296 b 519 1215 480 1296 519 1260 b 433 1135 519 1171 480 1135 "},"Ę":{"ha":835,"x_min":0,"x_max":0,"o":"m 122 1010 l 738 1010 l 738 897 l 251 897 l 251 567 l 705 567 l 705 453 l 251 453 l 251 114 l 744 114 l 744 0 b 630 -140 684 -42 630 -83 b 686 -193 630 -173 648 -193 b 749 -174 711 -193 732 -184 l 789 -262 b 667 -296 762 -277 722 -296 b 507 -164 578 -296 507 -249 b 608 0 507 -104 543 -47 l 122 0 "},"Ě":{"ha":835,"x_min":0,"x_max":0,"o":"m 122 1010 l 738 1010 l 738 897 l 251 897 l 251 567 l 705 567 l 705 453 l 251 453 l 251 114 l 744 114 l 744 0 l 122 0 m 433 1190 l 530 1309 l 651 1309 l 651 1303 l 491 1122 l 375 1122 l 216 1303 l 216 1309 l 336 1309 "},"Ȅ":{"ha":835,"x_min":0,"x_max":0,"o":"m 122 1010 l 738 1010 l 738 897 l 251 897 l 251 567 l 705 567 l 705 453 l 251 453 l 251 114 l 744 114 l 744 0 l 122 0 m 123 1309 l 259 1309 l 373 1109 l 273 1109 m 380 1309 l 515 1309 l 595 1109 l 495 1109 "},"Ȇ":{"ha":835,"x_min":0,"x_max":0,"o":"m 122 1010 l 738 1010 l 738 897 l 251 897 l 251 567 l 705 567 l 705 453 l 251 453 l 251 114 l 744 114 l 744 0 l 122 0 m 433 1326 b 640 1122 552 1326 640 1236 l 551 1122 b 433 1235 551 1188 496 1235 b 316 1122 371 1235 316 1188 l 227 1122 b 433 1326 227 1236 315 1326 "},"Ȩ":{"ha":835,"x_min":0,"x_max":0,"o":"m 122 1010 l 738 1010 l 738 897 l 251 897 l 251 567 l 705 567 l 705 453 l 251 453 l 251 114 l 744 114 l 744 0 l 467 0 l 467 -58 b 595 -168 555 -62 595 -95 b 439 -283 595 -248 547 -283 l 358 -283 l 358 -212 l 438 -212 b 505 -168 488 -212 505 -201 b 438 -123 505 -134 488 -123 l 382 -123 l 399 0 l 122 0 "},"Ḕ":{"ha":835,"x_min":0,"x_max":0,"o":"m 122 1010 l 738 1010 l 738 897 l 251 897 l 251 567 l 705 567 l 705 453 l 251 453 l 251 114 l 744 114 l 744 0 l 122 0 m 622 1148 l 246 1148 l 246 1244 l 622 1244 m 258 1535 l 395 1535 l 490 1348 l 389 1348 "},"Ḗ":{"ha":835,"x_min":0,"x_max":0,"o":"m 122 1010 l 738 1010 l 738 897 l 251 897 l 251 567 l 705 567 l 705 453 l 251 453 l 251 114 l 744 114 l 744 0 l 122 0 m 622 1148 l 246 1148 l 246 1244 l 622 1244 m 481 1535 l 617 1535 l 486 1348 l 386 1348 "},"Ḙ":{"ha":835,"x_min":0,"x_max":0,"o":"m 122 1010 l 738 1010 l 738 897 l 251 897 l 251 567 l 705 567 l 705 453 l 251 453 l 251 114 l 744 114 l 744 0 l 122 0 m 220 -298 l 220 -292 l 380 -111 l 496 -111 l 656 -292 l 656 -298 l 534 -298 l 438 -180 l 340 -298 "},"Ḛ":{"ha":835,"x_min":0,"x_max":0,"o":"m 122 1010 l 738 1010 l 738 897 l 251 897 l 251 567 l 705 567 l 705 453 l 251 453 l 251 114 l 744 114 l 744 0 l 122 0 m 526 -277 b 361 -221 458 -277 395 -221 b 325 -275 337 -221 326 -248 l 239 -275 b 349 -134 242 -193 277 -134 b 513 -191 420 -134 467 -191 b 551 -136 535 -191 546 -176 l 634 -136 b 526 -277 631 -222 592 -277 "},"Ḝ":{"ha":835,"x_min":0,"x_max":0,"o":"m 122 1010 l 738 1010 l 738 897 l 251 897 l 251 567 l 705 567 l 705 453 l 251 453 l 251 114 l 744 114 l 744 0 l 467 0 l 467 -58 b 595 -168 555 -62 595 -95 b 439 -283 595 -248 547 -283 l 358 -283 l 358 -212 l 438 -212 b 505 -168 488 -212 505 -201 b 438 -123 505 -134 488 -123 l 382 -123 l 399 0 l 122 0 m 433 1117 b 237 1309 323 1117 237 1201 l 326 1309 b 433 1204 326 1247 371 1204 b 541 1309 496 1204 541 1247 l 630 1309 b 433 1117 630 1202 544 1117 "},"Ẹ":{"ha":835,"x_min":0,"x_max":0,"o":"m 122 1010 l 738 1010 l 738 897 l 251 897 l 251 567 l 705 567 l 705 453 l 251 453 l 251 114 l 744 114 l 744 0 l 122 0 m 435 -286 b 351 -205 389 -286 351 -250 b 435 -124 351 -160 389 -124 b 521 -205 482 -124 521 -160 b 435 -286 521 -250 482 -286 "},"Ẻ":{"ha":835,"x_min":0,"x_max":0,"o":"m 122 1010 l 738 1010 l 738 897 l 251 897 l 251 567 l 705 567 l 705 453 l 251 453 l 251 114 l 744 114 l 744 0 l 122 0 m 381 1109 l 429 1202 b 414 1229 439 1221 433 1229 l 320 1229 l 320 1309 l 414 1309 b 510 1168 526 1309 558 1244 l 473 1109 "},"Ẽ":{"ha":835,"x_min":0,"x_max":0,"o":"m 122 1010 l 738 1010 l 738 897 l 251 897 l 251 567 l 705 567 l 705 453 l 251 453 l 251 114 l 744 114 l 744 0 l 122 0 m 522 1143 b 357 1199 455 1143 392 1199 b 321 1145 334 1199 323 1172 l 236 1145 b 346 1286 239 1227 273 1286 b 509 1229 416 1286 464 1229 b 547 1284 532 1229 543 1244 l 631 1284 b 522 1143 628 1198 589 1143 "},"Ế":{"ha":835,"x_min":0,"x_max":0,"o":"m 122 1010 l 738 1010 l 738 897 l 251 897 l 251 567 l 705 567 l 705 453 l 251 453 l 251 114 l 744 114 l 744 0 l 122 0 m 220 1103 l 220 1109 l 380 1290 l 496 1290 l 656 1109 l 656 1103 l 534 1103 l 438 1221 l 340 1103 m 625 1535 l 761 1535 l 629 1348 l 530 1348 "},"Ề":{"ha":835,"x_min":0,"x_max":0,"o":"m 122 1010 l 738 1010 l 738 897 l 251 897 l 251 567 l 705 567 l 705 453 l 251 453 l 251 114 l 744 114 l 744 0 l 122 0 m 220 1103 l 220 1109 l 380 1290 l 496 1290 l 656 1109 l 656 1103 l 534 1103 l 438 1221 l 340 1103 m 432 1535 l 568 1535 l 663 1348 l 563 1348 "},"Ể":{"ha":835,"x_min":0,"x_max":0,"o":"m 122 1010 l 738 1010 l 738 897 l 251 897 l 251 567 l 705 567 l 705 453 l 251 453 l 251 114 l 744 114 l 744 0 l 122 0 m 220 1103 l 220 1109 l 380 1290 l 496 1290 l 656 1109 l 656 1103 l 534 1103 l 438 1221 l 340 1103 m 526 1348 l 569 1428 b 554 1455 579 1447 572 1455 l 460 1455 l 460 1535 l 554 1535 b 650 1394 666 1535 701 1469 l 618 1348 "},"Ễ":{"ha":835,"x_min":0,"x_max":0,"o":"m 122 1010 l 738 1010 l 738 897 l 251 897 l 251 567 l 705 567 l 705 453 l 251 453 l 251 114 l 744 114 l 744 0 l 122 0 m 220 1103 l 220 1109 l 380 1290 l 496 1290 l 656 1109 l 656 1103 l 534 1103 l 438 1221 l 340 1103 m 526 1367 b 361 1423 458 1367 395 1423 b 325 1369 337 1423 326 1396 l 239 1369 b 349 1510 242 1451 277 1510 b 513 1453 420 1510 467 1453 b 551 1508 535 1453 546 1468 l 634 1508 b 526 1367 631 1422 592 1367 "},"Ệ":{"ha":835,"x_min":0,"x_max":0,"o":"m 122 1010 l 738 1010 l 738 897 l 251 897 l 251 567 l 705 567 l 705 453 l 251 453 l 251 114 l 744 114 l 744 0 l 122 0 m 216 1122 l 216 1128 l 375 1309 l 491 1309 l 651 1128 l 651 1122 l 530 1122 l 433 1240 l 336 1122 m 435 -286 b 351 -205 389 -286 351 -250 b 435 -124 351 -160 389 -124 b 521 -205 482 -124 521 -160 b 435 -286 521 -250 482 -286 "},"Ɇ":{"ha":835,"x_min":0,"x_max":0,"o":"m 256 0 l 122 0 l 122 1010 l 548 1010 l 585 1138 l 696 1138 l 659 1010 l 738 1010 l 738 897 l 626 897 l 531 567 l 705 567 l 705 453 l 498 453 l 401 114 l 744 114 l 744 0 l 368 0 l 331 -129 l 218 -129 m 515 897 l 251 897 l 251 567 l 420 567 m 387 453 l 251 453 l 251 114 l 288 114 "},"Ǝ":{"ha":835,"x_min":0,"x_max":0,"o":"m 713 0 l 97 0 l 97 114 l 584 114 l 584 444 l 130 444 l 130 557 l 584 557 l 584 897 l 91 897 l 91 1010 l 713 1010 "},"Ε":{"ha":835,"x_min":0,"x_max":0,"o":"m 122 1010 l 738 1010 l 738 897 l 251 897 l 251 567 l 705 567 l 705 453 l 251 453 l 251 114 l 744 114 l 744 0 l 122 0 "},"Έ":{"ha":1025,"x_min":0,"x_max":0,"o":"m 313 1010 l 928 1010 l 928 897 l 441 897 l 441 567 l 895 567 l 895 453 l 441 453 l 441 114 l 935 114 l 935 0 l 313 0 m 90 1010 l 220 1010 l 151 811 l 66 811 "},"Ἐ":{"ha":1069,"x_min":0,"x_max":0,"o":"m 357 1010 l 972 1010 l 972 897 l 486 897 l 486 567 l 939 567 l 939 453 l 486 453 l 486 114 l 979 114 l 979 0 l 357 0 m 83 827 l 83 876 l 92 876 b 161 924 138 876 161 892 b 92 966 161 952 138 966 l 66 966 l 66 1039 l 92 1039 b 252 935 199 1039 252 1004 b 92 827 252 863 199 827 "},"Ἑ":{"ha":1075,"x_min":0,"x_max":0,"o":"m 362 1010 l 978 1010 l 978 897 l 491 897 l 491 567 l 945 567 l 945 453 l 491 453 l 491 114 l 984 114 l 984 0 l 362 0 m 227 805 b 66 913 120 805 66 841 b 227 1017 66 983 120 1017 l 252 1017 l 252 945 l 227 945 b 158 903 181 945 158 930 b 227 854 158 870 181 854 l 236 854 l 236 805 l 227 805 "},"Ἒ":{"ha":1289,"x_min":0,"x_max":0,"o":"m 576 1010 l 1192 1010 l 1192 897 l 705 897 l 705 567 l 1159 567 l 1159 453 l 705 453 l 705 114 l 1198 114 l 1198 0 l 576 0 m 83 805 l 83 854 l 92 854 b 161 903 138 854 161 870 b 92 945 161 930 138 945 l 66 945 l 66 1017 l 92 1017 b 252 913 199 1017 252 983 b 92 805 252 841 199 805 m 354 811 l 285 1010 l 416 1010 l 439 811 "},"Ἓ":{"ha":1305,"x_min":0,"x_max":0,"o":"m 593 1010 l 1208 1010 l 1208 897 l 722 897 l 722 567 l 1175 567 l 1175 453 l 722 453 l 722 114 l 1215 114 l 1215 0 l 593 0 m 227 805 b 66 913 120 805 66 841 b 227 1017 66 983 120 1017 l 252 1017 l 252 945 l 227 945 b 158 903 181 945 158 930 b 227 854 158 870 181 854 l 236 854 l 236 805 l 227 805 m 376 811 l 307 1010 l 437 1010 l 460 811 "},"Ἔ":{"ha":1292,"x_min":0,"x_max":0,"o":"m 579 1010 l 1195 1010 l 1195 897 l 708 897 l 708 567 l 1162 567 l 1162 453 l 708 453 l 708 114 l 1201 114 l 1201 0 l 579 0 m 83 805 l 83 854 l 92 854 b 161 903 138 854 161 870 b 92 945 161 930 138 945 l 66 945 l 66 1017 l 92 1017 b 252 913 199 1017 252 983 b 92 805 252 841 199 805 m 358 1010 l 489 1010 l 420 811 l 335 811 "},"Ἕ":{"ha":1297,"x_min":0,"x_max":0,"o":"m 585 1010 l 1200 1010 l 1200 897 l 713 897 l 713 567 l 1167 567 l 1167 453 l 713 453 l 713 114 l 1206 114 l 1206 0 l 585 0 m 227 805 b 66 913 120 805 66 841 b 227 1017 66 983 120 1017 l 252 1017 l 252 945 l 227 945 b 158 903 181 945 158 930 b 227 854 158 870 181 854 l 236 854 l 236 805 l 227 805 m 363 1010 l 494 1010 l 425 811 l 340 811 "},"Ὲ":{"ha":957,"x_min":0,"x_max":0,"o":"m 244 1010 l 860 1010 l 860 897 l 373 897 l 373 567 l 827 567 l 827 453 l 373 453 l 373 114 l 866 114 l 866 0 l 244 0 m -15 857 l -84 1057 l 47 1057 l 70 857 "},"Έ":{"ha":1025,"x_min":0,"x_max":0,"o":"m 313 1010 l 928 1010 l 928 897 l 441 897 l 441 567 l 895 567 l 895 453 l 441 453 l 441 114 l 935 114 l 935 0 l 313 0 m 90 1010 l 220 1010 l 151 811 l 66 811 "},"Е":{"ha":835,"x_min":0,"x_max":0,"o":"m 122 1010 l 738 1010 l 738 897 l 251 897 l 251 567 l 705 567 l 705 453 l 251 453 l 251 114 l 744 114 l 744 0 l 122 0 "},"Ѐ":{"ha":835,"x_min":0,"x_max":0,"o":"m 122 1010 l 738 1010 l 738 897 l 251 897 l 251 567 l 705 567 l 705 453 l 251 453 l 251 114 l 744 114 l 744 0 l 122 0 m 254 1309 l 391 1309 l 486 1109 l 385 1109 "},"Ё":{"ha":835,"x_min":0,"x_max":0,"o":"m 122 1010 l 738 1010 l 738 897 l 251 897 l 251 567 l 705 567 l 705 453 l 251 453 l 251 114 l 744 114 l 744 0 l 122 0 m 291 1135 b 210 1215 246 1135 210 1171 b 291 1295 210 1259 246 1295 b 371 1215 335 1295 371 1259 b 291 1135 371 1171 335 1135 m 576 1135 b 496 1215 532 1135 496 1171 b 576 1295 496 1259 532 1295 b 656 1215 621 1295 656 1259 b 576 1135 656 1171 621 1135 "},"Ӗ":{"ha":835,"x_min":0,"x_max":0,"o":"m 122 1010 l 738 1010 l 738 897 l 251 897 l 251 567 l 705 567 l 705 453 l 251 453 l 251 114 l 744 114 l 744 0 l 122 0 m 433 1117 b 237 1309 323 1117 237 1201 l 326 1309 b 433 1204 326 1247 371 1204 b 541 1309 496 1204 541 1247 l 630 1309 b 433 1117 630 1202 544 1117 "},"F":{"ha":820,"x_min":0,"x_max":0,"o":"m 122 1010 l 733 1010 l 733 897 l 251 897 l 251 551 l 687 551 l 687 437 l 251 437 l 251 0 l 122 0 "},"Ƒ":{"ha":820,"x_min":0,"x_max":0,"o":"m -17 -176 b 23 -179 -2 -178 13 -179 b 122 -111 98 -179 122 -157 l 122 1010 l 733 1010 l 733 897 l 251 897 l 251 551 l 687 551 l 687 437 l 251 437 l 251 -116 b 54 -290 251 -229 182 -290 b -17 -283 24 -290 -3 -287 "},"Ḟ":{"ha":820,"x_min":0,"x_max":0,"o":"m 122 1010 l 733 1010 l 733 897 l 251 897 l 251 551 l 687 551 l 687 437 l 251 437 l 251 0 l 122 0 m 428 1135 b 343 1215 382 1135 343 1171 b 428 1296 343 1260 382 1296 b 513 1215 475 1296 513 1260 b 428 1135 513 1171 475 1135 "},"Ⅎ":{"ha":820,"x_min":0,"x_max":0,"o":"m 698 0 l 87 0 l 87 114 l 569 114 l 569 460 l 133 460 l 133 574 l 569 574 l 569 1010 l 698 1010 "},"G":{"ha":1036,"x_min":0,"x_max":0,"o":"m 535 -14 b 83 505 265 -14 83 185 b 527 1024 83 825 268 1024 b 942 694 741 1024 905 890 l 809 694 b 528 905 768 823 671 905 b 208 505 350 905 208 764 b 535 106 208 247 349 106 b 823 395 704 106 820 218 l 562 395 l 562 508 l 949 508 l 949 397 b 535 -14 949 146 776 -14 "},"Ǥ":{"ha":1036,"x_min":0,"x_max":0,"o":"m 535 -14 b 83 505 265 -14 83 185 b 527 1024 83 825 268 1024 b 942 694 741 1024 905 890 l 809 694 b 528 905 768 823 671 905 b 208 505 350 905 208 764 b 535 106 208 247 349 106 b 772 221 638 106 722 148 l 562 221 l 562 311 l 812 311 b 823 395 819 337 823 365 l 562 395 l 562 508 l 949 508 l 949 397 b 942 311 949 367 947 338 l 1000 311 l 1000 221 l 916 221 b 535 -14 854 74 713 -14 "},"Ɠ":{"ha":1036,"x_min":0,"x_max":0,"o":"m 535 -14 b 83 505 265 -14 83 185 b 527 1024 83 825 268 1024 b 824 912 646 1024 749 983 l 824 969 b 1021 1142 824 1081 892 1142 b 1092 1136 1050 1142 1078 1139 l 1092 1035 b 1052 1038 1078 1037 1063 1038 b 942 969 976 1038 942 1016 l 942 694 l 809 694 b 528 905 768 823 671 905 b 208 505 350 905 208 764 b 535 106 208 247 349 106 b 823 395 704 106 820 218 l 562 395 l 562 508 l 949 508 l 949 397 b 535 -14 949 146 776 -14 "},"Ĝ":{"ha":1036,"x_min":0,"x_max":0,"o":"m 535 -14 b 83 505 265 -14 83 185 b 527 1024 83 825 268 1024 b 942 694 741 1024 905 890 l 809 694 b 528 905 768 823 671 905 b 208 505 350 905 208 764 b 535 106 208 247 349 106 b 823 395 704 106 820 218 l 562 395 l 562 508 l 949 508 l 949 397 b 535 -14 949 146 776 -14 m 309 1122 l 309 1128 l 469 1309 l 585 1309 l 745 1128 l 745 1122 l 623 1122 l 527 1240 l 429 1122 "},"Ğ":{"ha":1036,"x_min":0,"x_max":0,"o":"m 535 -14 b 83 505 265 -14 83 185 b 527 1024 83 825 268 1024 b 942 694 741 1024 905 890 l 809 694 b 528 905 768 823 671 905 b 208 505 350 905 208 764 b 535 106 208 247 349 106 b 823 395 704 106 820 218 l 562 395 l 562 508 l 949 508 l 949 397 b 535 -14 949 146 776 -14 m 527 1117 b 330 1309 417 1117 330 1201 l 420 1309 b 527 1204 420 1247 465 1204 b 634 1309 589 1204 634 1247 l 724 1309 b 527 1117 724 1202 637 1117 "},"Ġ":{"ha":1036,"x_min":0,"x_max":0,"o":"m 535 -14 b 83 505 265 -14 83 185 b 527 1024 83 825 268 1024 b 942 694 741 1024 905 890 l 809 694 b 528 905 768 823 671 905 b 208 505 350 905 208 764 b 535 106 208 247 349 106 b 823 395 704 106 820 218 l 562 395 l 562 508 l 949 508 l 949 397 b 535 -14 949 146 776 -14 m 527 1135 b 442 1215 481 1135 442 1171 b 527 1296 442 1260 481 1296 b 612 1215 574 1296 612 1260 b 527 1135 612 1171 574 1135 "},"Ģ":{"ha":1036,"x_min":0,"x_max":0,"o":"m 535 -14 b 83 505 265 -14 83 185 b 527 1024 83 825 268 1024 b 942 694 741 1024 905 890 l 809 694 b 528 905 768 823 671 905 b 208 505 350 905 208 764 b 535 106 208 247 349 106 b 823 395 704 106 820 218 l 562 395 l 562 508 l 949 508 l 949 397 b 535 -14 949 146 776 -14 m 460 -80 l 585 -80 l 499 -334 l 406 -334 "},"Ǧ":{"ha":1036,"x_min":0,"x_max":0,"o":"m 535 -14 b 83 505 265 -14 83 185 b 527 1024 83 825 268 1024 b 942 694 741 1024 905 890 l 809 694 b 528 905 768 823 671 905 b 208 505 350 905 208 764 b 535 106 208 247 349 106 b 823 395 704 106 820 218 l 562 395 l 562 508 l 949 508 l 949 397 b 535 -14 949 146 776 -14 m 527 1190 l 623 1309 l 745 1309 l 745 1303 l 585 1122 l 469 1122 l 309 1303 l 309 1309 l 429 1309 "},"Ǵ":{"ha":1036,"x_min":0,"x_max":0,"o":"m 535 -14 b 83 505 265 -14 83 185 b 527 1024 83 825 268 1024 b 942 694 741 1024 905 890 l 809 694 b 528 905 768 823 671 905 b 208 505 350 905 208 764 b 535 106 208 247 349 106 b 823 395 704 106 820 218 l 562 395 l 562 508 l 949 508 l 949 397 b 535 -14 949 146 776 -14 m 568 1309 l 705 1309 l 573 1109 l 473 1109 "},"Ḡ":{"ha":1036,"x_min":0,"x_max":0,"o":"m 535 -14 b 83 505 265 -14 83 185 b 527 1024 83 825 268 1024 b 942 694 741 1024 905 890 l 809 694 b 528 905 768 823 671 905 b 208 505 350 905 208 764 b 535 106 208 247 349 106 b 823 395 704 106 820 218 l 562 395 l 562 508 l 949 508 l 949 397 b 535 -14 949 146 776 -14 m 715 1167 l 339 1167 l 339 1263 l 715 1263 "},"":{"ha":1051,"x_min":0,"x_max":0,"o":"m 524 -14 b 83 505 267 -14 83 185 b 527 1024 83 825 268 1024 b 942 694 741 1024 905 890 l 809 694 b 528 905 768 823 671 905 b 208 505 350 905 208 764 b 535 106 208 247 349 106 b 824 395 706 106 814 216 l 561 395 l 561 508 l 949 508 l 949 0 l 848 0 l 830 218 b 524 -14 801 93 713 -14 "},"":{"ha":1051,"x_min":0,"x_max":0,"o":"m 524 -14 b 83 505 267 -14 83 185 b 527 1024 83 825 268 1024 b 942 694 741 1024 905 890 l 809 694 b 528 905 768 823 671 905 b 208 505 350 905 208 764 b 535 106 208 247 349 106 b 771 221 640 106 722 147 l 562 221 l 562 311 l 811 311 b 824 395 818 337 823 365 l 561 395 l 561 508 l 949 508 l 949 311 l 1000 311 l 1000 221 l 949 221 l 949 0 l 848 0 l 830 218 b 524 -14 801 93 713 -14 "},"":{"ha":1051,"x_min":0,"x_max":0,"o":"m 524 -14 b 83 505 267 -14 83 185 b 527 1024 83 825 268 1024 b 824 912 646 1024 749 983 l 824 969 b 1021 1142 824 1081 892 1142 b 1092 1136 1050 1142 1078 1139 l 1092 1035 b 1052 1038 1078 1037 1063 1038 b 942 969 976 1038 942 1016 l 942 694 l 809 694 b 528 905 768 823 671 905 b 208 505 350 905 208 764 b 535 106 208 247 349 106 b 824 395 706 106 814 216 l 561 395 l 561 508 l 949 508 l 949 0 l 848 0 l 830 218 b 524 -14 801 93 713 -14 "},"":{"ha":1051,"x_min":0,"x_max":0,"o":"m 524 -14 b 83 505 267 -14 83 185 b 527 1024 83 825 268 1024 b 942 694 741 1024 905 890 l 809 694 b 528 905 768 823 671 905 b 208 505 350 905 208 764 b 535 106 208 247 349 106 b 824 395 706 106 814 216 l 561 395 l 561 508 l 949 508 l 949 0 l 848 0 l 830 218 b 524 -14 801 93 713 -14 m 309 1122 l 309 1128 l 469 1309 l 585 1309 l 745 1128 l 745 1122 l 623 1122 l 527 1240 l 429 1122 "},"":{"ha":1051,"x_min":0,"x_max":0,"o":"m 524 -14 b 83 505 267 -14 83 185 b 527 1024 83 825 268 1024 b 942 694 741 1024 905 890 l 809 694 b 528 905 768 823 671 905 b 208 505 350 905 208 764 b 535 106 208 247 349 106 b 824 395 706 106 814 216 l 561 395 l 561 508 l 949 508 l 949 0 l 848 0 l 830 218 b 524 -14 801 93 713 -14 m 527 1117 b 330 1309 417 1117 330 1201 l 420 1309 b 527 1204 420 1247 465 1204 b 634 1309 589 1204 634 1247 l 724 1309 b 527 1117 724 1202 637 1117 "},"":{"ha":1051,"x_min":0,"x_max":0,"o":"m 524 -14 b 83 505 267 -14 83 185 b 527 1024 83 825 268 1024 b 942 694 741 1024 905 890 l 809 694 b 528 905 768 823 671 905 b 208 505 350 905 208 764 b 535 106 208 247 349 106 b 824 395 706 106 814 216 l 561 395 l 561 508 l 949 508 l 949 0 l 848 0 l 830 218 b 524 -14 801 93 713 -14 m 527 1135 b 442 1215 481 1135 442 1171 b 527 1296 442 1260 481 1296 b 612 1215 574 1296 612 1260 b 527 1135 612 1171 574 1135 "},"":{"ha":1051,"x_min":0,"x_max":0,"o":"m 524 -14 b 83 505 267 -14 83 185 b 527 1024 83 825 268 1024 b 942 694 741 1024 905 890 l 809 694 b 528 905 768 823 671 905 b 208 505 350 905 208 764 b 535 106 208 247 349 106 b 824 395 706 106 814 216 l 561 395 l 561 508 l 949 508 l 949 0 l 848 0 l 830 218 b 524 -14 801 93 713 -14 m 460 -80 l 585 -80 l 499 -334 l 406 -334 "},"":{"ha":1051,"x_min":0,"x_max":0,"o":"m 524 -14 b 83 505 267 -14 83 185 b 527 1024 83 825 268 1024 b 942 694 741 1024 905 890 l 809 694 b 528 905 768 823 671 905 b 208 505 350 905 208 764 b 535 106 208 247 349 106 b 824 395 706 106 814 216 l 561 395 l 561 508 l 949 508 l 949 0 l 848 0 l 830 218 b 524 -14 801 93 713 -14 m 527 1190 l 623 1309 l 745 1309 l 745 1303 l 585 1122 l 469 1122 l 309 1303 l 309 1309 l 429 1309 "},"":{"ha":1051,"x_min":0,"x_max":0,"o":"m 524 -14 b 83 505 267 -14 83 185 b 527 1024 83 825 268 1024 b 942 694 741 1024 905 890 l 809 694 b 528 905 768 823 671 905 b 208 505 350 905 208 764 b 535 106 208 247 349 106 b 824 395 706 106 814 216 l 561 395 l 561 508 l 949 508 l 949 0 l 848 0 l 830 218 b 524 -14 801 93 713 -14 m 568 1309 l 705 1309 l 573 1109 l 473 1109 "},"":{"ha":1051,"x_min":0,"x_max":0,"o":"m 524 -14 b 83 505 267 -14 83 185 b 527 1024 83 825 268 1024 b 942 694 741 1024 905 890 l 809 694 b 528 905 768 823 671 905 b 208 505 350 905 208 764 b 535 106 208 247 349 106 b 824 395 706 106 814 216 l 561 395 l 561 508 l 949 508 l 949 0 l 848 0 l 830 218 b 524 -14 801 93 713 -14 m 715 1167 l 339 1167 l 339 1263 l 715 1263 "},"H":{"ha":1032,"x_min":0,"x_max":0,"o":"m 122 1010 l 251 1010 l 251 574 l 781 574 l 781 1010 l 910 1010 l 910 0 l 781 0 l 781 460 l 251 460 l 251 0 l 122 0 "},"Ḩ":{"ha":1032,"x_min":0,"x_max":0,"o":"m 122 1010 l 251 1010 l 251 574 l 781 574 l 781 1010 l 910 1010 l 910 0 l 781 0 l 781 460 l 251 460 l 251 0 l 222 0 l 222 -58 b 350 -168 310 -61 350 -94 b 193 -283 350 -248 302 -283 l 113 -283 l 113 -212 l 193 -212 b 259 -167 242 -212 259 -200 b 193 -123 259 -134 242 -123 l 137 -123 l 153 0 l 122 0 "},"Ĥ":{"ha":1032,"x_min":0,"x_max":0,"o":"m 122 1010 l 251 1010 l 251 574 l 781 574 l 781 1010 l 910 1010 l 910 0 l 781 0 l 781 460 l 251 460 l 251 0 l 122 0 m 298 1122 l 298 1128 l 457 1309 l 573 1309 l 733 1128 l 733 1122 l 612 1122 l 515 1240 l 418 1122 "},"Ȟ":{"ha":1032,"x_min":0,"x_max":0,"o":"m 122 1010 l 251 1010 l 251 574 l 781 574 l 781 1010 l 910 1010 l 910 0 l 781 0 l 781 460 l 251 460 l 251 0 l 122 0 m 515 1190 l 612 1309 l 733 1309 l 733 1303 l 573 1122 l 457 1122 l 298 1303 l 298 1309 l 418 1309 "},"Ḣ":{"ha":1032,"x_min":0,"x_max":0,"o":"m 122 1010 l 251 1010 l 251 574 l 781 574 l 781 1010 l 910 1010 l 910 0 l 781 0 l 781 460 l 251 460 l 251 0 l 122 0 m 515 1135 b 431 1215 469 1135 431 1171 b 515 1296 431 1260 469 1296 b 601 1215 562 1296 601 1260 b 515 1135 601 1171 562 1135 "},"Ḥ":{"ha":1032,"x_min":0,"x_max":0,"o":"m 122 1010 l 251 1010 l 251 574 l 781 574 l 781 1010 l 910 1010 l 910 0 l 781 0 l 781 460 l 251 460 l 251 0 l 122 0 m 517 -286 b 433 -205 471 -286 433 -250 b 517 -124 433 -160 471 -124 b 603 -205 564 -124 603 -160 b 517 -286 603 -250 564 -286 "},"Ḧ":{"ha":1032,"x_min":0,"x_max":0,"o":"m 122 1010 l 251 1010 l 251 574 l 781 574 l 781 1010 l 910 1010 l 910 0 l 781 0 l 781 460 l 251 460 l 251 0 l 122 0 m 373 1135 b 292 1215 328 1135 292 1171 b 373 1295 292 1259 328 1295 b 453 1215 417 1295 453 1259 b 373 1135 453 1171 417 1135 m 659 1135 b 578 1215 614 1135 578 1171 b 659 1295 578 1259 614 1295 b 739 1215 703 1295 739 1259 b 659 1135 739 1171 703 1135 "},"Ḫ":{"ha":1032,"x_min":0,"x_max":0,"o":"m 122 1010 l 251 1010 l 251 574 l 781 574 l 781 1010 l 910 1010 l 910 0 l 781 0 l 781 460 l 251 460 l 251 0 l 122 0 m 519 -301 b 322 -109 409 -301 322 -217 l 412 -109 b 519 -214 412 -171 456 -214 b 626 -109 581 -214 626 -171 l 715 -109 b 519 -301 715 -216 629 -301 "},"Ħ":{"ha":1078,"x_min":0,"x_max":0,"o":"m 1012 694 l 936 694 l 936 0 l 807 0 l 807 460 l 277 460 l 277 0 l 148 0 l 148 694 l 66 694 l 66 798 l 148 798 l 148 1010 l 277 1010 l 277 798 l 807 798 l 807 1010 l 936 1010 l 936 798 l 1012 798 m 277 694 l 277 574 l 807 574 l 807 694 "},"Ӈ":{"ha":1032,"x_min":0,"x_max":0,"o":"m 642 -176 b 682 -179 657 -178 672 -179 b 781 -111 758 -179 781 -157 l 781 460 l 251 460 l 251 0 l 122 0 l 122 1010 l 251 1010 l 251 574 l 781 574 l 781 1010 l 910 1010 l 910 -116 b 713 -290 910 -229 842 -290 b 642 -283 684 -290 656 -287 "},"Ң":{"ha":1053,"x_min":0,"x_max":0,"o":"m 122 1010 l 251 1010 l 251 574 l 781 574 l 781 1010 l 910 1010 l 910 113 l 1010 113 l 1009 -217 l 887 -217 l 887 0 l 781 0 l 781 460 l 251 460 l 251 0 l 122 0 "},"Ӊ":{"ha":1032,"x_min":0,"x_max":0,"o":"m 122 1010 l 251 1010 l 251 574 l 781 574 l 781 1010 l 910 1010 l 910 113 l 1042 113 l 943 -217 l 822 -217 l 886 0 l 781 0 l 781 460 l 251 460 l 251 0 l 122 0 "},"Ҥ":{"ha":1369,"x_min":0,"x_max":0,"o":"m 1302 902 l 910 902 l 910 0 l 781 0 l 781 460 l 251 460 l 251 0 l 122 0 l 122 1010 l 251 1010 l 251 574 l 781 574 l 781 1010 l 1302 1010 "},"Ƕ":{"ha":1553,"x_min":0,"x_max":0,"o":"m 1117 -14 b 781 321 917 -14 781 102 l 781 449 l 251 449 l 251 0 l 122 0 l 122 1010 l 251 1010 l 251 563 l 781 563 l 781 1010 l 911 1010 l 911 321 b 1117 104 911 172 987 104 b 1317 321 1246 104 1317 172 l 1317 757 l 1446 757 l 1446 321 b 1117 -14 1446 98 1311 -14 "},"Η":{"ha":1032,"x_min":0,"x_max":0,"o":"m 122 1010 l 251 1010 l 251 574 l 781 574 l 781 1010 l 910 1010 l 910 0 l 781 0 l 781 460 l 251 460 l 251 0 l 122 0 "},"Ή":{"ha":1223,"x_min":0,"x_max":0,"o":"m 313 1010 l 441 1010 l 441 574 l 972 574 l 972 1010 l 1101 1010 l 1101 0 l 972 0 l 972 460 l 441 460 l 441 0 l 313 0 m 90 1010 l 220 1010 l 151 811 l 66 811 "},"Ἠ":{"ha":1267,"x_min":0,"x_max":0,"o":"m 357 1010 l 486 1010 l 486 574 l 1016 574 l 1016 1010 l 1145 1010 l 1145 0 l 1016 0 l 1016 460 l 486 460 l 486 0 l 357 0 m 83 827 l 83 876 l 92 876 b 161 924 138 876 161 892 b 92 966 161 952 138 966 l 66 966 l 66 1039 l 92 1039 b 252 935 199 1039 252 1004 b 92 827 252 863 199 827 "},"Ἡ":{"ha":1272,"x_min":0,"x_max":0,"o":"m 362 1010 l 491 1010 l 491 574 l 1021 574 l 1021 1010 l 1150 1010 l 1150 0 l 1021 0 l 1021 460 l 491 460 l 491 0 l 362 0 m 227 805 b 66 913 120 805 66 841 b 227 1017 66 983 120 1017 l 252 1017 l 252 945 l 227 945 b 158 903 181 945 158 930 b 227 854 158 870 181 854 l 236 854 l 236 805 l 227 805 "},"Ἢ":{"ha":1487,"x_min":0,"x_max":0,"o":"m 576 1010 l 705 1010 l 705 574 l 1236 574 l 1236 1010 l 1364 1010 l 1364 0 l 1236 0 l 1236 460 l 705 460 l 705 0 l 576 0 m 83 805 l 83 854 l 92 854 b 161 903 138 854 161 870 b 92 945 161 930 138 945 l 66 945 l 66 1017 l 92 1017 b 252 913 199 1017 252 983 b 92 805 252 841 199 805 m 354 811 l 285 1010 l 416 1010 l 439 811 "},"Ἣ":{"ha":1503,"x_min":0,"x_max":0,"o":"m 593 1010 l 722 1010 l 722 574 l 1252 574 l 1252 1010 l 1381 1010 l 1381 0 l 1252 0 l 1252 460 l 722 460 l 722 0 l 593 0 m 227 805 b 66 913 120 805 66 841 b 227 1017 66 983 120 1017 l 252 1017 l 252 945 l 227 945 b 158 903 181 945 158 930 b 227 854 158 870 181 854 l 236 854 l 236 805 l 227 805 m 376 811 l 307 1010 l 437 1010 l 460 811 "},"Ἤ":{"ha":1489,"x_min":0,"x_max":0,"o":"m 579 1010 l 708 1010 l 708 574 l 1238 574 l 1238 1010 l 1367 1010 l 1367 0 l 1238 0 l 1238 460 l 708 460 l 708 0 l 579 0 m 83 805 l 83 854 l 92 854 b 161 903 138 854 161 870 b 92 945 161 930 138 945 l 66 945 l 66 1017 l 92 1017 b 252 913 199 1017 252 983 b 92 805 252 841 199 805 m 358 1010 l 489 1010 l 420 811 l 335 811 "},"Ἥ":{"ha":1495,"x_min":0,"x_max":0,"o":"m 585 1010 l 713 1010 l 713 574 l 1244 574 l 1244 1010 l 1373 1010 l 1373 0 l 1244 0 l 1244 460 l 713 460 l 713 0 l 585 0 m 227 805 b 66 913 120 805 66 841 b 227 1017 66 983 120 1017 l 252 1017 l 252 945 l 227 945 b 158 903 181 945 158 930 b 227 854 158 870 181 854 l 236 854 l 236 805 l 227 805 m 363 1010 l 494 1010 l 425 811 l 340 811 "},"Ἦ":{"ha":1377,"x_min":0,"x_max":0,"o":"m 467 1010 l 596 1010 l 596 574 l 1126 574 l 1126 1010 l 1255 1010 l 1255 0 l 1126 0 l 1126 460 l 596 460 l 596 0 l 467 0 m 353 1095 b 188 1152 286 1095 222 1152 b 152 1098 164 1152 153 1124 l 66 1098 b 176 1239 69 1179 104 1239 b 340 1181 247 1239 294 1181 b 378 1236 362 1181 373 1197 l 461 1236 b 353 1095 458 1151 419 1095 m 187 814 l 187 863 l 196 863 b 265 912 242 863 265 880 b 196 954 265 940 242 954 l 171 954 l 171 1027 l 196 1027 b 357 923 303 1027 357 992 b 196 814 357 850 303 814 "},"Ἧ":{"ha":1377,"x_min":0,"x_max":0,"o":"m 467 1010 l 596 1010 l 596 574 l 1126 574 l 1126 1010 l 1255 1010 l 1255 0 l 1126 0 l 1126 460 l 596 460 l 596 0 l 467 0 m 353 1084 b 188 1141 286 1084 222 1141 b 152 1087 164 1141 153 1114 l 66 1087 b 176 1228 69 1168 104 1228 b 340 1171 247 1228 294 1171 b 378 1225 362 1171 373 1186 l 461 1225 b 353 1084 458 1140 419 1084 m 332 804 b 171 912 224 804 171 840 b 332 1016 171 981 224 1016 l 357 1016 l 357 943 l 332 943 b 262 901 286 943 262 929 b 332 852 262 869 286 852 l 340 852 l 340 804 l 332 804 "},"Ὴ":{"ha":1154,"x_min":0,"x_max":0,"o":"m 244 1010 l 373 1010 l 373 574 l 903 574 l 903 1010 l 1032 1010 l 1032 0 l 903 0 l 903 460 l 373 460 l 373 0 l 244 0 m -15 857 l -84 1057 l 47 1057 l 70 857 "},"Ή":{"ha":1223,"x_min":0,"x_max":0,"o":"m 313 1010 l 441 1010 l 441 574 l 972 574 l 972 1010 l 1101 1010 l 1101 0 l 972 0 l 972 460 l 441 460 l 441 0 l 313 0 m 90 1010 l 220 1010 l 151 811 l 66 811 "},"Н":{"ha":1032,"x_min":0,"x_max":0,"o":"m 122 1010 l 251 1010 l 251 574 l 781 574 l 781 1010 l 910 1010 l 910 0 l 781 0 l 781 460 l 251 460 l 251 0 l 122 0 "},"ᾘ":{"ha":1267,"x_min":0,"x_max":0,"o":"m 357 1010 l 486 1010 l 486 574 l 1016 574 l 1016 1010 l 1145 1010 l 1145 0 l 1016 0 l 1016 460 l 486 460 l 486 0 l 357 0 m 811 -335 b 695 -209 736 -335 695 -292 l 695 -80 l 805 -80 l 805 -208 b 839 -260 805 -245 814 -260 b 869 -257 852 -260 859 -259 l 869 -327 b 811 -335 854 -332 830 -335 m 83 827 l 83 876 l 92 876 b 161 924 138 876 161 892 b 92 966 161 952 138 966 l 66 966 l 66 1039 l 92 1039 b 252 935 199 1039 252 1004 b 92 827 252 863 199 827 "},"ᾙ":{"ha":1272,"x_min":0,"x_max":0,"o":"m 362 1010 l 491 1010 l 491 574 l 1021 574 l 1021 1010 l 1150 1010 l 1150 0 l 1021 0 l 1021 460 l 491 460 l 491 0 l 362 0 m 817 -335 b 701 -209 741 -335 701 -292 l 701 -80 l 810 -80 l 810 -208 b 844 -260 810 -245 820 -260 b 874 -257 858 -260 864 -259 l 874 -327 b 817 -335 860 -332 836 -335 m 227 805 b 66 913 120 805 66 841 b 227 1017 66 983 120 1017 l 252 1017 l 252 945 l 227 945 b 158 903 181 945 158 930 b 227 854 158 870 181 854 l 236 854 l 236 805 l 227 805 "},"ᾚ":{"ha":1487,"x_min":0,"x_max":0,"o":"m 576 1010 l 705 1010 l 705 574 l 1236 574 l 1236 1010 l 1364 1010 l 1364 0 l 1236 0 l 1236 460 l 705 460 l 705 0 l 576 0 m 1031 -335 b 915 -209 956 -335 915 -292 l 915 -80 l 1025 -80 l 1025 -208 b 1059 -260 1025 -245 1034 -260 b 1088 -257 1072 -260 1078 -259 l 1088 -327 b 1031 -335 1074 -332 1050 -335 m 83 805 l 83 854 l 92 854 b 161 903 138 854 161 870 b 92 945 161 930 138 945 l 66 945 l 66 1017 l 92 1017 b 252 913 199 1017 252 983 b 92 805 252 841 199 805 m 354 811 l 285 1010 l 416 1010 l 439 811 "},"ᾛ":{"ha":1503,"x_min":0,"x_max":0,"o":"m 593 1010 l 722 1010 l 722 574 l 1252 574 l 1252 1010 l 1381 1010 l 1381 0 l 1252 0 l 1252 460 l 722 460 l 722 0 l 593 0 m 1047 -335 b 931 -209 972 -335 931 -292 l 931 -80 l 1041 -80 l 1041 -208 b 1075 -260 1041 -245 1050 -260 b 1105 -257 1088 -260 1095 -259 l 1105 -327 b 1047 -335 1090 -332 1066 -335 m 227 805 b 66 913 120 805 66 841 b 227 1017 66 983 120 1017 l 252 1017 l 252 945 l 227 945 b 158 903 181 945 158 930 b 227 854 158 870 181 854 l 236 854 l 236 805 l 227 805 m 376 811 l 307 1010 l 437 1010 l 460 811 "},"ᾜ":{"ha":1489,"x_min":0,"x_max":0,"o":"m 579 1010 l 708 1010 l 708 574 l 1238 574 l 1238 1010 l 1367 1010 l 1367 0 l 1238 0 l 1238 460 l 708 460 l 708 0 l 579 0 m 1034 -335 b 918 -209 958 -335 918 -292 l 918 -80 l 1027 -80 l 1027 -208 b 1061 -260 1027 -245 1037 -260 b 1091 -257 1075 -260 1081 -259 l 1091 -327 b 1034 -335 1077 -332 1053 -335 m 83 805 l 83 854 l 92 854 b 161 903 138 854 161 870 b 92 945 161 930 138 945 l 66 945 l 66 1017 l 92 1017 b 252 913 199 1017 252 983 b 92 805 252 841 199 805 m 358 1010 l 489 1010 l 420 811 l 335 811 "},"ᾝ":{"ha":1495,"x_min":0,"x_max":0,"o":"m 585 1010 l 713 1010 l 713 574 l 1244 574 l 1244 1010 l 1373 1010 l 1373 0 l 1244 0 l 1244 460 l 713 460 l 713 0 l 585 0 m 1039 -335 b 923 -209 964 -335 923 -292 l 923 -80 l 1033 -80 l 1033 -208 b 1067 -260 1033 -245 1042 -260 b 1097 -257 1080 -260 1086 -259 l 1097 -327 b 1039 -335 1082 -332 1058 -335 m 227 805 b 66 913 120 805 66 841 b 227 1017 66 983 120 1017 l 252 1017 l 252 945 l 227 945 b 158 903 181 945 158 930 b 227 854 158 870 181 854 l 236 854 l 236 805 l 227 805 m 363 1010 l 494 1010 l 425 811 l 340 811 "},"ᾞ":{"ha":1377,"x_min":0,"x_max":0,"o":"m 467 1010 l 596 1010 l 596 574 l 1126 574 l 1126 1010 l 1255 1010 l 1255 0 l 1126 0 l 1126 460 l 596 460 l 596 0 l 467 0 m 353 1095 b 188 1152 286 1095 222 1152 b 152 1098 164 1152 153 1124 l 66 1098 b 176 1239 69 1179 104 1239 b 340 1181 247 1239 294 1181 b 378 1236 362 1181 373 1197 l 461 1236 b 353 1095 458 1151 419 1095 m 922 -335 b 806 -209 846 -335 806 -292 l 806 -80 l 916 -80 l 916 -208 b 949 -260 916 -245 925 -260 b 979 -257 963 -260 969 -259 l 979 -327 b 922 -335 965 -332 941 -335 m 187 814 l 187 863 l 196 863 b 265 912 242 863 265 880 b 196 954 265 940 242 954 l 171 954 l 171 1027 l 196 1027 b 357 923 303 1027 357 992 b 196 814 357 850 303 814 "},"ᾟ":{"ha":1377,"x_min":0,"x_max":0,"o":"m 467 1010 l 596 1010 l 596 574 l 1126 574 l 1126 1010 l 1255 1010 l 1255 0 l 1126 0 l 1126 460 l 596 460 l 596 0 l 467 0 m 353 1084 b 188 1141 286 1084 222 1141 b 152 1087 164 1141 153 1114 l 66 1087 b 176 1228 69 1168 104 1228 b 340 1171 247 1228 294 1171 b 378 1225 362 1171 373 1186 l 461 1225 b 353 1084 458 1140 419 1084 m 922 -335 b 806 -209 846 -335 806 -292 l 806 -80 l 916 -80 l 916 -208 b 949 -260 916 -245 925 -260 b 979 -257 963 -260 969 -259 l 979 -327 b 922 -335 965 -332 941 -335 m 332 804 b 171 912 224 804 171 840 b 332 1016 171 981 224 1016 l 357 1016 l 357 943 l 332 943 b 262 901 286 943 262 929 b 332 852 262 869 286 852 l 340 852 l 340 804 l 332 804 "},"ῌ":{"ha":1032,"x_min":0,"x_max":0,"o":"m 122 1010 l 251 1010 l 251 574 l 781 574 l 781 1010 l 910 1010 l 910 0 l 781 0 l 781 460 l 251 460 l 251 0 l 122 0 m 576 -335 b 460 -209 501 -335 460 -292 l 460 -80 l 570 -80 l 570 -208 b 604 -260 570 -245 580 -260 b 634 -257 618 -260 624 -259 l 634 -327 b 576 -335 620 -332 595 -335 "},"I":{"ha":373,"x_min":0,"x_max":0,"o":"m 251 0 l 122 0 l 122 1010 l 251 1010 "},"":{"ha":746,"x_min":0,"x_max":0,"o":"m 251 0 l 122 0 l 122 1010 l 251 1010 m 624 0 l 495 0 l 495 1010 l 624 1010 "},"Ï":{"ha":373,"x_min":0,"x_max":0,"o":"m 251 0 l 122 0 l 122 1010 l 251 1010 m 44 1135 b -37 1215 -1 1135 -37 1171 b 44 1295 -37 1259 -1 1295 b 124 1215 88 1295 124 1259 b 44 1135 124 1171 88 1135 m 330 1135 b 249 1215 285 1135 249 1171 b 330 1295 249 1259 285 1295 b 410 1215 374 1295 410 1259 b 330 1135 410 1171 374 1135 "},"Ḯ":{"ha":373,"x_min":0,"x_max":0,"o":"m 251 0 l 122 0 l 122 1010 l 251 1010 m 232 1535 l 368 1535 l 237 1348 l 137 1348 m 47 1116 b -33 1196 3 1116 -33 1152 b 47 1276 -33 1240 3 1276 b 127 1196 92 1276 127 1240 b 47 1116 127 1152 92 1116 m 333 1116 b 252 1196 288 1116 252 1152 b 333 1276 252 1240 288 1276 b 413 1196 377 1276 413 1240 b 333 1116 413 1152 377 1116 "},"":{"ha":746,"x_min":0,"x_max":0,"o":"m 251 0 l 122 0 l 122 1010 l 251 1010 m 624 0 l 495 0 l 495 1010 l 624 1010 m 81 1135 b 1 1215 37 1135 1 1171 b 81 1295 1 1259 37 1295 b 161 1215 125 1295 161 1259 b 81 1135 161 1171 125 1135 m 366 1135 b 286 1215 321 1135 286 1171 b 366 1295 286 1259 321 1295 b 446 1215 410 1295 446 1259 b 366 1135 446 1171 410 1135 m 651 1135 b 570 1215 606 1135 570 1171 b 651 1295 570 1259 606 1295 b 731 1215 695 1295 731 1259 b 651 1135 731 1171 695 1135 "},"Ɨ":{"ha":468,"x_min":0,"x_max":0,"o":"m 298 567 l 453 567 l 453 476 l 298 476 l 298 0 l 170 0 l 170 476 l 15 476 l 15 567 l 170 567 l 170 1010 l 298 1010 "},"Ḭ":{"ha":373,"x_min":0,"x_max":0,"o":"m 251 0 l 122 0 l 122 1010 l 251 1010 m 279 -277 b 114 -221 212 -277 149 -221 b 78 -275 90 -221 79 -248 l -7 -275 b 102 -134 -5 -193 30 -134 b 266 -191 173 -134 220 -191 b 304 -136 288 -191 299 -176 l 387 -136 b 279 -277 385 -222 345 -277 "},"Ì":{"ha":373,"x_min":0,"x_max":0,"o":"m 251 0 l 122 0 l 122 1010 l 251 1010 m 7 1309 l 144 1309 l 239 1109 l 138 1109 "},"Í":{"ha":373,"x_min":0,"x_max":0,"o":"m 251 0 l 122 0 l 122 1010 l 251 1010 m 228 1309 l 364 1309 l 233 1109 l 133 1109 "},"Î":{"ha":373,"x_min":0,"x_max":0,"o":"m 251 0 l 122 0 l 122 1010 l 251 1010 m -31 1122 l -31 1128 l 128 1309 l 244 1309 l 404 1128 l 404 1122 l 283 1122 l 186 1240 l 89 1122 "},"Ĩ":{"ha":373,"x_min":0,"x_max":0,"o":"m 251 0 l 122 0 l 122 1010 l 251 1010 m 275 1143 b 111 1199 208 1143 145 1199 b 75 1145 87 1199 76 1172 l -11 1145 b 99 1286 -8 1227 26 1286 b 262 1229 170 1286 217 1229 b 300 1284 285 1229 296 1244 l 384 1284 b 275 1143 381 1198 342 1143 "},"Ī":{"ha":373,"x_min":0,"x_max":0,"o":"m 251 0 l 122 0 l 122 1010 l 251 1010 m 374 1167 l -1 1167 l -1 1263 l 374 1263 "},"Ĭ":{"ha":373,"x_min":0,"x_max":0,"o":"m 251 0 l 122 0 l 122 1010 l 251 1010 m 186 1117 b -10 1309 77 1117 -10 1201 l 79 1309 b 186 1204 79 1247 124 1204 b 294 1309 249 1204 294 1247 l 383 1309 b 186 1117 383 1202 297 1117 "},"Į":{"ha":373,"x_min":0,"x_max":0,"o":"m 251 0 b 137 -140 191 -42 137 -83 b 193 -193 137 -173 155 -193 b 256 -174 218 -193 239 -184 l 296 -262 b 174 -296 269 -277 229 -296 b 14 -164 85 -296 14 -249 b 122 5 14 -102 53 -43 l 122 1010 l 251 1010 "},"İ":{"ha":373,"x_min":0,"x_max":0,"o":"m 251 0 l 122 0 l 122 1010 l 251 1010 m 186 1135 b 102 1215 140 1135 102 1171 b 186 1296 102 1260 140 1296 b 272 1215 233 1296 272 1260 b 186 1135 272 1171 233 1135 "},"Ǐ":{"ha":373,"x_min":0,"x_max":0,"o":"m 251 0 l 122 0 l 122 1010 l 251 1010 m 186 1190 l 283 1309 l 404 1309 l 404 1303 l 244 1122 l 128 1122 l -31 1303 l -31 1309 l 89 1309 "},"Ȉ":{"ha":373,"x_min":0,"x_max":0,"o":"m 251 0 l 122 0 l 122 1010 l 251 1010 m -124 1309 l 12 1309 l 126 1109 l 26 1109 m 133 1309 l 269 1309 l 348 1109 l 248 1109 "},"Ȋ":{"ha":373,"x_min":0,"x_max":0,"o":"m 251 0 l 122 0 l 122 1010 l 251 1010 m 186 1326 b 393 1122 305 1326 393 1236 l 304 1122 b 186 1235 304 1188 249 1235 b 69 1122 124 1235 69 1188 l -20 1122 b 186 1326 -20 1236 68 1326 "},"Ỉ":{"ha":373,"x_min":0,"x_max":0,"o":"m 251 0 l 122 0 l 122 1010 l 251 1010 m 134 1109 l 182 1202 b 168 1229 192 1221 186 1229 l 73 1229 l 73 1309 l 168 1309 b 263 1168 279 1309 311 1244 l 227 1109 "},"Ị":{"ha":373,"x_min":0,"x_max":0,"o":"m 251 0 l 122 0 l 122 1010 l 251 1010 m 189 -286 b 104 -205 142 -286 104 -250 b 189 -124 104 -160 142 -124 b 274 -205 235 -124 274 -160 b 189 -286 274 -250 235 -286 "},"Ɩ":{"ha":382,"x_min":0,"x_max":0,"o":"m 277 -5 b 107 168 163 -5 107 58 l 107 1010 l 229 1010 l 229 199 b 292 104 229 129 241 104 b 341 109 319 104 330 106 l 366 6 b 277 -5 344 0 310 -5 "},"Ι":{"ha":373,"x_min":0,"x_max":0,"o":"m 251 0 l 122 0 l 122 1010 l 251 1010 "},"Ί":{"ha":564,"x_min":0,"x_max":0,"o":"m 441 0 l 313 0 l 313 1010 l 441 1010 m 90 1010 l 220 1010 l 151 811 l 66 811 "},"Ϊ":{"ha":373,"x_min":0,"x_max":0,"o":"m 251 0 l 122 0 l 122 1010 l 251 1010 m 44 1135 b -37 1215 -1 1135 -37 1171 b 44 1295 -37 1259 -1 1295 b 124 1215 88 1295 124 1259 b 44 1135 124 1171 88 1135 m 330 1135 b 249 1215 285 1135 249 1171 b 330 1295 249 1259 285 1295 b 410 1215 374 1295 410 1259 b 330 1135 410 1171 374 1135 "},"Ἰ":{"ha":608,"x_min":0,"x_max":0,"o":"m 486 0 l 357 0 l 357 1010 l 486 1010 m 83 827 l 83 876 l 92 876 b 161 924 138 876 161 892 b 92 966 161 952 138 966 l 66 966 l 66 1039 l 92 1039 b 252 935 199 1039 252 1004 b 92 827 252 863 199 827 "},"Ἱ":{"ha":613,"x_min":0,"x_max":0,"o":"m 491 0 l 362 0 l 362 1010 l 491 1010 m 227 805 b 66 913 120 805 66 841 b 227 1017 66 983 120 1017 l 252 1017 l 252 945 l 227 945 b 158 903 181 945 158 930 b 227 854 158 870 181 854 l 236 854 l 236 805 l 227 805 "},"Ἲ":{"ha":827,"x_min":0,"x_max":0,"o":"m 705 0 l 576 0 l 576 1010 l 705 1010 m 83 805 l 83 854 l 92 854 b 161 903 138 854 161 870 b 92 945 161 930 138 945 l 66 945 l 66 1017 l 92 1017 b 252 913 199 1017 252 983 b 92 805 252 841 199 805 m 354 811 l 285 1010 l 416 1010 l 439 811 "},"Ἳ":{"ha":844,"x_min":0,"x_max":0,"o":"m 722 0 l 593 0 l 593 1010 l 722 1010 m 227 805 b 66 913 120 805 66 841 b 227 1017 66 983 120 1017 l 252 1017 l 252 945 l 227 945 b 158 903 181 945 158 930 b 227 854 158 870 181 854 l 236 854 l 236 805 l 227 805 m 376 811 l 307 1010 l 437 1010 l 460 811 "},"Ἴ":{"ha":830,"x_min":0,"x_max":0,"o":"m 708 0 l 579 0 l 579 1010 l 708 1010 m 83 805 l 83 854 l 92 854 b 161 903 138 854 161 870 b 92 945 161 930 138 945 l 66 945 l 66 1017 l 92 1017 b 252 913 199 1017 252 983 b 92 805 252 841 199 805 m 358 1010 l 489 1010 l 420 811 l 335 811 "},"Ἵ":{"ha":836,"x_min":0,"x_max":0,"o":"m 713 0 l 585 0 l 585 1010 l 713 1010 m 227 805 b 66 913 120 805 66 841 b 227 1017 66 983 120 1017 l 252 1017 l 252 945 l 227 945 b 158 903 181 945 158 930 b 227 854 158 870 181 854 l 236 854 l 236 805 l 227 805 m 363 1010 l 494 1010 l 425 811 l 340 811 "},"Ἶ":{"ha":718,"x_min":0,"x_max":0,"o":"m 596 0 l 467 0 l 467 1010 l 596 1010 m 353 1095 b 188 1152 286 1095 222 1152 b 152 1098 164 1152 153 1124 l 66 1098 b 176 1239 69 1179 104 1239 b 340 1181 247 1239 294 1181 b 378 1236 362 1181 373 1197 l 461 1236 b 353 1095 458 1151 419 1095 m 187 814 l 187 863 l 196 863 b 265 912 242 863 265 880 b 196 954 265 940 242 954 l 171 954 l 171 1027 l 196 1027 b 357 923 303 1027 357 992 b 196 814 357 850 303 814 "},"Ἷ":{"ha":718,"x_min":0,"x_max":0,"o":"m 596 0 l 467 0 l 467 1010 l 596 1010 m 353 1084 b 188 1141 286 1084 222 1141 b 152 1087 164 1141 153 1114 l 66 1087 b 176 1228 69 1168 104 1228 b 340 1171 247 1228 294 1171 b 378 1225 362 1171 373 1186 l 461 1225 b 353 1084 458 1140 419 1084 m 332 804 b 171 912 224 804 171 840 b 332 1016 171 981 224 1016 l 357 1016 l 357 943 l 332 943 b 262 901 286 943 262 929 b 332 852 262 869 286 852 l 340 852 l 340 804 l 332 804 "},"Ῐ":{"ha":373,"x_min":0,"x_max":0,"o":"m 251 0 l 122 0 l 122 1010 l 251 1010 m 186 1117 b -10 1309 77 1117 -10 1201 l 79 1309 b 186 1204 79 1247 124 1204 b 294 1309 249 1204 294 1247 l 383 1309 b 186 1117 383 1202 297 1117 "},"Ῑ":{"ha":373,"x_min":0,"x_max":0,"o":"m 251 0 l 122 0 l 122 1010 l 251 1010 m 374 1167 l -1 1167 l -1 1263 l 374 1263 "},"Ὶ":{"ha":495,"x_min":0,"x_max":0,"o":"m 373 0 l 244 0 l 244 1010 l 373 1010 m -15 857 l -84 1057 l 47 1057 l 70 857 "},"Ί":{"ha":564,"x_min":0,"x_max":0,"o":"m 441 0 l 313 0 l 313 1010 l 441 1010 m 90 1010 l 220 1010 l 151 811 l 66 811 "},"І":{"ha":373,"x_min":0,"x_max":0,"o":"m 251 0 l 122 0 l 122 1010 l 251 1010 "},"Ї":{"ha":373,"x_min":0,"x_max":0,"o":"m 251 0 l 122 0 l 122 1010 l 251 1010 m 44 1135 b -37 1215 -1 1135 -37 1171 b 44 1295 -37 1259 -1 1295 b 124 1215 88 1295 124 1259 b 44 1135 124 1171 88 1135 m 330 1135 b 249 1215 285 1135 249 1171 b 330 1295 249 1259 285 1295 b 410 1215 374 1295 410 1259 b 330 1135 410 1171 374 1135 "},"":{"ha":612,"x_min":0,"x_max":0,"o":"m 62 114 l 242 114 l 242 897 l 62 897 l 62 1010 l 550 1010 l 550 897 l 371 897 l 371 114 l 550 114 l 550 0 l 62 0 "},"":{"ha":612,"x_min":0,"x_max":0,"o":"m 62 114 l 242 114 l 242 897 l 62 897 l 62 1010 l 550 1010 l 550 897 l 371 897 l 371 114 l 550 114 l 550 0 l 62 0 m 164 1135 b 83 1215 119 1135 83 1171 b 164 1295 83 1259 119 1295 b 244 1215 208 1295 244 1259 b 164 1135 244 1171 208 1135 m 450 1135 b 369 1215 405 1135 369 1171 b 450 1295 369 1259 405 1295 b 530 1215 494 1295 530 1259 b 450 1135 530 1171 494 1135 "},"":{"ha":612,"x_min":0,"x_max":0,"o":"m 62 114 l 242 114 l 242 897 l 62 897 l 62 1010 l 550 1010 l 550 897 l 371 897 l 371 114 l 550 114 l 550 0 l 62 0 m 352 1535 l 488 1535 l 357 1348 l 257 1348 m 168 1116 b 87 1196 123 1116 87 1152 b 168 1276 87 1240 123 1276 b 248 1196 212 1276 248 1240 b 168 1116 248 1152 212 1116 m 453 1116 b 372 1196 408 1116 372 1152 b 453 1276 372 1240 408 1276 b 533 1196 497 1276 533 1240 b 453 1116 533 1152 497 1116 "},"":{"ha":612,"x_min":0,"x_max":0,"o":"m 62 114 l 242 114 l 242 476 l 87 476 l 87 567 l 242 567 l 242 897 l 62 897 l 62 1010 l 550 1010 l 550 897 l 371 897 l 371 567 l 526 567 l 526 476 l 371 476 l 371 114 l 550 114 l 550 0 l 62 0 "},"":{"ha":612,"x_min":0,"x_max":0,"o":"m 62 114 l 242 114 l 242 897 l 62 897 l 62 1010 l 550 1010 l 550 897 l 371 897 l 371 114 l 550 114 l 550 0 l 62 0 m 399 -277 b 234 -221 332 -277 269 -221 b 198 -275 210 -221 199 -248 l 113 -275 b 222 -134 115 -193 150 -134 b 386 -191 293 -134 340 -191 b 424 -136 408 -191 419 -176 l 507 -136 b 399 -277 505 -222 465 -277 "},"":{"ha":612,"x_min":0,"x_max":0,"o":"m 62 114 l 242 114 l 242 897 l 62 897 l 62 1010 l 550 1010 l 550 897 l 371 897 l 371 114 l 550 114 l 550 0 l 62 0 m 127 1309 l 264 1309 l 359 1109 l 258 1109 "},"":{"ha":612,"x_min":0,"x_max":0,"o":"m 62 114 l 242 114 l 242 897 l 62 897 l 62 1010 l 550 1010 l 550 897 l 371 897 l 371 114 l 550 114 l 550 0 l 62 0 m 348 1309 l 484 1309 l 353 1109 l 253 1109 "},"":{"ha":612,"x_min":0,"x_max":0,"o":"m 62 114 l 242 114 l 242 897 l 62 897 l 62 1010 l 550 1010 l 550 897 l 371 897 l 371 114 l 550 114 l 550 0 l 62 0 m 89 1122 l 89 1128 l 248 1309 l 364 1309 l 524 1128 l 524 1122 l 403 1122 l 307 1240 l 209 1122 "},"":{"ha":612,"x_min":0,"x_max":0,"o":"m 62 114 l 242 114 l 242 897 l 62 897 l 62 1010 l 550 1010 l 550 897 l 371 897 l 371 114 l 550 114 l 550 0 l 62 0 m 395 1143 b 231 1199 328 1143 265 1199 b 195 1145 207 1199 196 1172 l 109 1145 b 219 1286 112 1227 146 1286 b 382 1229 290 1286 337 1229 b 420 1284 405 1229 416 1244 l 504 1284 b 395 1143 501 1198 462 1143 "},"":{"ha":612,"x_min":0,"x_max":0,"o":"m 62 114 l 242 114 l 242 897 l 62 897 l 62 1010 l 550 1010 l 550 897 l 371 897 l 371 114 l 550 114 l 550 0 l 62 0 m 494 1167 l 119 1167 l 119 1263 l 494 1263 "},"":{"ha":612,"x_min":0,"x_max":0,"o":"m 62 114 l 242 114 l 242 897 l 62 897 l 62 1010 l 550 1010 l 550 897 l 371 897 l 371 114 l 550 114 l 550 0 l 62 0 m 307 1117 b 110 1309 197 1117 110 1201 l 199 1309 b 307 1204 199 1247 244 1204 b 414 1309 369 1204 414 1247 l 503 1309 b 307 1117 503 1202 417 1117 "},"":{"ha":612,"x_min":0,"x_max":0,"o":"m 62 114 l 242 114 l 242 897 l 62 897 l 62 1010 l 550 1010 l 550 897 l 371 897 l 371 114 l 550 114 l 550 0 b 436 -140 490 -42 436 -83 b 492 -193 436 -173 454 -193 b 555 -174 517 -193 538 -184 l 595 -262 b 473 -296 568 -277 528 -296 b 313 -164 385 -296 313 -249 b 414 0 313 -104 349 -47 l 62 0 "},"":{"ha":612,"x_min":0,"x_max":0,"o":"m 62 114 l 242 114 l 242 897 l 62 897 l 62 1010 l 550 1010 l 550 897 l 371 897 l 371 114 l 550 114 l 550 0 l 62 0 m 307 1135 b 222 1215 260 1135 222 1171 b 307 1296 222 1260 260 1296 b 392 1215 353 1296 392 1260 b 307 1135 392 1171 353 1135 "},"":{"ha":612,"x_min":0,"x_max":0,"o":"m 62 114 l 242 114 l 242 897 l 62 897 l 62 1010 l 550 1010 l 550 897 l 371 897 l 371 114 l 550 114 l 550 0 l 62 0 m 307 1190 l 403 1309 l 524 1309 l 524 1303 l 364 1122 l 248 1122 l 89 1303 l 89 1309 l 209 1309 "},"":{"ha":612,"x_min":0,"x_max":0,"o":"m 62 114 l 242 114 l 242 897 l 62 897 l 62 1010 l 550 1010 l 550 897 l 371 897 l 371 114 l 550 114 l 550 0 l 62 0 m -4 1309 l 132 1309 l 246 1109 l 146 1109 m 253 1309 l 389 1309 l 468 1109 l 368 1109 "},"":{"ha":612,"x_min":0,"x_max":0,"o":"m 62 114 l 242 114 l 242 897 l 62 897 l 62 1010 l 550 1010 l 550 897 l 371 897 l 371 114 l 550 114 l 550 0 l 62 0 m 307 1326 b 513 1122 425 1326 513 1236 l 424 1122 b 307 1235 424 1188 369 1235 b 189 1122 244 1235 189 1188 l 100 1122 b 307 1326 100 1236 188 1326 "},"":{"ha":612,"x_min":0,"x_max":0,"o":"m 62 114 l 242 114 l 242 897 l 62 897 l 62 1010 l 550 1010 l 550 897 l 371 897 l 371 114 l 550 114 l 550 0 l 62 0 m 254 1109 l 302 1202 b 288 1229 312 1221 306 1229 l 193 1229 l 193 1309 l 288 1309 b 383 1168 399 1309 431 1244 l 347 1109 "},"":{"ha":612,"x_min":0,"x_max":0,"o":"m 62 114 l 242 114 l 242 897 l 62 897 l 62 1010 l 550 1010 l 550 897 l 371 897 l 371 114 l 550 114 l 550 0 l 62 0 m 309 -286 b 224 -205 262 -286 224 -250 b 309 -124 224 -160 262 -124 b 394 -205 355 -124 394 -160 b 309 -286 394 -250 355 -286 "},"":{"ha":896,"x_min":0,"x_max":0,"o":"m 346 114 l 526 114 l 526 897 l 346 897 l 346 1010 l 833 1010 l 833 897 l 654 897 l 654 114 l 833 114 l 833 0 l 346 0 m 83 827 l 83 876 l 92 876 b 161 924 138 876 161 892 b 92 966 161 952 138 966 l 66 966 l 66 1039 l 92 1039 b 252 935 199 1039 252 1004 b 92 827 252 863 199 827 "},"":{"ha":901,"x_min":0,"x_max":0,"o":"m 351 114 l 531 114 l 531 897 l 351 897 l 351 1010 l 839 1010 l 839 897 l 660 897 l 660 114 l 839 114 l 839 0 l 351 0 m 227 805 b 66 913 120 805 66 841 b 227 1017 66 983 120 1017 l 252 1017 l 252 945 l 227 945 b 158 903 181 945 158 930 b 227 854 158 870 181 854 l 236 854 l 236 805 l 227 805 "},"":{"ha":1116,"x_min":0,"x_max":0,"o":"m 566 114 l 745 114 l 745 897 l 566 897 l 566 1010 l 1053 1010 l 1053 897 l 874 897 l 874 114 l 1053 114 l 1053 0 l 566 0 m 83 805 l 83 854 l 92 854 b 161 903 138 854 161 870 b 92 945 161 930 138 945 l 66 945 l 66 1017 l 92 1017 b 252 913 199 1017 252 983 b 92 805 252 841 199 805 m 354 811 l 285 1010 l 416 1010 l 439 811 "},"":{"ha":1132,"x_min":0,"x_max":0,"o":"m 582 114 l 762 114 l 762 897 l 582 897 l 582 1010 l 1069 1010 l 1069 897 l 890 897 l 890 114 l 1069 114 l 1069 0 l 582 0 m 227 805 b 66 913 120 805 66 841 b 227 1017 66 983 120 1017 l 252 1017 l 252 945 l 227 945 b 158 903 181 945 158 930 b 227 854 158 870 181 854 l 236 854 l 236 805 l 227 805 m 376 811 l 307 1010 l 437 1010 l 460 811 "},"":{"ha":1118,"x_min":0,"x_max":0,"o":"m 568 114 l 748 114 l 748 897 l 568 897 l 568 1010 l 1056 1010 l 1056 897 l 877 897 l 877 114 l 1056 114 l 1056 0 l 568 0 m 83 805 l 83 854 l 92 854 b 161 903 138 854 161 870 b 92 945 161 930 138 945 l 66 945 l 66 1017 l 92 1017 b 252 913 199 1017 252 983 b 92 805 252 841 199 805 m 358 1010 l 489 1010 l 420 811 l 335 811 "},"":{"ha":1124,"x_min":0,"x_max":0,"o":"m 574 114 l 753 114 l 753 897 l 574 897 l 574 1010 l 1061 1010 l 1061 897 l 882 897 l 882 114 l 1061 114 l 1061 0 l 574 0 m 227 805 b 66 913 120 805 66 841 b 227 1017 66 983 120 1017 l 252 1017 l 252 945 l 227 945 b 158 903 181 945 158 930 b 227 854 158 870 181 854 l 236 854 l 236 805 l 227 805 m 363 1010 l 494 1010 l 425 811 l 340 811 "},"":{"ha":1006,"x_min":0,"x_max":0,"o":"m 456 114 l 636 114 l 636 897 l 456 897 l 456 1010 l 944 1010 l 944 897 l 765 897 l 765 114 l 944 114 l 944 0 l 456 0 m 353 1095 b 188 1152 286 1095 222 1152 b 152 1098 164 1152 153 1124 l 66 1098 b 176 1239 69 1179 104 1239 b 340 1181 247 1239 294 1181 b 378 1236 362 1181 373 1197 l 461 1236 b 353 1095 458 1151 419 1095 m 187 814 l 187 863 l 196 863 b 265 912 242 863 265 880 b 196 954 265 940 242 954 l 171 954 l 171 1027 l 196 1027 b 357 923 303 1027 357 992 b 196 814 357 850 303 814 "},"":{"ha":1006,"x_min":0,"x_max":0,"o":"m 456 114 l 636 114 l 636 897 l 456 897 l 456 1010 l 944 1010 l 944 897 l 765 897 l 765 114 l 944 114 l 944 0 l 456 0 m 353 1084 b 188 1141 286 1084 222 1141 b 152 1087 164 1141 153 1114 l 66 1087 b 176 1228 69 1168 104 1228 b 340 1171 247 1228 294 1171 b 378 1225 362 1171 373 1186 l 461 1225 b 353 1084 458 1140 419 1084 m 332 804 b 171 912 224 804 171 840 b 332 1016 171 981 224 1016 l 357 1016 l 357 943 l 332 943 b 262 901 286 943 262 929 b 332 852 262 869 286 852 l 340 852 l 340 804 l 332 804 "},"":{"ha":612,"x_min":0,"x_max":0,"o":"m 62 114 l 242 114 l 242 897 l 62 897 l 62 1010 l 550 1010 l 550 897 l 371 897 l 371 114 l 550 114 l 550 0 l 62 0 m 307 1117 b 110 1309 197 1117 110 1201 l 199 1309 b 307 1204 199 1247 244 1204 b 414 1309 369 1204 414 1247 l 503 1309 b 307 1117 503 1202 417 1117 "},"":{"ha":612,"x_min":0,"x_max":0,"o":"m 62 114 l 242 114 l 242 897 l 62 897 l 62 1010 l 550 1010 l 550 897 l 371 897 l 371 114 l 550 114 l 550 0 l 62 0 m 494 1167 l 119 1167 l 119 1263 l 494 1263 "},"":{"ha":734,"x_min":0,"x_max":0,"o":"m 184 114 l 364 114 l 364 897 l 184 897 l 184 1010 l 672 1010 l 672 897 l 493 897 l 493 114 l 672 114 l 672 0 l 184 0 m -64 857 l -133 1057 l -2 1057 l 21 857 "},"":{"ha":852,"x_min":0,"x_max":0,"o":"m 302 114 l 481 114 l 481 897 l 302 897 l 302 1010 l 789 1010 l 789 897 l 610 897 l 610 114 l 789 114 l 789 0 l 302 0 m 90 1010 l 220 1010 l 151 811 l 66 811 "},"":{"ha":612,"x_min":0,"x_max":0,"o":"m 62 114 l 242 114 l 242 897 l 62 897 l 62 1010 l 550 1010 l 550 897 l 371 897 l 371 114 l 550 114 l 550 0 l 62 0 "},"":{"ha":612,"x_min":0,"x_max":0,"o":"m 62 114 l 242 114 l 242 897 l 62 897 l 62 1010 l 550 1010 l 550 897 l 371 897 l 371 114 l 550 114 l 550 0 l 62 0 m 164 1135 b 83 1215 119 1135 83 1171 b 164 1295 83 1259 119 1295 b 244 1215 208 1295 244 1259 b 164 1135 244 1171 208 1135 m 450 1135 b 369 1215 405 1135 369 1171 b 450 1295 369 1259 405 1295 b 530 1215 494 1295 530 1259 b 450 1135 530 1171 494 1135 "},"J":{"ha":793,"x_min":0,"x_max":0,"o":"m 370 -14 b 68 289 191 -14 68 95 l 68 343 l 197 343 l 197 289 b 370 100 197 165 266 100 b 542 289 473 100 542 165 l 542 1010 l 671 1010 l 671 289 b 370 -14 671 95 548 -14 "},"Ĵ":{"ha":793,"x_min":0,"x_max":0,"o":"m 370 -14 b 68 289 191 -14 68 95 l 68 343 l 197 343 l 197 289 b 370 100 197 165 266 100 b 542 289 473 100 542 165 l 542 1010 l 671 1010 l 671 289 b 370 -14 671 95 548 -14 m 389 1122 l 389 1128 l 548 1309 l 664 1309 l 824 1128 l 824 1122 l 703 1122 l 606 1240 l 509 1122 "},"Ɉ":{"ha":840,"x_min":0,"x_max":0,"o":"m 370 -14 b 68 289 191 -14 68 95 l 68 343 l 197 343 l 197 289 b 370 100 197 165 266 100 b 542 289 473 100 542 165 l 542 554 l 387 554 l 387 645 l 542 645 l 542 1010 l 671 1010 l 671 645 l 825 645 l 825 554 l 671 554 l 671 289 b 370 -14 671 95 548 -14 "},"Ϳ":{"ha":793,"x_min":0,"x_max":0,"o":"m 370 -14 b 68 289 191 -14 68 95 l 68 343 l 197 343 l 197 289 b 370 100 197 165 266 100 b 542 289 473 100 542 165 l 542 1010 l 671 1010 l 671 289 b 370 -14 671 95 548 -14 "},"Ј":{"ha":793,"x_min":0,"x_max":0,"o":"m 370 -14 b 68 289 191 -14 68 95 l 68 343 l 197 343 l 197 289 b 370 100 197 165 266 100 b 542 289 473 100 542 165 l 542 1010 l 671 1010 l 671 289 b 370 -14 671 95 548 -14 "},"K":{"ha":933,"x_min":0,"x_max":0,"o":"m 122 1010 l 251 1010 l 251 665 l 249 479 b 423 684 305 551 361 618 l 725 1010 l 894 1010 l 486 573 l 895 0 l 742 0 l 397 486 l 251 332 l 251 0 l 122 0 "},"Ķ":{"ha":933,"x_min":0,"x_max":0,"o":"m 122 1010 l 251 1010 l 251 665 l 249 479 b 423 684 305 551 361 618 l 725 1010 l 894 1010 l 486 573 l 895 0 l 742 0 l 397 486 l 251 332 l 251 0 l 122 0 m 414 -80 l 538 -80 l 452 -334 l 359 -334 "},"Ǩ":{"ha":933,"x_min":0,"x_max":0,"o":"m 122 1010 l 251 1010 l 251 665 l 249 479 b 423 684 305 551 361 618 l 725 1010 l 894 1010 l 486 573 l 895 0 l 742 0 l 397 486 l 251 332 l 251 0 l 122 0 m 477 1190 l 574 1309 l 695 1309 l 695 1303 l 535 1122 l 419 1122 l 260 1303 l 260 1309 l 380 1309 "},"Ḱ":{"ha":933,"x_min":0,"x_max":0,"o":"m 122 1010 l 251 1010 l 251 665 l 249 479 b 423 684 305 551 361 618 l 725 1010 l 894 1010 l 486 573 l 895 0 l 742 0 l 397 486 l 251 332 l 251 0 l 122 0 m 519 1309 l 655 1309 l 524 1109 l 424 1109 "},"Ḳ":{"ha":933,"x_min":0,"x_max":0,"o":"m 122 1010 l 251 1010 l 251 665 l 249 479 b 423 684 305 551 361 618 l 725 1010 l 894 1010 l 486 573 l 895 0 l 742 0 l 397 486 l 251 332 l 251 0 l 122 0 m 479 -286 b 395 -205 433 -286 395 -250 b 479 -124 395 -160 433 -124 b 565 -205 526 -124 565 -160 b 479 -286 565 -250 526 -286 "},"Ḵ":{"ha":933,"x_min":0,"x_max":0,"o":"m 122 1010 l 251 1010 l 251 665 l 249 479 b 423 684 305 551 361 618 l 725 1010 l 894 1010 l 486 573 l 895 0 l 742 0 l 397 486 l 251 332 l 251 0 l 122 0 m 666 -253 l 290 -253 l 290 -157 l 666 -157 "},"Ҡ":{"ha":1165,"x_min":0,"x_max":0,"o":"m 354 902 l 66 902 l 66 1010 l 483 1010 l 483 570 l 625 570 l 954 1010 l 1110 1010 l 734 521 l 1126 0 l 971 0 l 630 458 l 483 458 l 483 0 l 354 0 "},"Қ":{"ha":981,"x_min":0,"x_max":0,"o":"m 122 1010 l 251 1010 l 251 570 l 393 570 l 722 1010 l 878 1010 l 502 521 l 810 113 l 954 113 l 954 -217 l 831 -217 l 831 0 l 739 0 l 398 458 l 251 458 l 251 0 l 122 0 "},"Ƙ":{"ha":942,"x_min":0,"x_max":0,"o":"m 122 1010 l 251 1010 l 251 513 l 263 513 l 659 949 b 930 984 739 1037 845 1043 l 880 889 b 741 859 834 918 790 911 l 457 554 l 880 0 l 724 0 l 377 464 l 251 322 l 251 0 l 122 0 "},"Κ":{"ha":933,"x_min":0,"x_max":0,"o":"m 122 1010 l 251 1010 l 251 665 l 249 479 b 423 684 305 551 361 618 l 725 1010 l 894 1010 l 486 573 l 895 0 l 742 0 l 397 486 l 251 332 l 251 0 l 122 0 "},"L":{"ha":785,"x_min":0,"x_max":0,"o":"m 122 1010 l 251 1010 l 251 114 l 719 114 l 719 0 l 122 0 "},"Ĺ":{"ha":785,"x_min":0,"x_max":0,"o":"m 122 1010 l 251 1010 l 251 114 l 719 114 l 719 0 l 122 0 m 228 1309 l 364 1309 l 233 1109 l 133 1109 "},"Ļ":{"ha":785,"x_min":0,"x_max":0,"o":"m 122 1010 l 251 1010 l 251 114 l 719 114 l 719 0 l 122 0 m 356 -80 l 481 -80 l 395 -334 l 301 -334 "},"Ľ":{"ha":785,"x_min":0,"x_max":0,"o":"m 122 1010 l 251 1010 l 251 114 l 719 114 l 719 0 l 122 0 m 422 1058 l 544 1058 l 509 802 l 422 802 "},"Ḷ":{"ha":785,"x_min":0,"x_max":0,"o":"m 122 1010 l 251 1010 l 251 114 l 719 114 l 719 0 l 122 0 m 422 -286 b 337 -205 376 -286 337 -250 b 422 -124 337 -160 376 -124 b 507 -205 469 -124 507 -160 b 422 -286 507 -250 469 -286 "},"Ḹ":{"ha":785,"x_min":0,"x_max":0,"o":"m 122 1010 l 251 1010 l 251 114 l 719 114 l 719 0 l 122 0 m 374 1167 l -1 1167 l -1 1263 l 374 1263 m 422 -286 b 337 -205 376 -286 337 -250 b 422 -124 337 -160 376 -124 b 507 -205 469 -124 507 -160 b 422 -286 507 -250 469 -286 "},"Ḻ":{"ha":785,"x_min":0,"x_max":0,"o":"m 122 1010 l 251 1010 l 251 114 l 719 114 l 719 0 l 122 0 m 608 -253 l 233 -253 l 233 -157 l 608 -157 "},"Ḽ":{"ha":785,"x_min":0,"x_max":0,"o":"m 122 1010 l 251 1010 l 251 114 l 719 114 l 719 0 l 122 0 m 207 -298 l 207 -292 l 366 -111 l 482 -111 l 642 -292 l 642 -298 l 521 -298 l 425 -180 l 327 -298 "},"Ł":{"ha":826,"x_min":0,"x_max":0,"o":"m 163 421 l 34 347 l 34 475 l 163 549 l 163 1010 l 292 1010 l 292 623 l 539 766 l 539 638 l 292 495 l 292 114 l 760 114 l 760 0 l 163 0 "},"Ƚ":{"ha":804,"x_min":0,"x_max":0,"o":"m 140 453 l 14 453 l 14 557 l 140 557 l 140 1010 l 269 1010 l 269 557 l 565 557 l 565 453 l 269 453 l 269 114 l 737 114 l 737 0 l 140 0 "},"ǈ":{"ha":1122,"x_min":0,"x_max":0,"o":"m 122 1010 l 251 1010 l 251 114 l 719 114 l 719 0 l 122 0 m 1015 758 l 1015 -54 b 792 -283 1015 -199 939 -283 l 768 -283 l 768 -171 l 790 -171 b 892 -54 861 -171 892 -130 l 892 758 m 954 882 b 869 963 907 882 869 918 b 954 1044 869 1008 907 1044 b 1039 963 1000 1044 1039 1008 b 954 882 1039 918 1000 882 "},"M":{"ha":1255,"x_min":0,"x_max":0,"o":"m 122 1010 l 305 1010 l 554 373 b 629 143 573 324 605 225 b 703 373 652 222 684 322 l 949 1010 l 1133 1010 l 1133 0 l 1006 0 l 1006 577 b 1010 873 1006 652 1008 768 b 909 577 974 758 932 636 l 683 0 l 571 0 l 342 577 b 240 871 319 634 280 752 b 245 577 242 774 245 655 l 245 0 l 122 0 "},"Ḿ":{"ha":1255,"x_min":0,"x_max":0,"o":"m 122 1010 l 305 1010 l 554 373 b 629 143 573 324 605 225 b 703 373 652 222 684 322 l 949 1010 l 1133 1010 l 1133 0 l 1006 0 l 1006 577 b 1010 873 1006 652 1008 768 b 909 577 974 758 932 636 l 683 0 l 571 0 l 342 577 b 240 871 319 634 280 752 b 245 577 242 774 245 655 l 245 0 l 122 0 m 666 1309 l 802 1309 l 671 1109 l 571 1109 "},"Ṁ":{"ha":1255,"x_min":0,"x_max":0,"o":"m 122 1010 l 305 1010 l 554 373 b 629 143 573 324 605 225 b 703 373 652 222 684 322 l 949 1010 l 1133 1010 l 1133 0 l 1006 0 l 1006 577 b 1010 873 1006 652 1008 768 b 909 577 974 758 932 636 l 683 0 l 571 0 l 342 577 b 240 871 319 634 280 752 b 245 577 242 774 245 655 l 245 0 l 122 0 m 625 1135 b 540 1215 578 1135 540 1171 b 625 1296 540 1260 578 1296 b 710 1215 671 1296 710 1260 b 625 1135 710 1171 671 1135 "},"Ṃ":{"ha":1255,"x_min":0,"x_max":0,"o":"m 122 1010 l 305 1010 l 554 373 b 629 143 573 324 605 225 b 703 373 652 222 684 322 l 949 1010 l 1133 1010 l 1133 0 l 1006 0 l 1006 577 b 1010 873 1006 652 1008 768 b 909 577 974 758 932 636 l 683 0 l 571 0 l 342 577 b 240 871 319 634 280 752 b 245 577 242 774 245 655 l 245 0 l 122 0 m 627 -286 b 542 -205 581 -286 542 -250 b 627 -124 542 -160 581 -124 b 712 -205 673 -124 712 -160 b 627 -286 712 -250 673 -286 "},"Ӎ":{"ha":1255,"x_min":0,"x_max":0,"o":"m 122 1010 l 305 1010 l 554 373 b 629 143 573 324 605 225 b 703 373 652 222 684 322 l 949 1010 l 1133 1010 l 1133 113 l 1261 113 l 1163 -217 l 1042 -217 l 1106 0 l 1006 0 l 1006 577 b 1010 873 1006 652 1008 768 b 909 577 974 758 932 636 l 683 0 l 571 0 l 342 577 b 240 871 319 634 280 752 b 245 577 242 774 245 655 l 245 0 l 122 0 "},"Μ":{"ha":1255,"x_min":0,"x_max":0,"o":"m 122 1010 l 305 1010 l 554 373 b 629 143 573 324 605 225 b 703 373 652 222 684 322 l 949 1010 l 1133 1010 l 1133 0 l 1006 0 l 1006 577 b 1010 873 1006 652 1008 768 b 909 577 974 758 932 636 l 683 0 l 571 0 l 342 577 b 240 871 319 634 280 752 b 245 577 242 774 245 655 l 245 0 l 122 0 "},"Ϻ":{"ha":1255,"x_min":0,"x_max":0,"o":"m 122 1010 l 305 1010 l 554 373 b 629 143 573 324 605 225 b 703 373 652 222 684 322 l 949 1010 l 1133 1010 l 1133 0 l 1006 0 l 1006 577 b 1010 873 1006 652 1008 768 b 909 577 974 758 932 636 l 683 0 l 571 0 l 342 577 b 240 871 319 634 280 752 b 245 577 242 774 245 655 l 245 0 l 122 0 "},"М":{"ha":1255,"x_min":0,"x_max":0,"o":"m 122 1010 l 305 1010 l 554 373 b 629 143 573 324 605 225 b 703 373 652 222 684 322 l 949 1010 l 1133 1010 l 1133 0 l 1006 0 l 1006 577 b 1010 873 1006 652 1008 768 b 909 577 974 758 932 636 l 683 0 l 571 0 l 342 577 b 240 871 319 634 280 752 b 245 577 242 774 245 655 l 245 0 l 122 0 "},"N":{"ha":1046,"x_min":0,"x_max":0,"o":"m 122 1010 l 274 1010 l 685 364 b 804 153 712 321 758 244 b 795 391 796 250 795 336 l 795 1010 l 924 1010 l 924 0 l 771 0 l 405 575 b 241 856 359 648 320 715 b 252 576 247 726 252 625 l 252 0 l 122 0 "},"Ñ":{"ha":1046,"x_min":0,"x_max":0,"o":"m 122 1010 l 274 1010 l 685 364 b 804 153 712 321 758 244 b 795 391 796 250 795 336 l 795 1010 l 924 1010 l 924 0 l 771 0 l 405 575 b 241 856 359 648 320 715 b 252 576 247 726 252 625 l 252 0 l 122 0 m 612 1143 b 448 1199 545 1143 482 1199 b 412 1145 424 1199 413 1172 l 326 1145 b 436 1286 329 1227 363 1286 b 600 1229 507 1286 554 1229 b 637 1284 622 1229 633 1244 l 721 1284 b 612 1143 718 1198 679 1143 "},"Ń":{"ha":1046,"x_min":0,"x_max":0,"o":"m 122 1010 l 274 1010 l 685 364 b 804 153 712 321 758 244 b 795 391 796 250 795 336 l 795 1010 l 924 1010 l 924 0 l 771 0 l 405 575 b 241 856 359 648 320 715 b 252 576 247 726 252 625 l 252 0 l 122 0 m 565 1309 l 701 1309 l 570 1109 l 470 1109 "},"Ņ":{"ha":1046,"x_min":0,"x_max":0,"o":"m 122 1010 l 274 1010 l 685 364 b 804 153 712 321 758 244 b 795 391 796 250 795 336 l 795 1010 l 924 1010 l 924 0 l 771 0 l 405 575 b 241 856 359 648 320 715 b 252 576 247 726 252 625 l 252 0 l 122 0 m 460 -80 l 585 -80 l 498 -334 l 405 -334 "},"Ň":{"ha":1046,"x_min":0,"x_max":0,"o":"m 122 1010 l 274 1010 l 685 364 b 804 153 712 321 758 244 b 795 391 796 250 795 336 l 795 1010 l 924 1010 l 924 0 l 771 0 l 405 575 b 241 856 359 648 320 715 b 252 576 247 726 252 625 l 252 0 l 122 0 m 524 1190 l 620 1309 l 741 1309 l 741 1303 l 581 1122 l 465 1122 l 306 1303 l 306 1309 l 426 1309 "},"Ǹ":{"ha":1046,"x_min":0,"x_max":0,"o":"m 122 1010 l 274 1010 l 685 364 b 804 153 712 321 758 244 b 795 391 796 250 795 336 l 795 1010 l 924 1010 l 924 0 l 771 0 l 405 575 b 241 856 359 648 320 715 b 252 576 247 726 252 625 l 252 0 l 122 0 m 345 1309 l 481 1309 l 576 1109 l 475 1109 "},"Ṅ":{"ha":1046,"x_min":0,"x_max":0,"o":"m 122 1010 l 274 1010 l 685 364 b 804 153 712 321 758 244 b 795 391 796 250 795 336 l 795 1010 l 924 1010 l 924 0 l 771 0 l 405 575 b 241 856 359 648 320 715 b 252 576 247 726 252 625 l 252 0 l 122 0 m 524 1135 b 439 1215 477 1135 439 1171 b 524 1296 439 1260 477 1296 b 609 1215 570 1296 609 1260 b 524 1135 609 1171 570 1135 "},"Ṇ":{"ha":1046,"x_min":0,"x_max":0,"o":"m 122 1010 l 274 1010 l 685 364 b 804 153 712 321 758 244 b 795 391 796 250 795 336 l 795 1010 l 924 1010 l 924 0 l 771 0 l 405 575 b 241 856 359 648 320 715 b 252 576 247 726 252 625 l 252 0 l 122 0 m 526 -286 b 441 -205 479 -286 441 -250 b 526 -124 441 -160 479 -124 b 611 -205 572 -124 611 -160 b 526 -286 611 -250 572 -286 "},"Ṉ":{"ha":1046,"x_min":0,"x_max":0,"o":"m 122 1010 l 274 1010 l 685 364 b 804 153 712 321 758 244 b 795 391 796 250 795 336 l 795 1010 l 924 1010 l 924 0 l 771 0 l 405 575 b 241 856 359 648 320 715 b 252 576 247 726 252 625 l 252 0 l 122 0 m 712 -253 l 336 -253 l 336 -157 l 712 -157 "},"Ṋ":{"ha":1046,"x_min":0,"x_max":0,"o":"m 122 1010 l 274 1010 l 685 364 b 804 153 712 321 758 244 b 795 391 796 250 795 336 l 795 1010 l 924 1010 l 924 0 l 771 0 l 405 575 b 241 856 359 648 320 715 b 252 576 247 726 252 625 l 252 0 l 122 0 m 311 -298 l 311 -292 l 470 -111 l 586 -111 l 746 -292 l 746 -298 l 625 -298 l 528 -180 l 431 -298 "},"Ɲ":{"ha":1046,"x_min":0,"x_max":0,"o":"m -17 -176 b 23 -179 -2 -178 13 -179 b 122 -111 98 -179 122 -157 l 122 1010 l 274 1010 l 685 364 b 804 153 712 321 758 244 b 795 391 796 250 795 336 l 795 1010 l 924 1010 l 924 0 l 771 0 l 405 575 b 241 856 359 648 320 715 b 252 576 247 726 252 625 l 252 0 l 251 0 l 251 -116 b 54 -290 251 -229 182 -290 b -17 -283 24 -290 -3 -287 "},"Ŋ":{"ha":1046,"x_min":0,"x_max":0,"o":"m 664 -176 b 704 -179 679 -178 694 -179 b 803 -111 779 -179 803 -157 l 803 0 l 771 0 l 405 575 b 241 856 359 648 320 715 b 252 576 247 726 252 625 l 252 0 l 122 0 l 122 1010 l 274 1010 l 685 364 b 804 153 712 321 758 244 b 795 391 796 250 795 336 l 795 1010 l 924 1010 l 924 87 l 932 87 l 932 -116 b 734 -290 932 -229 863 -290 b 664 -283 705 -290 677 -287 "},"И":{"ha":1046,"x_min":0,"x_max":0,"o":"m 795 0 l 795 576 b 805 856 795 625 800 726 b 642 575 726 715 688 648 l 275 0 l 122 0 l 122 1010 l 251 1010 l 251 391 b 242 153 251 336 250 250 b 361 364 288 244 334 321 l 772 1010 l 924 1010 l 924 0 "},"Ѝ":{"ha":1046,"x_min":0,"x_max":0,"o":"m 795 0 l 795 576 b 805 856 795 625 800 726 b 642 575 726 715 688 648 l 275 0 l 122 0 l 122 1010 l 251 1010 l 251 391 b 242 153 251 336 250 250 b 361 364 288 244 334 321 l 772 1010 l 924 1010 l 924 0 m 345 1309 l 481 1309 l 576 1109 l 475 1109 "},"Й":{"ha":1046,"x_min":0,"x_max":0,"o":"m 795 0 l 795 576 b 805 856 795 625 800 726 b 642 575 726 715 688 648 l 275 0 l 122 0 l 122 1010 l 251 1010 l 251 391 b 242 153 251 336 250 250 b 361 364 288 244 334 321 l 772 1010 l 924 1010 l 924 0 m 524 1117 b 327 1309 414 1117 327 1201 l 416 1309 b 524 1204 416 1247 461 1204 b 631 1309 586 1204 631 1247 l 720 1309 b 524 1117 720 1202 634 1117 "},"Ӣ":{"ha":1046,"x_min":0,"x_max":0,"o":"m 795 0 l 795 576 b 805 856 795 625 800 726 b 642 575 726 715 688 648 l 275 0 l 122 0 l 122 1010 l 251 1010 l 251 391 b 242 153 251 336 250 250 b 361 364 288 244 334 321 l 772 1010 l 924 1010 l 924 0 m 711 1167 l 336 1167 l 336 1263 l 711 1263 "},"Ӥ":{"ha":1046,"x_min":0,"x_max":0,"o":"m 795 0 l 795 576 b 805 856 795 625 800 726 b 642 575 726 715 688 648 l 275 0 l 122 0 l 122 1010 l 251 1010 l 251 391 b 242 153 251 336 250 250 b 361 364 288 244 334 321 l 772 1010 l 924 1010 l 924 0 m 381 1135 b 300 1215 336 1135 300 1171 b 381 1295 300 1259 336 1295 b 461 1215 425 1295 461 1259 b 381 1135 461 1171 425 1135 m 667 1135 b 586 1215 622 1135 586 1171 b 667 1295 586 1259 622 1295 b 747 1215 711 1295 747 1259 b 667 1135 747 1171 711 1135 "},"Ҋ":{"ha":1046,"x_min":0,"x_max":0,"o":"m 901 0 l 795 0 l 795 576 b 805 856 795 625 800 726 b 642 575 726 715 688 648 l 275 0 l 122 0 l 122 1010 l 251 1010 l 251 391 b 242 153 251 336 250 250 b 361 364 288 244 334 321 l 772 1010 l 924 1010 l 924 113 l 1057 113 l 958 -217 l 837 -217 m 524 1117 b 327 1309 414 1117 327 1201 l 416 1309 b 524 1204 416 1247 461 1204 b 631 1309 586 1204 631 1247 l 720 1309 b 524 1117 720 1202 634 1117 "},"Ͷ":{"ha":1046,"x_min":0,"x_max":0,"o":"m 795 0 l 795 576 b 805 856 795 625 800 726 b 642 575 726 715 688 648 l 275 0 l 122 0 l 122 1010 l 251 1010 l 251 391 b 242 153 251 336 250 250 b 361 364 288 244 334 321 l 772 1010 l 924 1010 l 924 0 "},"Ν":{"ha":1046,"x_min":0,"x_max":0,"o":"m 122 1010 l 274 1010 l 685 364 b 804 153 712 321 758 244 b 795 391 796 250 795 336 l 795 1010 l 924 1010 l 924 0 l 771 0 l 405 575 b 241 856 359 648 320 715 b 252 576 247 726 252 625 l 252 0 l 122 0 "},"ǋ":{"ha":1383,"x_min":0,"x_max":0,"o":"m 122 1010 l 274 1010 l 685 364 b 804 153 712 321 758 244 b 795 391 796 250 795 336 l 795 1010 l 924 1010 l 924 0 l 771 0 l 405 575 b 241 856 359 648 320 715 b 252 576 247 726 252 625 l 252 0 l 122 0 m 1276 758 l 1276 -54 b 1053 -283 1276 -199 1200 -283 l 1029 -283 l 1029 -171 l 1051 -171 b 1153 -54 1122 -171 1153 -130 l 1153 758 m 1215 882 b 1130 963 1168 882 1130 918 b 1215 1044 1130 1008 1168 1044 b 1300 963 1261 1044 1300 1008 b 1215 882 1300 918 1261 882 "},"O":{"ha":1062,"x_min":0,"x_max":0,"o":"m 532 -14 b 83 505 273 -14 83 184 b 532 1024 83 825 273 1024 b 979 505 791 1024 979 825 b 532 -14 979 184 791 -14 m 532 106 b 854 505 712 106 854 246 b 532 905 854 764 712 905 b 208 505 350 905 208 764 b 532 106 208 247 350 106 "},"Ö":{"ha":1062,"x_min":0,"x_max":0,"o":"m 532 -14 b 83 505 273 -14 83 184 b 532 1024 83 825 273 1024 b 979 505 791 1024 979 825 b 532 -14 979 184 791 -14 m 532 106 b 854 505 712 106 854 246 b 532 905 854 764 712 905 b 208 505 350 905 208 764 b 532 106 208 247 350 106 m 389 1135 b 309 1215 345 1135 309 1171 b 389 1295 309 1259 345 1295 b 469 1215 433 1295 469 1259 b 389 1135 469 1171 433 1135 m 675 1135 b 594 1215 630 1135 594 1171 b 675 1295 594 1259 630 1295 b 755 1215 719 1295 755 1259 b 675 1135 755 1171 719 1135 "},"Õ":{"ha":1062,"x_min":0,"x_max":0,"o":"m 532 -14 b 83 505 273 -14 83 184 b 532 1024 83 825 273 1024 b 979 505 791 1024 979 825 b 532 -14 979 184 791 -14 m 532 106 b 854 505 712 106 854 246 b 532 905 854 764 712 905 b 208 505 350 905 208 764 b 532 106 208 247 350 106 m 621 1143 b 456 1199 553 1143 490 1199 b 420 1145 432 1199 421 1172 l 334 1145 b 444 1286 337 1227 372 1286 b 608 1229 515 1286 562 1229 b 646 1284 630 1229 641 1244 l 729 1284 b 621 1143 726 1198 687 1143 "},"Ø":{"ha":1062,"x_min":0,"x_max":0,"o":"m 532 -14 b 286 58 439 -14 355 12 l 224 -31 l 136 30 l 205 130 b 83 505 128 220 83 347 b 532 1024 83 825 273 1024 b 777 951 624 1024 708 999 l 840 1042 l 928 981 l 857 880 b 979 505 934 790 979 662 b 532 -14 979 184 791 -14 m 707 851 b 532 905 656 886 597 905 b 208 505 350 905 208 764 b 280 237 208 393 235 303 m 532 106 b 854 505 712 106 854 246 b 783 772 854 616 827 707 l 356 159 b 532 106 406 124 467 106 "},"Ơ":{"ha":1058,"x_min":0,"x_max":0,"o":"m 532 -14 b 83 505 273 -14 83 184 b 529 1024 83 824 271 1023 b 530 1024 530 1024 530 1024 b 532 1024 531 1024 531 1024 b 536 1024 533 1024 535 1024 b 848 1010 635 1023 623 1010 b 860 1023 855 1010 860 1015 l 860 1152 l 975 1152 l 975 1028 b 860 913 975 951 937 913 b 823 916 846 913 834 913 b 979 505 920 826 979 684 b 532 -14 979 184 791 -14 m 532 106 b 854 505 712 106 854 246 b 532 905 854 764 712 905 b 208 505 350 905 208 764 b 532 106 208 247 350 106 "},"Ò":{"ha":1062,"x_min":0,"x_max":0,"o":"m 532 -14 b 83 505 273 -14 83 184 b 532 1024 83 825 273 1024 b 979 505 791 1024 979 825 b 532 -14 979 184 791 -14 m 532 106 b 854 505 712 106 854 246 b 532 905 854 764 712 905 b 208 505 350 905 208 764 b 532 106 208 247 350 106 m 353 1309 l 489 1309 l 584 1109 l 484 1109 "},"Ó":{"ha":1062,"x_min":0,"x_max":0,"o":"m 532 -14 b 83 505 273 -14 83 184 b 532 1024 83 825 273 1024 b 979 505 791 1024 979 825 b 532 -14 979 184 791 -14 m 532 106 b 854 505 712 106 854 246 b 532 905 854 764 712 905 b 208 505 350 905 208 764 b 532 106 208 247 350 106 m 573 1309 l 709 1309 l 578 1109 l 478 1109 "},"Ô":{"ha":1062,"x_min":0,"x_max":0,"o":"m 532 -14 b 83 505 273 -14 83 184 b 532 1024 83 825 273 1024 b 979 505 791 1024 979 825 b 532 -14 979 184 791 -14 m 532 106 b 854 505 712 106 854 246 b 532 905 854 764 712 905 b 208 505 350 905 208 764 b 532 106 208 247 350 106 m 314 1122 l 314 1128 l 473 1309 l 589 1309 l 749 1128 l 749 1122 l 628 1122 l 532 1240 l 434 1122 "},"Ō":{"ha":1062,"x_min":0,"x_max":0,"o":"m 532 -14 b 83 505 273 -14 83 184 b 532 1024 83 825 273 1024 b 979 505 791 1024 979 825 b 532 -14 979 184 791 -14 m 532 106 b 854 505 712 106 854 246 b 532 905 854 764 712 905 b 208 505 350 905 208 764 b 532 106 208 247 350 106 m 720 1167 l 344 1167 l 344 1263 l 720 1263 "},"Ŏ":{"ha":1062,"x_min":0,"x_max":0,"o":"m 532 -14 b 83 505 273 -14 83 184 b 532 1024 83 825 273 1024 b 979 505 791 1024 979 825 b 532 -14 979 184 791 -14 m 532 106 b 854 505 712 106 854 246 b 532 905 854 764 712 905 b 208 505 350 905 208 764 b 532 106 208 247 350 106 m 532 1117 b 335 1309 422 1117 335 1201 l 425 1309 b 532 1204 425 1247 469 1204 b 639 1309 594 1204 639 1247 l 728 1309 b 532 1117 728 1202 642 1117 "},"Ő":{"ha":1062,"x_min":0,"x_max":0,"o":"m 532 -14 b 83 505 273 -14 83 184 b 532 1024 83 825 273 1024 b 979 505 791 1024 979 825 b 532 -14 979 184 791 -14 m 532 106 b 854 505 712 106 854 246 b 532 905 854 764 712 905 b 208 505 350 905 208 764 b 532 106 208 247 350 106 m 592 1109 l 706 1309 l 842 1309 l 692 1109 m 370 1109 l 450 1309 l 585 1309 l 470 1109 "},"Ǒ":{"ha":1062,"x_min":0,"x_max":0,"o":"m 532 -14 b 83 505 273 -14 83 184 b 532 1024 83 825 273 1024 b 979 505 791 1024 979 825 b 532 -14 979 184 791 -14 m 532 106 b 854 505 712 106 854 246 b 532 905 854 764 712 905 b 208 505 350 905 208 764 b 532 106 208 247 350 106 m 532 1190 l 628 1309 l 749 1309 l 749 1303 l 589 1122 l 473 1122 l 314 1303 l 314 1309 l 434 1309 "},"Ǫ":{"ha":1062,"x_min":0,"x_max":0,"o":"m 572 -296 b 412 -164 484 -296 412 -249 b 520 -14 412 -98 457 -54 b 83 505 267 -7 83 189 b 532 1024 83 825 273 1024 b 979 505 791 1024 979 825 b 868 144 979 334 932 222 b 806 80 849 120 828 99 b 535 -140 681 -26 535 -54 b 591 -193 535 -173 553 -193 b 654 -174 616 -193 637 -184 l 694 -262 b 572 -296 667 -277 627 -296 m 532 106 b 854 505 712 106 854 246 b 532 905 854 764 712 905 b 208 505 350 905 208 764 b 532 106 208 247 350 106 "},"Ǭ":{"ha":1062,"x_min":0,"x_max":0,"o":"m 572 -296 b 412 -164 484 -296 412 -249 b 520 -14 412 -98 457 -54 b 83 505 267 -7 83 189 b 532 1024 83 825 273 1024 b 979 505 791 1024 979 825 b 868 144 979 334 932 222 b 806 80 849 120 828 99 b 535 -140 681 -26 535 -54 b 591 -193 535 -173 553 -193 b 654 -174 616 -193 637 -184 l 694 -262 b 572 -296 667 -277 627 -296 m 532 106 b 854 505 712 106 854 246 b 532 905 854 764 712 905 b 208 505 350 905 208 764 b 532 106 208 247 350 106 m 720 1167 l 344 1167 l 344 1263 l 720 1263 "},"Ȍ":{"ha":1062,"x_min":0,"x_max":0,"o":"m 532 -14 b 83 505 273 -14 83 184 b 532 1024 83 825 273 1024 b 979 505 791 1024 979 825 b 532 -14 979 184 791 -14 m 532 106 b 854 505 712 106 854 246 b 532 905 854 764 712 905 b 208 505 350 905 208 764 b 532 106 208 247 350 106 m 221 1309 l 357 1309 l 471 1109 l 371 1109 m 478 1309 l 614 1309 l 693 1109 l 593 1109 "},"Ȏ":{"ha":1062,"x_min":0,"x_max":0,"o":"m 532 -14 b 83 505 273 -14 83 184 b 532 1024 83 825 273 1024 b 979 505 791 1024 979 825 b 532 -14 979 184 791 -14 m 532 106 b 854 505 712 106 854 246 b 532 905 854 764 712 905 b 208 505 350 905 208 764 b 532 106 208 247 350 106 m 532 1326 b 739 1122 650 1326 739 1236 l 649 1122 b 532 1235 649 1188 594 1235 b 414 1122 469 1235 414 1188 l 325 1122 b 532 1326 325 1236 413 1326 "},"Ȫ":{"ha":1062,"x_min":0,"x_max":0,"o":"m 532 -14 b 83 505 273 -14 83 184 b 532 1024 83 825 273 1024 b 979 505 791 1024 979 825 b 532 -14 979 184 791 -14 m 532 106 b 854 505 712 106 854 246 b 532 905 854 764 712 905 b 208 505 350 905 208 764 b 532 106 208 247 350 106 m 720 1373 l 345 1373 l 345 1460 l 720 1460 m 393 1116 b 312 1196 348 1116 312 1152 b 393 1276 312 1240 348 1276 b 473 1196 437 1276 473 1240 b 393 1116 473 1152 437 1116 m 678 1116 b 597 1196 633 1116 597 1152 b 678 1276 597 1240 633 1276 b 758 1196 722 1276 758 1240 b 678 1116 758 1152 722 1116 "},"Ȭ":{"ha":1062,"x_min":0,"x_max":0,"o":"m 532 -14 b 83 505 273 -14 83 184 b 532 1024 83 825 273 1024 b 979 505 791 1024 979 825 b 532 -14 979 184 791 -14 m 532 106 b 854 505 712 106 854 246 b 532 905 854 764 712 905 b 208 505 350 905 208 764 b 532 106 208 247 350 106 m 624 1124 b 459 1181 557 1124 494 1181 b 423 1127 435 1181 425 1154 l 338 1127 b 448 1268 340 1208 375 1268 b 611 1211 518 1268 566 1211 b 649 1265 633 1211 644 1226 l 732 1265 b 624 1124 730 1180 690 1124 m 720 1373 l 345 1373 l 345 1460 l 720 1460 "},"Ȯ":{"ha":1062,"x_min":0,"x_max":0,"o":"m 532 -14 b 83 505 273 -14 83 184 b 532 1024 83 825 273 1024 b 979 505 791 1024 979 825 b 532 -14 979 184 791 -14 m 532 106 b 854 505 712 106 854 246 b 532 905 854 764 712 905 b 208 505 350 905 208 764 b 532 106 208 247 350 106 m 532 1135 b 447 1215 486 1135 447 1171 b 532 1296 447 1260 486 1296 b 617 1215 578 1296 617 1260 b 532 1135 617 1171 578 1135 "},"Ȱ":{"ha":1062,"x_min":0,"x_max":0,"o":"m 532 -14 b 83 505 273 -14 83 184 b 532 1024 83 825 273 1024 b 979 505 791 1024 979 825 b 532 -14 979 184 791 -14 m 532 106 b 854 505 712 106 854 246 b 532 905 854 764 712 905 b 208 505 350 905 208 764 b 532 106 208 247 350 106 m 720 1373 l 345 1373 l 345 1460 l 720 1460 m 534 1116 b 449 1196 488 1116 449 1152 b 534 1277 449 1241 488 1277 b 619 1196 581 1277 619 1241 b 534 1116 619 1152 581 1116 "},"Ṍ":{"ha":1062,"x_min":0,"x_max":0,"o":"m 532 -14 b 83 505 273 -14 83 184 b 532 1024 83 825 273 1024 b 979 505 791 1024 979 825 b 532 -14 979 184 791 -14 m 532 106 b 854 505 712 106 854 246 b 532 905 854 764 712 905 b 208 505 350 905 208 764 b 532 106 208 247 350 106 m 624 1124 b 459 1181 557 1124 494 1181 b 423 1127 435 1181 425 1154 l 338 1127 b 448 1268 340 1208 375 1268 b 611 1211 518 1268 566 1211 b 649 1265 633 1211 644 1226 l 732 1265 b 624 1124 730 1180 690 1124 m 572 1535 l 708 1535 l 576 1348 l 477 1348 "},"Ṏ":{"ha":1062,"x_min":0,"x_max":0,"o":"m 532 -14 b 83 505 273 -14 83 184 b 532 1024 83 825 273 1024 b 979 505 791 1024 979 825 b 532 -14 979 184 791 -14 m 532 106 b 854 505 712 106 854 246 b 532 905 854 764 712 905 b 208 505 350 905 208 764 b 532 106 208 247 350 106 m 624 1124 b 459 1181 557 1124 494 1181 b 423 1127 435 1181 425 1154 l 338 1127 b 448 1268 340 1208 375 1268 b 611 1211 518 1268 566 1211 b 649 1265 633 1211 644 1226 l 732 1265 b 624 1124 730 1180 690 1124 m 393 1336 b 312 1417 348 1336 312 1373 b 393 1497 312 1461 348 1497 b 473 1417 437 1497 473 1461 b 393 1336 473 1373 437 1336 m 678 1336 b 597 1417 633 1336 597 1373 b 678 1497 597 1461 633 1497 b 758 1417 722 1497 758 1461 b 678 1336 758 1373 722 1336 "},"Ṑ":{"ha":1062,"x_min":0,"x_max":0,"o":"m 532 -14 b 83 505 273 -14 83 184 b 532 1024 83 825 273 1024 b 979 505 791 1024 979 825 b 532 -14 979 184 791 -14 m 532 106 b 854 505 712 106 854 246 b 532 905 854 764 712 905 b 208 505 350 905 208 764 b 532 106 208 247 350 106 m 720 1148 l 345 1148 l 345 1244 l 720 1244 m 357 1535 l 493 1535 l 588 1348 l 488 1348 "},"Ṓ":{"ha":1062,"x_min":0,"x_max":0,"o":"m 532 -14 b 83 505 273 -14 83 184 b 532 1024 83 825 273 1024 b 979 505 791 1024 979 825 b 532 -14 979 184 791 -14 m 532 106 b 854 505 712 106 854 246 b 532 905 854 764 712 905 b 208 505 350 905 208 764 b 532 106 208 247 350 106 m 720 1148 l 345 1148 l 345 1244 l 720 1244 m 579 1535 l 715 1535 l 584 1348 l 484 1348 "},"Ọ":{"ha":1062,"x_min":0,"x_max":0,"o":"m 532 -14 b 83 505 273 -14 83 184 b 532 1024 83 825 273 1024 b 979 505 791 1024 979 825 b 532 -14 979 184 791 -14 m 532 106 b 854 505 712 106 854 246 b 532 905 854 764 712 905 b 208 505 350 905 208 764 b 532 106 208 247 350 106 m 534 -286 b 449 -205 488 -286 449 -250 b 534 -124 449 -160 488 -124 b 619 -205 581 -124 619 -160 b 534 -286 619 -250 581 -286 "},"Ỏ":{"ha":1062,"x_min":0,"x_max":0,"o":"m 532 -14 b 83 505 273 -14 83 184 b 532 1024 83 825 273 1024 b 979 505 791 1024 979 825 b 532 -14 979 184 791 -14 m 532 106 b 854 505 712 106 854 246 b 532 905 854 764 712 905 b 208 505 350 905 208 764 b 532 106 208 247 350 106 m 479 1109 l 528 1202 b 513 1229 537 1221 531 1229 l 418 1229 l 418 1309 l 513 1309 b 608 1168 625 1309 656 1244 l 572 1109 "},"Ố":{"ha":1062,"x_min":0,"x_max":0,"o":"m 532 -14 b 83 505 273 -14 83 184 b 532 1024 83 825 273 1024 b 979 505 791 1024 979 825 b 532 -14 979 184 791 -14 m 532 106 b 854 505 712 106 854 246 b 532 905 854 764 712 905 b 208 505 350 905 208 764 b 532 106 208 247 350 106 m 319 1103 l 319 1109 l 478 1290 l 594 1290 l 754 1109 l 754 1103 l 633 1103 l 536 1221 l 439 1103 m 723 1535 l 859 1535 l 728 1348 l 628 1348 "},"Ồ":{"ha":1062,"x_min":0,"x_max":0,"o":"m 532 -14 b 83 505 273 -14 83 184 b 532 1024 83 825 273 1024 b 979 505 791 1024 979 825 b 532 -14 979 184 791 -14 m 532 106 b 854 505 712 106 854 246 b 532 905 854 764 712 905 b 208 505 350 905 208 764 b 532 106 208 247 350 106 m 319 1103 l 319 1109 l 478 1290 l 594 1290 l 754 1109 l 754 1103 l 633 1103 l 536 1221 l 439 1103 m 530 1535 l 667 1535 l 762 1348 l 661 1348 "},"Ổ":{"ha":1062,"x_min":0,"x_max":0,"o":"m 532 -14 b 83 505 273 -14 83 184 b 532 1024 83 825 273 1024 b 979 505 791 1024 979 825 b 532 -14 979 184 791 -14 m 532 106 b 854 505 712 106 854 246 b 532 905 854 764 712 905 b 208 505 350 905 208 764 b 532 106 208 247 350 106 m 319 1103 l 319 1109 l 478 1290 l 594 1290 l 754 1109 l 754 1103 l 633 1103 l 536 1221 l 439 1103 m 625 1348 l 667 1428 b 652 1455 677 1447 671 1455 l 558 1455 l 558 1535 l 652 1535 b 748 1394 764 1535 799 1469 l 717 1348 "},"Ỗ":{"ha":1062,"x_min":0,"x_max":0,"o":"m 532 -14 b 83 505 273 -14 83 184 b 532 1024 83 825 273 1024 b 979 505 791 1024 979 825 b 532 -14 979 184 791 -14 m 532 106 b 854 505 712 106 854 246 b 532 905 854 764 712 905 b 208 505 350 905 208 764 b 532 106 208 247 350 106 m 319 1103 l 319 1109 l 478 1290 l 594 1290 l 754 1109 l 754 1103 l 633 1103 l 536 1221 l 439 1103 m 624 1367 b 459 1423 557 1367 494 1423 b 423 1369 435 1423 425 1396 l 338 1369 b 448 1510 340 1451 375 1510 b 611 1453 518 1510 566 1453 b 649 1508 633 1453 644 1468 l 732 1508 b 624 1367 730 1422 690 1367 "},"Ộ":{"ha":1062,"x_min":0,"x_max":0,"o":"m 532 -14 b 83 505 273 -14 83 184 b 532 1024 83 825 273 1024 b 979 505 791 1024 979 825 b 532 -14 979 184 791 -14 m 532 106 b 854 505 712 106 854 246 b 532 905 854 764 712 905 b 208 505 350 905 208 764 b 532 106 208 247 350 106 m 314 1122 l 314 1128 l 473 1309 l 589 1309 l 749 1128 l 749 1122 l 628 1122 l 532 1240 l 434 1122 m 534 -286 b 449 -205 488 -286 449 -250 b 534 -124 449 -160 488 -124 b 619 -205 581 -124 619 -160 b 534 -286 619 -250 581 -286 "},"Ớ":{"ha":1058,"x_min":0,"x_max":0,"o":"m 532 -14 b 83 505 273 -14 83 184 b 529 1024 83 824 271 1023 b 530 1024 530 1024 530 1024 b 532 1024 531 1024 531 1024 b 536 1024 533 1024 535 1024 b 848 1010 635 1023 623 1010 b 860 1023 855 1010 860 1015 l 860 1152 l 975 1152 l 975 1028 b 860 913 975 951 937 913 b 823 916 846 913 834 913 b 979 505 920 826 979 684 b 532 -14 979 184 791 -14 m 532 106 b 854 505 712 106 854 246 b 532 905 854 764 712 905 b 208 505 350 905 208 764 b 532 106 208 247 350 106 m 573 1309 l 709 1309 l 578 1109 l 478 1109 "},"Ờ":{"ha":1058,"x_min":0,"x_max":0,"o":"m 532 -14 b 83 505 273 -14 83 184 b 529 1024 83 824 271 1023 b 530 1024 530 1024 530 1024 b 532 1024 531 1024 531 1024 b 536 1024 533 1024 535 1024 b 848 1010 635 1023 623 1010 b 860 1023 855 1010 860 1015 l 860 1152 l 975 1152 l 975 1028 b 860 913 975 951 937 913 b 823 916 846 913 834 913 b 979 505 920 826 979 684 b 532 -14 979 184 791 -14 m 532 106 b 854 505 712 106 854 246 b 532 905 854 764 712 905 b 208 505 350 905 208 764 b 532 106 208 247 350 106 m 353 1309 l 489 1309 l 584 1109 l 484 1109 "},"Ở":{"ha":1058,"x_min":0,"x_max":0,"o":"m 532 -14 b 83 505 273 -14 83 184 b 529 1024 83 824 271 1023 b 530 1024 530 1024 530 1024 b 532 1024 531 1024 531 1024 b 536 1024 533 1024 535 1024 b 848 1010 635 1023 623 1010 b 860 1023 855 1010 860 1015 l 860 1152 l 975 1152 l 975 1028 b 860 913 975 951 937 913 b 823 916 846 913 834 913 b 979 505 920 826 979 684 b 532 -14 979 184 791 -14 m 532 106 b 854 505 712 106 854 246 b 532 905 854 764 712 905 b 208 505 350 905 208 764 b 532 106 208 247 350 106 m 479 1109 l 528 1202 b 513 1229 537 1221 531 1229 l 418 1229 l 418 1309 l 513 1309 b 608 1168 625 1309 656 1244 l 572 1109 "},"Ỡ":{"ha":1058,"x_min":0,"x_max":0,"o":"m 532 -14 b 83 505 273 -14 83 184 b 529 1024 83 824 271 1023 b 530 1024 530 1024 530 1024 b 532 1024 531 1024 531 1024 b 536 1024 533 1024 535 1024 b 848 1010 635 1023 623 1010 b 860 1023 855 1010 860 1015 l 860 1152 l 975 1152 l 975 1028 b 860 913 975 951 937 913 b 823 916 846 913 834 913 b 979 505 920 826 979 684 b 532 -14 979 184 791 -14 m 532 106 b 854 505 712 106 854 246 b 532 905 854 764 712 905 b 208 505 350 905 208 764 b 532 106 208 247 350 106 m 621 1143 b 456 1199 553 1143 490 1199 b 420 1145 432 1199 421 1172 l 334 1145 b 444 1286 337 1227 372 1286 b 608 1229 515 1286 562 1229 b 646 1284 630 1229 641 1244 l 729 1284 b 621 1143 726 1198 687 1143 "},"Ợ":{"ha":1058,"x_min":0,"x_max":0,"o":"m 532 -14 b 83 505 273 -14 83 184 b 529 1024 83 824 271 1023 b 530 1024 530 1024 530 1024 b 532 1024 531 1024 531 1024 b 536 1024 533 1024 535 1024 b 848 1010 635 1023 623 1010 b 860 1023 855 1010 860 1015 l 860 1152 l 975 1152 l 975 1028 b 860 913 975 951 937 913 b 823 916 846 913 834 913 b 979 505 920 826 979 684 b 532 -14 979 184 791 -14 m 532 106 b 854 505 712 106 854 246 b 532 905 854 764 712 905 b 208 505 350 905 208 764 b 532 106 208 247 350 106 m 534 -286 b 449 -205 488 -286 449 -250 b 534 -124 449 -160 488 -124 b 619 -205 581 -124 619 -160 b 534 -286 619 -250 581 -286 "},"Ǿ":{"ha":1062,"x_min":0,"x_max":0,"o":"m 532 -14 b 286 58 439 -14 355 12 l 224 -31 l 136 30 l 205 130 b 83 505 128 220 83 347 b 532 1024 83 825 273 1024 b 777 951 624 1024 708 999 l 840 1042 l 928 981 l 857 880 b 979 505 934 790 979 662 b 532 -14 979 184 791 -14 m 707 851 b 532 905 656 886 597 905 b 208 505 350 905 208 764 b 280 237 208 393 235 303 m 532 106 b 854 505 712 106 854 246 b 783 772 854 616 827 707 l 356 159 b 532 106 406 124 467 106 m 573 1309 l 709 1309 l 578 1109 l 478 1109 "},"Ο":{"ha":1062,"x_min":0,"x_max":0,"o":"m 532 -14 b 83 505 273 -14 83 184 b 532 1024 83 825 273 1024 b 979 505 791 1024 979 825 b 532 -14 979 184 791 -14 m 532 106 b 854 505 712 106 854 246 b 532 905 854 764 712 905 b 208 505 350 905 208 764 b 532 106 208 247 350 106 "},"Ό":{"ha":1197,"x_min":0,"x_max":0,"o":"m 667 -14 b 218 505 408 -14 218 184 b 667 1024 218 825 408 1024 b 1114 505 926 1024 1114 825 b 667 -14 1114 184 926 -14 m 667 106 b 989 505 847 106 989 246 b 667 905 989 764 847 905 b 343 505 485 905 343 764 b 667 106 343 247 485 106 m 90 1010 l 220 1010 l 151 811 l 66 811 "},"Ὀ":{"ha":1241,"x_min":0,"x_max":0,"o":"m 711 -14 b 262 505 452 -14 262 184 b 711 1024 262 825 452 1024 b 1158 505 970 1024 1158 825 b 711 -14 1158 184 970 -14 m 711 106 b 1033 505 891 106 1033 246 b 711 905 1033 764 891 905 b 387 505 529 905 387 764 b 711 106 387 247 529 106 m 83 827 l 83 876 l 92 876 b 161 924 138 876 161 892 b 92 966 161 952 138 966 l 66 966 l 66 1039 l 92 1039 b 252 935 199 1039 252 1004 b 92 827 252 863 199 827 "},"Ὁ":{"ha":1246,"x_min":0,"x_max":0,"o":"m 716 -14 b 267 505 457 -14 267 184 b 716 1024 267 825 457 1024 b 1164 505 975 1024 1164 825 b 716 -14 1164 184 975 -14 m 716 106 b 1038 505 897 106 1038 246 b 716 905 1038 764 897 905 b 393 505 534 905 393 764 b 716 106 393 247 534 106 m 227 805 b 66 913 120 805 66 841 b 227 1017 66 983 120 1017 l 252 1017 l 252 945 l 227 945 b 158 903 181 945 158 930 b 227 854 158 870 181 854 l 236 854 l 236 805 l 227 805 "},"Ὂ":{"ha":1461,"x_min":0,"x_max":0,"o":"m 930 -14 b 481 505 671 -14 481 184 b 930 1024 481 825 671 1024 b 1378 505 1190 1024 1378 825 b 930 -14 1378 184 1190 -14 m 930 106 b 1253 505 1111 106 1253 246 b 930 905 1253 764 1111 905 b 607 505 749 905 607 764 b 930 106 607 247 749 106 m 83 805 l 83 854 l 92 854 b 161 903 138 854 161 870 b 92 945 161 930 138 945 l 66 945 l 66 1017 l 92 1017 b 252 913 199 1017 252 983 b 92 805 252 841 199 805 m 354 811 l 285 1010 l 416 1010 l 439 811 "},"Ὃ":{"ha":1477,"x_min":0,"x_max":0,"o":"m 947 -14 b 498 505 688 -14 498 184 b 947 1024 498 825 688 1024 b 1394 505 1206 1024 1394 825 b 947 -14 1394 184 1206 -14 m 947 106 b 1269 505 1127 106 1269 246 b 947 905 1269 764 1127 905 b 623 505 765 905 623 764 b 947 106 623 247 765 106 m 227 805 b 66 913 120 805 66 841 b 227 1017 66 983 120 1017 l 252 1017 l 252 945 l 227 945 b 158 903 181 945 158 930 b 227 854 158 870 181 854 l 236 854 l 236 805 l 227 805 m 376 811 l 307 1010 l 437 1010 l 460 811 "},"Ὄ":{"ha":1463,"x_min":0,"x_max":0,"o":"m 933 -14 b 484 505 674 -14 484 184 b 933 1024 484 825 674 1024 b 1381 505 1192 1024 1381 825 b 933 -14 1381 184 1192 -14 m 933 106 b 1255 505 1114 106 1255 246 b 933 905 1255 764 1114 905 b 610 505 751 905 610 764 b 933 106 610 247 751 106 m 83 805 l 83 854 l 92 854 b 161 903 138 854 161 870 b 92 945 161 930 138 945 l 66 945 l 66 1017 l 92 1017 b 252 913 199 1017 252 983 b 92 805 252 841 199 805 m 358 1010 l 489 1010 l 420 811 l 335 811 "},"Ὅ":{"ha":1469,"x_min":0,"x_max":0,"o":"m 939 -14 b 490 505 680 -14 490 184 b 939 1024 490 825 680 1024 b 1386 505 1198 1024 1386 825 b 939 -14 1386 184 1198 -14 m 939 106 b 1261 505 1119 106 1261 246 b 939 905 1261 764 1119 905 b 615 505 757 905 615 764 b 939 106 615 247 757 106 m 227 805 b 66 913 120 805 66 841 b 227 1017 66 983 120 1017 l 252 1017 l 252 945 l 227 945 b 158 903 181 945 158 930 b 227 854 158 870 181 854 l 236 854 l 236 805 l 227 805 m 363 1010 l 494 1010 l 425 811 l 340 811 "},"Ὸ":{"ha":1062,"x_min":0,"x_max":0,"o":"m 532 -14 b 83 505 273 -14 83 184 b 532 1024 83 825 273 1024 b 979 505 791 1024 979 825 b 532 -14 979 184 791 -14 m 532 106 b 854 505 712 106 854 246 b 532 905 854 764 712 905 b 208 505 350 905 208 764 b 532 106 208 247 350 106 m -81 857 l -151 1057 l -20 1057 l 3 857 "},"ϴ":{"ha":1062,"x_min":0,"x_max":0,"o":"m 532 -14 b 83 505 273 -14 83 184 b 532 1024 83 825 273 1024 b 979 505 791 1024 979 825 b 532 -14 979 184 791 -14 m 852 559 b 532 905 833 784 699 905 b 210 559 363 905 229 783 m 532 106 b 852 450 699 106 833 227 l 210 450 b 532 106 229 227 363 106 "},"Ό":{"ha":1197,"x_min":0,"x_max":0,"o":"m 667 -14 b 218 505 408 -14 218 184 b 667 1024 218 825 408 1024 b 1114 505 926 1024 1114 825 b 667 -14 1114 184 926 -14 m 667 106 b 989 505 847 106 989 246 b 667 905 989 764 847 905 b 343 505 485 905 343 764 b 667 106 343 247 485 106 m 90 1010 l 220 1010 l 151 811 l 66 811 "},"О":{"ha":1062,"x_min":0,"x_max":0,"o":"m 532 -14 b 83 505 273 -14 83 184 b 532 1024 83 825 273 1024 b 979 505 791 1024 979 825 b 532 -14 979 184 791 -14 m 532 106 b 854 505 712 106 854 246 b 532 905 854 764 712 905 b 208 505 350 905 208 764 b 532 106 208 247 350 106 "},"Ӧ":{"ha":1062,"x_min":0,"x_max":0,"o":"m 532 -14 b 83 505 273 -14 83 184 b 532 1024 83 825 273 1024 b 979 505 791 1024 979 825 b 532 -14 979 184 791 -14 m 532 106 b 854 505 712 106 854 246 b 532 905 854 764 712 905 b 208 505 350 905 208 764 b 532 106 208 247 350 106 m 389 1135 b 309 1215 345 1135 309 1171 b 389 1295 309 1259 345 1295 b 469 1215 433 1295 469 1259 b 389 1135 469 1171 433 1135 m 675 1135 b 594 1215 630 1135 594 1171 b 675 1295 594 1259 630 1295 b 755 1215 719 1295 755 1259 b 675 1135 755 1171 719 1135 "},"Ɵ":{"ha":1062,"x_min":0,"x_max":0,"o":"m 532 -14 b 83 505 273 -14 83 184 b 532 1024 83 825 273 1024 b 979 505 791 1024 979 825 b 532 -14 979 184 791 -14 m 852 559 b 532 905 833 784 699 905 b 210 559 363 905 229 783 m 532 106 b 852 450 699 106 833 227 l 210 450 b 532 106 229 227 363 106 "},"Ө":{"ha":1062,"x_min":0,"x_max":0,"o":"m 532 -14 b 83 505 273 -14 83 184 b 532 1024 83 825 273 1024 b 979 505 791 1024 979 825 b 532 -14 979 184 791 -14 m 852 559 b 532 905 833 784 699 905 b 210 559 363 905 229 783 m 532 106 b 852 450 699 106 833 227 l 210 450 b 532 106 229 227 363 106 "},"Ӫ":{"ha":1062,"x_min":0,"x_max":0,"o":"m 532 -14 b 83 505 273 -14 83 184 b 532 1024 83 825 273 1024 b 979 505 791 1024 979 825 b 532 -14 979 184 791 -14 m 852 559 b 532 905 833 784 699 905 b 210 559 363 905 229 783 m 532 106 b 852 450 699 106 833 227 l 210 450 b 532 106 229 227 363 106 m 389 1135 b 309 1215 345 1135 309 1171 b 389 1295 309 1259 345 1295 b 469 1215 433 1295 469 1259 b 389 1135 469 1171 433 1135 m 675 1135 b 594 1215 630 1135 594 1171 b 675 1295 594 1259 630 1295 b 755 1215 719 1295 755 1259 b 675 1135 755 1171 719 1135 "},"Œ":{"ha":1396,"x_min":0,"x_max":0,"o":"m 536 0 b 83 505 270 0 83 203 b 536 1010 83 809 270 1010 l 1299 1010 l 1299 897 l 812 897 l 812 567 l 1265 567 l 1265 453 l 812 453 l 812 114 l 1305 114 l 1305 0 l 536 0 m 683 897 l 536 897 b 208 505 341 897 208 744 b 536 114 208 269 341 114 l 683 114 "},"P":{"ha":887,"x_min":0,"x_max":0,"o":"m 122 1010 l 468 1010 b 812 689 704 1010 812 869 b 469 366 812 509 704 366 l 251 366 l 251 0 l 122 0 m 463 479 b 684 689 623 479 684 569 b 461 897 684 808 623 897 l 251 897 l 251 479 "},"Ṕ":{"ha":887,"x_min":0,"x_max":0,"o":"m 122 1010 l 468 1010 b 812 689 704 1010 812 869 b 469 366 812 509 704 366 l 251 366 l 251 0 l 122 0 m 463 479 b 684 689 623 479 684 569 b 461 897 684 808 623 897 l 251 897 l 251 479 m 484 1309 l 620 1309 l 488 1109 l 389 1109 "},"Ṗ":{"ha":887,"x_min":0,"x_max":0,"o":"m 122 1010 l 468 1010 b 812 689 704 1010 812 869 b 469 366 812 509 704 366 l 251 366 l 251 0 l 122 0 m 463 479 b 684 689 623 479 684 569 b 461 897 684 808 623 897 l 251 897 l 251 479 m 442 1135 b 357 1215 396 1135 357 1171 b 442 1296 357 1260 396 1296 b 528 1215 489 1296 528 1260 b 442 1135 528 1171 489 1135 "},"Ҏ":{"ha":882,"x_min":0,"x_max":0,"o":"m 122 1010 l 468 1010 b 812 689 704 1010 812 869 b 701 434 812 585 777 493 l 765 335 l 674 277 l 604 385 b 469 366 565 372 519 366 l 251 366 l 251 0 l 122 0 m 633 538 b 684 689 669 576 684 629 b 461 897 684 808 623 897 l 251 897 l 251 479 l 463 479 b 537 487 490 479 515 481 l 469 591 l 560 650 "},"Ƥ":{"ha":1077,"x_min":0,"x_max":0,"o":"m 41 806 b 250 1010 41 943 110 1010 l 658 1010 b 1002 689 894 1010 1002 869 b 659 366 1002 509 894 366 l 441 366 l 441 0 l 312 0 l 312 897 l 250 897 b 161 804 189 897 161 869 l 161 755 l 41 755 m 652 479 b 874 689 812 479 874 569 b 651 897 874 808 812 897 l 441 897 l 441 479 "},"Ρ":{"ha":887,"x_min":0,"x_max":0,"o":"m 122 1010 l 468 1010 b 812 689 704 1010 812 869 b 469 366 812 509 704 366 l 251 366 l 251 0 l 122 0 m 463 479 b 684 689 623 479 684 569 b 461 897 684 808 623 897 l 251 897 l 251 479 "},"Ῥ":{"ha":1149,"x_min":0,"x_max":0,"o":"m 385 1010 l 730 1010 b 1075 689 966 1010 1075 869 b 731 366 1075 509 966 366 l 513 366 l 513 0 l 385 0 m 725 479 b 947 689 885 479 947 569 b 724 897 947 808 885 897 l 513 897 l 513 479 m 227 805 b 66 913 120 805 66 841 b 227 1017 66 983 120 1017 l 252 1017 l 252 945 l 227 945 b 158 903 181 945 158 930 b 227 854 158 870 181 854 l 236 854 l 236 805 l 227 805 "},"Q":{"ha":1062,"x_min":0,"x_max":0,"o":"m 532 -14 b 83 505 273 -14 83 184 b 532 1024 83 825 273 1024 b 979 505 791 1024 979 825 b 803 78 979 313 912 166 l 933 -95 l 799 -95 l 711 22 b 532 -14 657 -1 597 -14 m 624 316 l 730 177 b 854 505 806 243 854 354 b 532 905 854 764 712 905 b 208 505 350 905 208 764 b 532 106 208 247 350 106 b 636 123 568 106 604 112 l 490 316 "},"Ɋ":{"ha":1062,"x_min":0,"x_max":0,"o":"m 940 -116 b 1046 -184 940 -163 970 -184 b 1086 -182 1057 -184 1072 -184 l 1086 -283 b 1015 -290 1072 -287 1044 -290 b 818 -116 886 -290 818 -229 l 818 159 l 810 159 b 511 -16 758 48 647 -16 b 83 509 258 -16 83 201 b 511 1024 83 808 257 1024 b 810 855 649 1024 760 960 l 818 855 l 818 1010 l 940 1010 m 514 106 b 819 507 732 106 819 281 b 515 907 819 728 722 907 b 211 507 331 907 211 740 b 514 106 211 260 336 106 "},"R":{"ha":894,"x_min":0,"x_max":0,"o":"m 122 1010 l 468 1010 b 812 699 704 1010 812 879 b 625 416 812 564 753 460 l 852 0 l 703 0 l 492 393 b 469 392 484 392 477 392 l 251 392 l 251 0 l 122 0 m 463 507 b 684 699 622 507 684 580 b 461 897 684 819 622 897 l 251 897 l 251 507 "},"Ŕ":{"ha":894,"x_min":0,"x_max":0,"o":"m 122 1010 l 468 1010 b 812 699 704 1010 812 879 b 625 416 812 564 753 460 l 852 0 l 703 0 l 492 393 b 469 392 484 392 477 392 l 251 392 l 251 0 l 122 0 m 463 507 b 684 699 622 507 684 580 b 461 897 684 819 622 897 l 251 897 l 251 507 m 483 1309 l 619 1309 l 488 1109 l 388 1109 "},"Ŗ":{"ha":894,"x_min":0,"x_max":0,"o":"m 122 1010 l 468 1010 b 812 699 704 1010 812 879 b 625 416 812 564 753 460 l 852 0 l 703 0 l 492 393 b 469 392 484 392 477 392 l 251 392 l 251 0 l 122 0 m 463 507 b 684 699 622 507 684 580 b 461 897 684 819 622 897 l 251 897 l 251 507 m 395 -80 l 520 -80 l 434 -334 l 340 -334 "},"Ř":{"ha":894,"x_min":0,"x_max":0,"o":"m 122 1010 l 468 1010 b 812 699 704 1010 812 879 b 625 416 812 564 753 460 l 852 0 l 703 0 l 492 393 b 469 392 484 392 477 392 l 251 392 l 251 0 l 122 0 m 463 507 b 684 699 622 507 684 580 b 461 897 684 819 622 897 l 251 897 l 251 507 m 441 1190 l 538 1309 l 659 1309 l 659 1303 l 499 1122 l 383 1122 l 224 1303 l 224 1309 l 344 1309 "},"Ȑ":{"ha":894,"x_min":0,"x_max":0,"o":"m 122 1010 l 468 1010 b 812 699 704 1010 812 879 b 625 416 812 564 753 460 l 852 0 l 703 0 l 492 393 b 469 392 484 392 477 392 l 251 392 l 251 0 l 122 0 m 463 507 b 684 699 622 507 684 580 b 461 897 684 819 622 897 l 251 897 l 251 507 m 131 1309 l 267 1309 l 381 1109 l 281 1109 m 388 1309 l 524 1309 l 603 1109 l 503 1109 "},"Ȓ":{"ha":894,"x_min":0,"x_max":0,"o":"m 122 1010 l 468 1010 b 812 699 704 1010 812 879 b 625 416 812 564 753 460 l 852 0 l 703 0 l 492 393 b 469 392 484 392 477 392 l 251 392 l 251 0 l 122 0 m 463 507 b 684 699 622 507 684 580 b 461 897 684 819 622 897 l 251 897 l 251 507 m 441 1326 b 648 1122 560 1326 648 1236 l 559 1122 b 441 1235 559 1188 504 1235 b 324 1122 379 1235 324 1188 l 235 1122 b 441 1326 235 1236 323 1326 "},"Ṙ":{"ha":894,"x_min":0,"x_max":0,"o":"m 122 1010 l 468 1010 b 812 699 704 1010 812 879 b 625 416 812 564 753 460 l 852 0 l 703 0 l 492 393 b 469 392 484 392 477 392 l 251 392 l 251 0 l 122 0 m 463 507 b 684 699 622 507 684 580 b 461 897 684 819 622 897 l 251 897 l 251 507 m 441 1135 b 357 1215 395 1135 357 1171 b 441 1296 357 1260 395 1296 b 527 1215 488 1296 527 1260 b 441 1135 527 1171 488 1135 "},"Ṛ":{"ha":894,"x_min":0,"x_max":0,"o":"m 122 1010 l 468 1010 b 812 699 704 1010 812 879 b 625 416 812 564 753 460 l 852 0 l 703 0 l 492 393 b 469 392 484 392 477 392 l 251 392 l 251 0 l 122 0 m 463 507 b 684 699 622 507 684 580 b 461 897 684 819 622 897 l 251 897 l 251 507 m 461 -286 b 376 -205 415 -286 376 -250 b 461 -124 376 -160 415 -124 b 547 -205 508 -124 547 -160 b 461 -286 547 -250 508 -286 "},"Ṝ":{"ha":894,"x_min":0,"x_max":0,"o":"m 122 1010 l 468 1010 b 812 699 704 1010 812 879 b 625 416 812 564 753 460 l 852 0 l 703 0 l 492 393 b 469 392 484 392 477 392 l 251 392 l 251 0 l 122 0 m 463 507 b 684 699 622 507 684 580 b 461 897 684 819 622 897 l 251 897 l 251 507 m 629 1167 l 254 1167 l 254 1263 l 629 1263 m 461 -286 b 376 -205 415 -286 376 -250 b 461 -124 376 -160 415 -124 b 547 -205 508 -124 547 -160 b 461 -286 547 -250 508 -286 "},"Ṟ":{"ha":894,"x_min":0,"x_max":0,"o":"m 122 1010 l 468 1010 b 812 699 704 1010 812 879 b 625 416 812 564 753 460 l 852 0 l 703 0 l 492 393 b 469 392 484 392 477 392 l 251 392 l 251 0 l 122 0 m 463 507 b 684 699 622 507 684 580 b 461 897 684 819 622 897 l 251 897 l 251 507 m 648 -253 l 272 -253 l 272 -157 l 648 -157 "},"℟":{"ha":888,"x_min":0,"x_max":0,"o":"m 627 985 b 812 699 753 939 812 832 b 625 416 812 564 753 460 l 852 0 l 703 0 l 492 393 b 469 392 484 392 477 392 l 459 392 l 281 -239 l 203 -222 l 378 392 l 251 392 l 251 0 l 122 0 l 122 1010 l 468 1010 b 552 1004 498 1010 526 1008 l 578 1095 l 363 1158 l 391 1232 l 671 1142 m 411 507 l 521 893 b 461 897 503 896 483 897 l 251 897 l 251 507 m 492 507 b 684 699 629 516 684 587 b 595 870 684 777 658 838 l 492 507 "},"℞":{"ha":960,"x_min":0,"x_max":0,"o":"m 464 1010 b 805 700 705 1010 805 869 b 605 413 805 555 734 458 l 675 318 l 767 444 l 906 444 l 745 222 l 908 0 l 762 0 l 673 123 l 584 0 l 441 0 l 603 220 l 479 391 l 251 391 l 251 0 l 122 0 l 122 1010 m 451 508 b 677 699 623 508 677 589 b 464 897 677 793 638 897 l 251 897 l 251 508 "},"Ɍ":{"ha":899,"x_min":0,"x_max":0,"o":"m 134 395 l 16 395 l 16 505 l 134 505 l 134 1010 l 480 1010 b 825 699 716 1010 825 879 b 637 416 825 564 765 460 l 864 0 l 715 0 l 505 393 b 481 392 496 392 489 392 l 263 392 l 263 0 l 134 0 m 475 507 b 696 699 634 507 696 580 b 473 897 696 819 634 897 l 263 897 l 263 507 "},"S":{"ha":891,"x_min":0,"x_max":0,"o":"m 446 -18 b 79 264 227 -18 90 95 l 211 264 b 446 98 221 150 327 98 b 687 277 583 98 687 170 b 487 441 687 375 595 411 l 365 476 b 107 740 202 522 107 606 b 454 1024 107 911 259 1024 b 799 755 654 1024 793 908 l 673 755 b 450 910 661 854 570 910 b 233 746 319 910 233 841 b 425 583 233 640 351 603 l 526 555 b 812 275 635 525 812 464 b 446 -18 812 110 679 -18 "},"Ś":{"ha":891,"x_min":0,"x_max":0,"o":"m 446 -18 b 79 264 227 -18 90 95 l 211 264 b 446 98 221 150 327 98 b 687 277 583 98 687 170 b 487 441 687 375 595 411 l 365 476 b 107 740 202 522 107 606 b 454 1024 107 911 259 1024 b 799 755 654 1024 793 908 l 673 755 b 450 910 661 854 570 910 b 233 746 319 910 233 841 b 425 583 233 640 351 603 l 526 555 b 812 275 635 525 812 464 b 446 -18 812 110 679 -18 m 486 1309 l 623 1309 l 491 1109 l 391 1109 "},"Ŝ":{"ha":891,"x_min":0,"x_max":0,"o":"m 446 -18 b 79 264 227 -18 90 95 l 211 264 b 446 98 221 150 327 98 b 687 277 583 98 687 170 b 487 441 687 375 595 411 l 365 476 b 107 740 202 522 107 606 b 454 1024 107 911 259 1024 b 799 755 654 1024 793 908 l 673 755 b 450 910 661 854 570 910 b 233 746 319 910 233 841 b 425 583 233 640 351 603 l 526 555 b 812 275 635 525 812 464 b 446 -18 812 110 679 -18 m 227 1122 l 227 1128 l 387 1309 l 503 1309 l 663 1128 l 663 1122 l 541 1122 l 445 1240 l 347 1122 "},"Ş":{"ha":891,"x_min":0,"x_max":0,"o":"m 371 -212 l 451 -212 b 517 -168 500 -212 517 -201 b 451 -123 517 -134 500 -123 l 395 -123 l 410 -16 b 79 264 212 -5 90 104 l 211 264 b 446 98 221 150 327 98 b 687 277 583 98 687 170 b 487 441 687 375 595 411 l 365 476 b 107 740 202 522 107 606 b 454 1024 107 911 259 1024 b 799 755 654 1024 793 908 l 673 755 b 450 910 661 854 570 910 b 233 746 319 910 233 841 b 425 583 233 640 351 603 l 526 555 b 812 275 635 525 812 464 b 480 -17 812 118 692 -5 l 480 -58 b 608 -168 568 -62 608 -95 b 452 -283 608 -248 560 -283 l 371 -283 "},"Š":{"ha":891,"x_min":0,"x_max":0,"o":"m 446 -18 b 79 264 227 -18 90 95 l 211 264 b 446 98 221 150 327 98 b 687 277 583 98 687 170 b 487 441 687 375 595 411 l 365 476 b 107 740 202 522 107 606 b 454 1024 107 911 259 1024 b 799 755 654 1024 793 908 l 673 755 b 450 910 661 854 570 910 b 233 746 319 910 233 841 b 425 583 233 640 351 603 l 526 555 b 812 275 635 525 812 464 b 446 -18 812 110 679 -18 m 445 1190 l 541 1309 l 663 1309 l 663 1303 l 503 1122 l 387 1122 l 227 1303 l 227 1309 l 347 1309 "},"Ș":{"ha":891,"x_min":0,"x_max":0,"o":"m 446 -18 b 79 264 227 -18 90 95 l 211 264 b 446 98 221 150 327 98 b 687 277 583 98 687 170 b 487 441 687 375 595 411 l 365 476 b 107 740 202 522 107 606 b 454 1024 107 911 259 1024 b 799 755 654 1024 793 908 l 673 755 b 450 910 661 854 570 910 b 233 746 319 910 233 841 b 425 583 233 640 351 603 l 526 555 b 812 275 635 525 812 464 b 446 -18 812 110 679 -18 m 382 -80 l 507 -80 l 421 -334 l 328 -334 "},"Ṡ":{"ha":891,"x_min":0,"x_max":0,"o":"m 446 -18 b 79 264 227 -18 90 95 l 211 264 b 446 98 221 150 327 98 b 687 277 583 98 687 170 b 487 441 687 375 595 411 l 365 476 b 107 740 202 522 107 606 b 454 1024 107 911 259 1024 b 799 755 654 1024 793 908 l 673 755 b 450 910 661 854 570 910 b 233 746 319 910 233 841 b 425 583 233 640 351 603 l 526 555 b 812 275 635 525 812 464 b 446 -18 812 110 679 -18 m 445 1135 b 360 1215 399 1135 360 1171 b 445 1296 360 1260 399 1296 b 530 1215 492 1296 530 1260 b 445 1135 530 1171 492 1135 "},"Ṣ":{"ha":891,"x_min":0,"x_max":0,"o":"m 446 -18 b 79 264 227 -18 90 95 l 211 264 b 446 98 221 150 327 98 b 687 277 583 98 687 170 b 487 441 687 375 595 411 l 365 476 b 107 740 202 522 107 606 b 454 1024 107 911 259 1024 b 799 755 654 1024 793 908 l 673 755 b 450 910 661 854 570 910 b 233 746 319 910 233 841 b 425 583 233 640 351 603 l 526 555 b 812 275 635 525 812 464 b 446 -18 812 110 679 -18 m 448 -286 b 363 -205 402 -286 363 -250 b 448 -124 363 -160 402 -124 b 534 -205 495 -124 534 -160 b 448 -286 534 -250 495 -286 "},"Ṥ":{"ha":891,"x_min":0,"x_max":0,"o":"m 446 -18 b 79 264 227 -18 90 95 l 211 264 b 446 98 221 150 327 98 b 687 277 583 98 687 170 b 487 441 687 375 595 411 l 365 476 b 107 740 202 522 107 606 b 454 1024 107 911 259 1024 b 799 755 654 1024 793 908 l 673 755 b 450 910 661 854 570 910 b 233 746 319 910 233 841 b 425 583 233 640 351 603 l 526 555 b 812 275 635 525 812 464 b 446 -18 812 110 679 -18 m 502 1273 l 648 1273 l 508 1095 l 406 1095 m 273 1301 b 351 1375 273 1342 302 1375 b 431 1301 404 1375 431 1340 b 351 1225 431 1259 404 1225 b 273 1301 300 1225 273 1260 "},"Ṧ":{"ha":891,"x_min":0,"x_max":0,"o":"m 446 -18 b 79 264 227 -18 90 95 l 211 264 b 446 98 221 150 327 98 b 687 277 583 98 687 170 b 487 441 687 375 595 411 l 365 476 b 107 740 202 522 107 606 b 454 1024 107 911 259 1024 b 799 755 654 1024 793 908 l 673 755 b 450 910 661 854 570 910 b 233 746 319 910 233 841 b 425 583 233 640 351 603 l 526 555 b 812 275 635 525 812 464 b 446 -18 812 110 679 -18 m 450 1175 l 546 1294 l 667 1294 l 667 1288 l 507 1107 l 391 1107 l 232 1288 l 232 1294 l 352 1294 m 447 1336 b 362 1417 401 1336 362 1372 b 447 1497 362 1461 401 1497 b 532 1417 494 1497 532 1461 b 447 1336 532 1372 494 1336 "},"Ṩ":{"ha":891,"x_min":0,"x_max":0,"o":"m 446 -18 b 79 264 227 -18 90 95 l 211 264 b 446 98 221 150 327 98 b 687 277 583 98 687 170 b 487 441 687 375 595 411 l 365 476 b 107 740 202 522 107 606 b 454 1024 107 911 259 1024 b 799 755 654 1024 793 908 l 673 755 b 450 910 661 854 570 910 b 233 746 319 910 233 841 b 425 583 233 640 351 603 l 526 555 b 812 275 635 525 812 464 b 446 -18 812 110 679 -18 m 445 1135 b 360 1215 399 1135 360 1171 b 445 1296 360 1260 399 1296 b 530 1215 492 1296 530 1260 b 445 1135 530 1171 492 1135 m 448 -286 b 363 -205 402 -286 363 -250 b 448 -124 363 -160 402 -124 b 534 -205 495 -124 534 -160 b 448 -286 534 -250 495 -286 "},"Ѕ":{"ha":891,"x_min":0,"x_max":0,"o":"m 446 -18 b 79 264 227 -18 90 95 l 211 264 b 446 98 221 150 327 98 b 687 277 583 98 687 170 b 487 441 687 375 595 411 l 365 476 b 107 740 202 522 107 606 b 454 1024 107 911 259 1024 b 799 755 654 1024 793 908 l 673 755 b 450 910 661 854 570 910 b 233 746 319 910 233 841 b 425 583 233 640 351 603 l 526 555 b 812 275 635 525 812 464 b 446 -18 812 110 679 -18 "},"Ƨ":{"ha":891,"x_min":0,"x_max":0,"o":"m 446 -18 b 79 275 212 -18 79 110 b 365 555 79 464 256 525 l 466 583 b 659 746 540 603 659 640 b 441 910 659 841 572 910 b 218 755 321 910 230 854 l 92 755 b 437 1024 98 908 237 1024 b 784 740 632 1024 784 911 b 526 476 784 606 689 522 l 404 441 b 204 277 296 411 204 375 b 446 98 204 170 309 98 b 680 264 564 98 670 150 l 812 264 b 446 -18 801 95 665 -18 "},"ẞ":{"ha":955,"x_min":0,"x_max":0,"o":"m 122 671 b 436 1024 122 904 230 1024 b 788 871 581 1024 692 957 l 563 577 b 876 284 761 564 876 458 b 535 -14 876 92 734 -14 b 343 21 472 -14 408 -3 l 384 133 b 536 100 422 117 473 100 b 735 287 663 100 735 171 b 519 471 735 467 564 471 l 421 471 l 421 578 l 621 848 b 441 911 578 878 524 911 b 251 671 291 911 251 795 l 251 0 l 122 0 "},"T":{"ha":897,"x_min":0,"x_max":0,"o":"m 66 1010 l 830 1010 l 830 897 l 513 897 l 513 0 l 385 0 l 385 897 l 66 897 "},"Ţ":{"ha":897,"x_min":0,"x_max":0,"o":"m 66 1010 l 830 1010 l 830 897 l 513 897 l 513 0 l 484 0 l 484 -58 b 612 -168 572 -62 612 -95 b 455 -283 612 -248 564 -283 l 374 -283 l 374 -212 l 454 -212 b 521 -168 504 -212 521 -201 b 454 -123 521 -134 504 -123 l 399 -123 l 415 0 l 385 0 l 385 897 l 66 897 "},"Ť":{"ha":897,"x_min":0,"x_max":0,"o":"m 66 1010 l 830 1010 l 830 897 l 513 897 l 513 0 l 385 0 l 385 897 l 66 897 m 449 1190 l 545 1309 l 667 1309 l 667 1303 l 507 1122 l 391 1122 l 231 1303 l 231 1309 l 351 1309 "},"Ț":{"ha":897,"x_min":0,"x_max":0,"o":"m 66 1010 l 830 1010 l 830 897 l 513 897 l 513 0 l 385 0 l 385 897 l 66 897 m 385 -80 l 510 -80 l 424 -334 l 330 -334 "},"Ṫ":{"ha":897,"x_min":0,"x_max":0,"o":"m 66 1010 l 830 1010 l 830 897 l 513 897 l 513 0 l 385 0 l 385 897 l 66 897 m 449 1135 b 364 1215 403 1135 364 1171 b 449 1296 364 1260 403 1296 b 534 1215 496 1296 534 1260 b 449 1135 534 1171 496 1135 "},"Ṭ":{"ha":897,"x_min":0,"x_max":0,"o":"m 66 1010 l 830 1010 l 830 897 l 513 897 l 513 0 l 385 0 l 385 897 l 66 897 m 451 -286 b 366 -205 405 -286 366 -250 b 451 -124 366 -160 405 -124 b 536 -205 498 -124 536 -160 b 451 -286 536 -250 498 -286 "},"Ṯ":{"ha":897,"x_min":0,"x_max":0,"o":"m 66 1010 l 830 1010 l 830 897 l 513 897 l 513 0 l 385 0 l 385 897 l 66 897 m 637 -253 l 262 -253 l 262 -157 l 637 -157 "},"Ṱ":{"ha":897,"x_min":0,"x_max":0,"o":"m 66 1010 l 830 1010 l 830 897 l 513 897 l 513 0 l 385 0 l 385 897 l 66 897 m 236 -298 l 236 -292 l 395 -111 l 511 -111 l 671 -292 l 671 -298 l 550 -298 l 454 -180 l 356 -298 "},"Ƭ":{"ha":900,"x_min":0,"x_max":0,"o":"m 43 806 b 252 1010 43 943 113 1010 l 833 1010 l 833 897 l 517 897 l 517 0 l 388 0 l 388 897 l 253 897 b 164 804 192 897 164 869 l 164 755 l 43 755 "},"":{"ha":895,"x_min":0,"x_max":0,"o":"m 309 1010 l 828 1010 l 828 897 l 511 897 l 511 0 l 382 0 l 382 897 l 309 897 "},"Ʈ":{"ha":897,"x_min":0,"x_max":0,"o":"m 581 -290 b 385 -116 453 -290 385 -229 l 385 897 l 66 897 l 66 1010 l 830 1010 l 830 897 l 513 897 l 513 -116 b 619 -182 513 -163 544 -182 b 659 -179 629 -182 645 -181 l 659 -283 b 581 -290 645 -287 615 -290 "},"Ⱦ":{"ha":897,"x_min":0,"x_max":0,"o":"m 385 468 l 385 897 l 66 897 l 66 1010 l 602 1010 l 658 1152 l 753 1152 l 696 1010 l 830 1010 l 830 897 l 650 897 l 513 553 l 513 0 l 385 0 l 385 230 l 236 -142 l 141 -142 m 555 897 l 513 897 l 513 791 "},"Τ":{"ha":897,"x_min":0,"x_max":0,"o":"m 66 1010 l 830 1010 l 830 897 l 513 897 l 513 0 l 385 0 l 385 897 l 66 897 "},"U":{"ha":1034,"x_min":0,"x_max":0,"o":"m 517 -16 b 122 344 278 -16 122 136 l 122 1010 l 251 1010 l 251 354 b 517 103 251 209 352 103 b 783 354 682 103 783 209 l 783 1010 l 911 1010 l 911 344 b 517 -16 911 136 755 -16 "},"Ư":{"ha":1029,"x_min":0,"x_max":0,"o":"m 517 -16 b 122 344 278 -16 122 136 l 122 1010 l 251 1010 l 251 354 b 517 103 251 209 352 103 b 783 354 682 103 783 209 l 783 1010 l 907 1010 b 920 1023 915 1010 920 1015 l 920 1152 l 1035 1152 l 1035 1028 b 920 913 1035 951 997 913 l 911 913 l 911 344 b 517 -16 911 136 755 -16 "},"Ù":{"ha":1034,"x_min":0,"x_max":0,"o":"m 517 -16 b 122 344 278 -16 122 136 l 122 1010 l 251 1010 l 251 354 b 517 103 251 209 352 103 b 783 354 682 103 783 209 l 783 1010 l 911 1010 l 911 344 b 517 -16 911 136 755 -16 m 338 1309 l 475 1309 l 570 1109 l 469 1109 "},"Ú":{"ha":1034,"x_min":0,"x_max":0,"o":"m 517 -16 b 122 344 278 -16 122 136 l 122 1010 l 251 1010 l 251 354 b 517 103 251 209 352 103 b 783 354 682 103 783 209 l 783 1010 l 911 1010 l 911 344 b 517 -16 911 136 755 -16 m 559 1309 l 695 1309 l 564 1109 l 464 1109 "},"Û":{"ha":1034,"x_min":0,"x_max":0,"o":"m 517 -16 b 122 344 278 -16 122 136 l 122 1010 l 251 1010 l 251 354 b 517 103 251 209 352 103 b 783 354 682 103 783 209 l 783 1010 l 911 1010 l 911 344 b 517 -16 911 136 755 -16 m 300 1122 l 300 1128 l 459 1309 l 575 1309 l 735 1128 l 735 1122 l 614 1122 l 517 1240 l 420 1122 "},"Ü":{"ha":1034,"x_min":0,"x_max":0,"o":"m 517 -16 b 122 344 278 -16 122 136 l 122 1010 l 251 1010 l 251 354 b 517 103 251 209 352 103 b 783 354 682 103 783 209 l 783 1010 l 911 1010 l 911 344 b 517 -16 911 136 755 -16 m 375 1135 b 294 1215 330 1135 294 1171 b 375 1295 294 1259 330 1295 b 455 1215 419 1295 455 1259 b 375 1135 455 1171 419 1135 m 661 1135 b 580 1215 616 1135 580 1171 b 661 1295 580 1259 616 1295 b 741 1215 705 1295 741 1259 b 661 1135 741 1171 705 1135 "},"Ũ":{"ha":1034,"x_min":0,"x_max":0,"o":"m 517 -16 b 122 344 278 -16 122 136 l 122 1010 l 251 1010 l 251 354 b 517 103 251 209 352 103 b 783 354 682 103 783 209 l 783 1010 l 911 1010 l 911 344 b 517 -16 911 136 755 -16 m 606 1143 b 441 1199 539 1143 476 1199 b 406 1145 418 1199 407 1172 l 320 1145 b 430 1286 323 1227 357 1286 b 593 1229 500 1286 548 1229 b 631 1284 616 1229 627 1244 l 715 1284 b 606 1143 712 1198 673 1143 "},"Ū":{"ha":1034,"x_min":0,"x_max":0,"o":"m 517 -16 b 122 344 278 -16 122 136 l 122 1010 l 251 1010 l 251 354 b 517 103 251 209 352 103 b 783 354 682 103 783 209 l 783 1010 l 911 1010 l 911 344 b 517 -16 911 136 755 -16 m 705 1167 l 330 1167 l 330 1263 l 705 1263 "},"Ŭ":{"ha":1034,"x_min":0,"x_max":0,"o":"m 517 -16 b 122 344 278 -16 122 136 l 122 1010 l 251 1010 l 251 354 b 517 103 251 209 352 103 b 783 354 682 103 783 209 l 783 1010 l 911 1010 l 911 344 b 517 -16 911 136 755 -16 m 517 1117 b 321 1309 408 1117 321 1201 l 410 1309 b 517 1204 410 1247 455 1204 b 625 1309 580 1204 625 1247 l 714 1309 b 517 1117 714 1202 628 1117 "},"Ů":{"ha":1034,"x_min":0,"x_max":0,"o":"m 517 -16 b 122 344 278 -16 122 136 l 122 1010 l 251 1010 l 251 354 b 517 103 251 209 352 103 b 783 354 682 103 783 209 l 783 1010 l 911 1010 l 911 344 b 517 -16 911 136 755 -16 m 517 1045 b 339 1215 418 1045 339 1121 b 517 1385 339 1310 418 1385 b 696 1215 616 1385 696 1310 b 517 1045 696 1121 616 1045 m 517 1131 b 602 1215 564 1131 602 1168 b 517 1300 602 1262 565 1300 b 433 1215 470 1300 433 1262 b 517 1131 433 1168 471 1131 "},"Ű":{"ha":1034,"x_min":0,"x_max":0,"o":"m 517 -16 b 122 344 278 -16 122 136 l 122 1010 l 251 1010 l 251 354 b 517 103 251 209 352 103 b 783 354 682 103 783 209 l 783 1010 l 911 1010 l 911 344 b 517 -16 911 136 755 -16 m 578 1109 l 692 1309 l 828 1309 l 678 1109 m 356 1109 l 435 1309 l 571 1309 l 456 1109 "},"Ų":{"ha":1034,"x_min":0,"x_max":0,"o":"m 517 -16 b 122 344 278 -16 122 136 l 122 1010 l 251 1010 l 251 354 b 517 103 251 209 352 103 b 783 354 682 103 783 209 l 783 1010 l 911 1010 l 911 344 b 522 -140 911 -12 522 1 b 578 -193 522 -173 541 -193 b 642 -174 604 -193 625 -184 l 682 -262 b 559 -296 654 -277 614 -296 b 399 -164 471 -296 399 -249 b 519 -16 399 -98 451 -56 b 517 -16 519 -16 518 -16 "},"Ǔ":{"ha":1034,"x_min":0,"x_max":0,"o":"m 517 -16 b 122 344 278 -16 122 136 l 122 1010 l 251 1010 l 251 354 b 517 103 251 209 352 103 b 783 354 682 103 783 209 l 783 1010 l 911 1010 l 911 344 b 517 -16 911 136 755 -16 m 517 1190 l 614 1309 l 735 1309 l 735 1303 l 575 1122 l 459 1122 l 300 1303 l 300 1309 l 420 1309 "},"Ǖ":{"ha":1034,"x_min":0,"x_max":0,"o":"m 517 -16 b 122 344 278 -16 122 136 l 122 1010 l 251 1010 l 251 354 b 517 103 251 209 352 103 b 783 354 682 103 783 209 l 783 1010 l 911 1010 l 911 344 b 517 -16 911 136 755 -16 m 706 1373 l 330 1373 l 330 1460 l 706 1460 m 378 1116 b 298 1196 334 1116 298 1152 b 378 1276 298 1240 334 1276 b 458 1196 422 1276 458 1240 b 378 1116 458 1152 422 1116 m 664 1116 b 583 1196 619 1116 583 1152 b 664 1276 583 1240 619 1276 b 744 1196 708 1276 744 1240 b 664 1116 744 1152 708 1116 "},"Ǘ":{"ha":1034,"x_min":0,"x_max":0,"o":"m 517 -16 b 122 344 278 -16 122 136 l 122 1010 l 251 1010 l 251 354 b 517 103 251 209 352 103 b 783 354 682 103 783 209 l 783 1010 l 911 1010 l 911 344 b 517 -16 911 136 755 -16 m 563 1535 l 699 1535 l 568 1348 l 468 1348 m 378 1116 b 298 1196 334 1116 298 1152 b 378 1276 298 1240 334 1276 b 458 1196 422 1276 458 1240 b 378 1116 458 1152 422 1116 m 664 1116 b 583 1196 619 1116 583 1152 b 664 1276 583 1240 619 1276 b 744 1196 708 1276 744 1240 b 664 1116 744 1152 708 1116 "},"Ǚ":{"ha":1034,"x_min":0,"x_max":0,"o":"m 517 -16 b 122 344 278 -16 122 136 l 122 1010 l 251 1010 l 251 354 b 517 103 251 209 352 103 b 783 354 682 103 783 209 l 783 1010 l 911 1010 l 911 344 b 517 -16 911 136 755 -16 m 522 1416 l 618 1535 l 740 1535 l 740 1529 l 580 1348 l 464 1348 l 304 1529 l 304 1535 l 425 1535 m 378 1116 b 298 1196 334 1116 298 1152 b 378 1276 298 1240 334 1276 b 458 1196 422 1276 458 1240 b 378 1116 458 1152 422 1116 m 664 1116 b 583 1196 619 1116 583 1152 b 664 1276 583 1240 619 1276 b 744 1196 708 1276 744 1240 b 664 1116 744 1152 708 1116 "},"Ǜ":{"ha":1034,"x_min":0,"x_max":0,"o":"m 517 -16 b 122 344 278 -16 122 136 l 122 1010 l 251 1010 l 251 354 b 517 103 251 209 352 103 b 783 354 682 103 783 209 l 783 1010 l 911 1010 l 911 344 b 517 -16 911 136 755 -16 m 334 1535 l 470 1535 l 565 1348 l 465 1348 m 378 1116 b 298 1196 334 1116 298 1152 b 378 1276 298 1240 334 1276 b 458 1196 422 1276 458 1240 b 378 1116 458 1152 422 1116 m 664 1116 b 583 1196 619 1116 583 1152 b 664 1276 583 1240 619 1276 b 744 1196 708 1276 744 1240 b 664 1116 744 1152 708 1116 "},"Ȕ":{"ha":1034,"x_min":0,"x_max":0,"o":"m 517 -16 b 122 344 278 -16 122 136 l 122 1010 l 251 1010 l 251 354 b 517 103 251 209 352 103 b 783 354 682 103 783 209 l 783 1010 l 911 1010 l 911 344 b 517 -16 911 136 755 -16 m 207 1309 l 343 1309 l 457 1109 l 357 1109 m 464 1309 l 600 1309 l 679 1109 l 579 1109 "},"Ȗ":{"ha":1034,"x_min":0,"x_max":0,"o":"m 517 -16 b 122 344 278 -16 122 136 l 122 1010 l 251 1010 l 251 354 b 517 103 251 209 352 103 b 783 354 682 103 783 209 l 783 1010 l 911 1010 l 911 344 b 517 -16 911 136 755 -16 m 517 1326 b 724 1122 636 1326 724 1236 l 635 1122 b 517 1235 635 1188 580 1235 b 400 1122 455 1235 400 1188 l 311 1122 b 517 1326 311 1236 399 1326 "},"Ṳ":{"ha":1034,"x_min":0,"x_max":0,"o":"m 517 -16 b 122 344 278 -16 122 136 l 122 1010 l 251 1010 l 251 354 b 517 103 251 209 352 103 b 783 354 682 103 783 209 l 783 1010 l 911 1010 l 911 344 b 517 -16 911 136 755 -16 m 375 -286 b 294 -205 330 -286 294 -249 b 375 -125 294 -161 330 -125 b 455 -205 419 -125 455 -161 b 375 -286 455 -249 419 -286 m 661 -286 b 580 -205 616 -286 580 -249 b 661 -125 580 -161 616 -125 b 741 -205 705 -125 741 -161 b 661 -286 741 -249 705 -286 "},"Ṵ":{"ha":1034,"x_min":0,"x_max":0,"o":"m 517 -16 b 122 344 278 -16 122 136 l 122 1010 l 251 1010 l 251 354 b 517 103 251 209 352 103 b 783 354 682 103 783 209 l 783 1010 l 911 1010 l 911 344 b 517 -16 911 136 755 -16 m 610 -277 b 445 -221 543 -277 479 -221 b 409 -275 421 -221 410 -248 l 323 -275 b 433 -134 326 -193 361 -134 b 597 -191 504 -134 551 -191 b 635 -136 619 -191 630 -176 l 718 -136 b 610 -277 715 -222 676 -277 "},"Ṷ":{"ha":1034,"x_min":0,"x_max":0,"o":"m 517 -16 b 122 344 278 -16 122 136 l 122 1010 l 251 1010 l 251 354 b 517 103 251 209 352 103 b 783 354 682 103 783 209 l 783 1010 l 911 1010 l 911 344 b 517 -16 911 136 755 -16 m 304 -298 l 304 -292 l 464 -111 l 580 -111 l 740 -292 l 740 -298 l 618 -298 l 522 -180 l 425 -298 "},"Ṹ":{"ha":1034,"x_min":0,"x_max":0,"o":"m 517 -16 b 122 344 278 -16 122 136 l 122 1010 l 251 1010 l 251 354 b 517 103 251 209 352 103 b 783 354 682 103 783 209 l 783 1010 l 911 1010 l 911 344 b 517 -16 911 136 755 -16 m 610 1124 b 445 1181 543 1124 479 1181 b 409 1127 421 1181 410 1154 l 323 1127 b 433 1268 326 1208 361 1268 b 597 1211 504 1268 551 1211 b 635 1265 619 1211 630 1226 l 718 1265 b 610 1124 715 1180 676 1124 m 557 1535 l 694 1535 l 562 1348 l 463 1348 "},"Ṻ":{"ha":1034,"x_min":0,"x_max":0,"o":"m 517 -16 b 122 344 278 -16 122 136 l 122 1010 l 251 1010 l 251 354 b 517 103 251 209 352 103 b 783 354 682 103 783 209 l 783 1010 l 911 1010 l 911 344 b 517 -16 911 136 755 -16 m 706 1148 l 330 1148 l 330 1244 l 706 1244 m 378 1336 b 298 1417 334 1336 298 1373 b 378 1497 298 1461 334 1497 b 458 1417 422 1497 458 1461 b 378 1336 458 1373 422 1336 m 664 1336 b 583 1417 619 1336 583 1373 b 664 1497 583 1461 619 1497 b 744 1417 708 1497 744 1461 b 664 1336 744 1373 708 1336 "},"Ụ":{"ha":1034,"x_min":0,"x_max":0,"o":"m 517 -16 b 122 344 278 -16 122 136 l 122 1010 l 251 1010 l 251 354 b 517 103 251 209 352 103 b 783 354 682 103 783 209 l 783 1010 l 911 1010 l 911 344 b 517 -16 911 136 755 -16 m 519 -286 b 435 -205 473 -286 435 -250 b 519 -124 435 -160 473 -124 b 605 -205 566 -124 605 -160 b 519 -286 605 -250 566 -286 "},"Ủ":{"ha":1034,"x_min":0,"x_max":0,"o":"m 517 -16 b 122 344 278 -16 122 136 l 122 1010 l 251 1010 l 251 354 b 517 103 251 209 352 103 b 783 354 682 103 783 209 l 783 1010 l 911 1010 l 911 344 b 517 -16 911 136 755 -16 m 465 1109 l 513 1202 b 498 1229 523 1221 517 1229 l 404 1229 l 404 1309 l 498 1309 b 594 1168 610 1309 642 1244 l 557 1109 "},"Ứ":{"ha":1029,"x_min":0,"x_max":0,"o":"m 517 -16 b 122 344 278 -16 122 136 l 122 1010 l 251 1010 l 251 354 b 517 103 251 209 352 103 b 783 354 682 103 783 209 l 783 1010 l 907 1010 b 920 1023 915 1010 920 1015 l 920 1152 l 1035 1152 l 1035 1028 b 920 913 1035 951 997 913 l 911 913 l 911 344 b 517 -16 911 136 755 -16 m 559 1309 l 695 1309 l 564 1109 l 464 1109 "},"Ừ":{"ha":1029,"x_min":0,"x_max":0,"o":"m 517 -16 b 122 344 278 -16 122 136 l 122 1010 l 251 1010 l 251 354 b 517 103 251 209 352 103 b 783 354 682 103 783 209 l 783 1010 l 907 1010 b 920 1023 915 1010 920 1015 l 920 1152 l 1035 1152 l 1035 1028 b 920 913 1035 951 997 913 l 911 913 l 911 344 b 517 -16 911 136 755 -16 m 338 1309 l 475 1309 l 570 1109 l 469 1109 "},"Ử":{"ha":1029,"x_min":0,"x_max":0,"o":"m 517 -16 b 122 344 278 -16 122 136 l 122 1010 l 251 1010 l 251 354 b 517 103 251 209 352 103 b 783 354 682 103 783 209 l 783 1010 l 907 1010 b 920 1023 915 1010 920 1015 l 920 1152 l 1035 1152 l 1035 1028 b 920 913 1035 951 997 913 l 911 913 l 911 344 b 517 -16 911 136 755 -16 m 465 1109 l 513 1202 b 498 1229 523 1221 517 1229 l 404 1229 l 404 1309 l 498 1309 b 594 1168 610 1309 642 1244 l 557 1109 "},"Ữ":{"ha":1029,"x_min":0,"x_max":0,"o":"m 517 -16 b 122 344 278 -16 122 136 l 122 1010 l 251 1010 l 251 354 b 517 103 251 209 352 103 b 783 354 682 103 783 209 l 783 1010 l 907 1010 b 920 1023 915 1010 920 1015 l 920 1152 l 1035 1152 l 1035 1028 b 920 913 1035 951 997 913 l 911 913 l 911 344 b 517 -16 911 136 755 -16 m 606 1143 b 441 1199 539 1143 476 1199 b 406 1145 418 1199 407 1172 l 320 1145 b 430 1286 323 1227 357 1286 b 593 1229 500 1286 548 1229 b 631 1284 616 1229 627 1244 l 715 1284 b 606 1143 712 1198 673 1143 "},"Ự":{"ha":1029,"x_min":0,"x_max":0,"o":"m 517 -16 b 122 344 278 -16 122 136 l 122 1010 l 251 1010 l 251 354 b 517 103 251 209 352 103 b 783 354 682 103 783 209 l 783 1010 l 907 1010 b 920 1023 915 1010 920 1015 l 920 1152 l 1035 1152 l 1035 1028 b 920 913 1035 951 997 913 l 911 913 l 911 344 b 517 -16 911 136 755 -16 m 519 -286 b 435 -205 473 -286 435 -250 b 519 -124 435 -160 473 -124 b 605 -205 566 -124 605 -160 b 519 -286 605 -250 566 -286 "},"Ʉ":{"ha":1029,"x_min":0,"x_max":0,"o":"m 1034 505 l 911 505 l 911 344 b 517 -16 911 136 755 -16 b 122 344 278 -16 122 136 l 122 505 l -4 505 l -4 586 l 122 586 l 122 1010 l 251 1010 l 251 586 l 783 586 l 783 1010 l 911 1010 l 911 586 l 1034 586 m 251 505 l 251 354 b 517 103 251 209 352 103 b 783 354 682 103 783 209 l 783 505 "},"V":{"ha":958,"x_min":0,"x_max":0,"o":"m 35 1010 l 171 1010 l 385 411 b 481 104 407 349 439 249 b 578 411 524 252 556 349 l 786 1010 l 923 1010 l 555 0 l 407 0 "},"Ṽ":{"ha":958,"x_min":0,"x_max":0,"o":"m 35 1010 l 171 1010 l 385 411 b 481 104 407 349 439 249 b 578 411 524 252 556 349 l 786 1010 l 923 1010 l 555 0 l 407 0 m 568 1143 b 403 1199 500 1143 437 1199 b 367 1145 379 1199 368 1172 l 281 1145 b 391 1286 284 1227 319 1286 b 555 1229 462 1286 509 1229 b 593 1284 577 1229 588 1244 l 676 1284 b 568 1143 673 1198 634 1143 "},"Ṿ":{"ha":958,"x_min":0,"x_max":0,"o":"m 35 1010 l 171 1010 l 385 411 b 481 104 407 349 439 249 b 578 411 524 252 556 349 l 786 1010 l 923 1010 l 555 0 l 407 0 m 481 -286 b 396 -205 435 -286 396 -250 b 481 -124 396 -160 435 -124 b 566 -205 528 -124 566 -160 b 481 -286 566 -250 528 -286 "},"W":{"ha":1369,"x_min":0,"x_max":0,"o":"m 35 1010 l 167 1010 l 327 391 b 387 120 349 304 368 215 b 448 391 405 215 425 304 l 611 1010 l 758 1010 l 920 391 b 981 124 942 305 962 218 b 1041 391 999 218 1019 305 l 1200 1010 l 1333 1010 l 1057 0 l 907 0 l 733 640 b 684 865 715 705 699 776 b 634 640 669 782 654 713 l 461 0 l 311 0 "},"Ŵ":{"ha":1369,"x_min":0,"x_max":0,"o":"m 35 1010 l 167 1010 l 327 391 b 387 120 349 304 368 215 b 448 391 405 215 425 304 l 611 1010 l 758 1010 l 920 391 b 981 124 942 305 962 218 b 1041 391 999 218 1019 305 l 1200 1010 l 1333 1010 l 1057 0 l 907 0 l 733 640 b 684 865 715 705 699 776 b 634 640 669 782 654 713 l 461 0 l 311 0 m 467 1122 l 467 1128 l 626 1309 l 742 1309 l 902 1128 l 902 1122 l 781 1122 l 684 1240 l 587 1122 "},"Ẁ":{"ha":1369,"x_min":0,"x_max":0,"o":"m 35 1010 l 167 1010 l 327 391 b 387 120 349 304 368 215 b 448 391 405 215 425 304 l 611 1010 l 758 1010 l 920 391 b 981 124 942 305 962 218 b 1041 391 999 218 1019 305 l 1200 1010 l 1333 1010 l 1057 0 l 907 0 l 733 640 b 684 865 715 705 699 776 b 634 640 669 782 654 713 l 461 0 l 311 0 m 505 1309 l 642 1309 l 736 1109 l 636 1109 "},"Ẃ":{"ha":1369,"x_min":0,"x_max":0,"o":"m 35 1010 l 167 1010 l 327 391 b 387 120 349 304 368 215 b 448 391 405 215 425 304 l 611 1010 l 758 1010 l 920 391 b 981 124 942 305 962 218 b 1041 391 999 218 1019 305 l 1200 1010 l 1333 1010 l 1057 0 l 907 0 l 733 640 b 684 865 715 705 699 776 b 634 640 669 782 654 713 l 461 0 l 311 0 m 726 1309 l 862 1309 l 730 1109 l 631 1109 "},"Ẅ":{"ha":1369,"x_min":0,"x_max":0,"o":"m 35 1010 l 167 1010 l 327 391 b 387 120 349 304 368 215 b 448 391 405 215 425 304 l 611 1010 l 758 1010 l 920 391 b 981 124 942 305 962 218 b 1041 391 999 218 1019 305 l 1200 1010 l 1333 1010 l 1057 0 l 907 0 l 733 640 b 684 865 715 705 699 776 b 634 640 669 782 654 713 l 461 0 l 311 0 m 542 1135 b 461 1215 497 1135 461 1171 b 542 1295 461 1259 497 1295 b 622 1215 586 1295 622 1259 b 542 1135 622 1171 586 1135 m 827 1135 b 747 1215 783 1135 747 1171 b 827 1295 747 1259 783 1295 b 907 1215 871 1295 907 1259 b 827 1135 907 1171 871 1135 "},"Ẇ":{"ha":1369,"x_min":0,"x_max":0,"o":"m 35 1010 l 167 1010 l 327 391 b 387 120 349 304 368 215 b 448 391 405 215 425 304 l 611 1010 l 758 1010 l 920 391 b 981 124 942 305 962 218 b 1041 391 999 218 1019 305 l 1200 1010 l 1333 1010 l 1057 0 l 907 0 l 733 640 b 684 865 715 705 699 776 b 634 640 669 782 654 713 l 461 0 l 311 0 m 684 1135 b 600 1215 638 1135 600 1171 b 684 1296 600 1260 638 1296 b 770 1215 731 1296 770 1260 b 684 1135 770 1171 731 1135 "},"Ẉ":{"ha":1369,"x_min":0,"x_max":0,"o":"m 35 1010 l 167 1010 l 327 391 b 387 120 349 304 368 215 b 448 391 405 215 425 304 l 611 1010 l 758 1010 l 920 391 b 981 124 942 305 962 218 b 1041 391 999 218 1019 305 l 1200 1010 l 1333 1010 l 1057 0 l 907 0 l 733 640 b 684 865 715 705 699 776 b 634 640 669 782 654 713 l 461 0 l 311 0 m 686 -286 b 602 -205 640 -286 602 -250 b 686 -124 602 -160 640 -124 b 772 -205 733 -124 772 -160 b 686 -286 772 -250 733 -286 "},"X":{"ha":947,"x_min":0,"x_max":0,"o":"m 401 517 l 61 1010 l 210 1010 l 356 796 b 475 600 415 709 439 671 b 595 796 511 671 536 710 l 744 1010 l 890 1010 l 550 522 l 909 0 l 760 0 l 583 256 b 474 434 532 330 508 368 b 363 256 441 370 416 331 l 185 0 l 39 0 "},"Ẋ":{"ha":947,"x_min":0,"x_max":0,"o":"m 401 517 l 61 1010 l 210 1010 l 356 796 b 475 600 415 709 439 671 b 595 796 511 671 536 710 l 744 1010 l 890 1010 l 550 522 l 909 0 l 760 0 l 583 256 b 474 434 532 330 508 368 b 363 256 441 370 416 331 l 185 0 l 39 0 m 473 1135 b 389 1215 427 1135 389 1171 b 473 1296 389 1260 427 1296 b 559 1215 520 1296 559 1260 b 473 1135 559 1171 520 1135 "},"Ẍ":{"ha":947,"x_min":0,"x_max":0,"o":"m 401 517 l 61 1010 l 210 1010 l 356 796 b 475 600 415 709 439 671 b 595 796 511 671 536 710 l 744 1010 l 890 1010 l 550 522 l 909 0 l 760 0 l 583 256 b 474 434 532 330 508 368 b 363 256 441 370 416 331 l 185 0 l 39 0 m 331 1135 b 250 1215 286 1135 250 1171 b 331 1295 250 1259 286 1295 b 411 1215 375 1295 411 1259 b 331 1135 411 1171 375 1135 m 616 1135 b 536 1215 572 1135 536 1171 b 616 1295 536 1259 572 1295 b 696 1215 661 1295 696 1259 b 616 1135 696 1171 661 1135 "},"Ҳ":{"ha":975,"x_min":0,"x_max":0,"o":"m 401 517 l 61 1010 l 210 1010 l 356 796 b 475 600 415 709 439 671 b 595 796 511 671 536 710 l 744 1010 l 890 1010 l 550 522 l 831 113 l 960 113 l 959 -217 l 837 -217 l 837 0 l 760 0 l 583 256 b 474 434 532 330 508 368 b 363 256 441 370 416 331 l 185 0 l 39 0 "},"Ӽ":{"ha":975,"x_min":0,"x_max":0,"o":"m 401 517 l 61 1010 l 210 1010 l 356 796 b 475 600 415 709 439 671 b 595 796 511 671 536 710 l 744 1010 l 890 1010 l 550 522 l 832 111 l 972 111 l 972 -56 b 760 -290 972 -207 897 -290 b 684 -281 732 -290 705 -287 l 693 -176 b 764 -181 717 -179 741 -181 b 854 -71 819 -181 854 -149 l 854 0 l 760 0 l 583 256 b 474 434 532 330 508 368 b 363 256 441 370 416 331 l 185 0 l 39 0 "},"Χ":{"ha":947,"x_min":0,"x_max":0,"o":"m 401 517 l 61 1010 l 210 1010 l 356 796 b 475 600 415 709 439 671 b 595 796 511 671 536 710 l 744 1010 l 890 1010 l 550 522 l 909 0 l 760 0 l 583 256 b 474 434 532 330 508 368 b 363 256 441 370 416 331 l 185 0 l 39 0 "},"Y":{"ha":943,"x_min":0,"x_max":0,"o":"m 407 414 l 35 1010 l 184 1010 l 385 684 b 473 519 418 629 446 583 b 559 684 500 585 527 631 l 759 1010 l 907 1010 l 536 414 l 536 0 l 407 0 "},"Ƴ":{"ha":990,"x_min":0,"x_max":0,"o":"m 184 1010 l 464 541 l 475 541 l 693 908 b 963 1002 759 1019 863 1048 l 929 899 b 802 853 880 919 838 911 l 534 414 l 534 0 l 405 0 l 405 414 l 38 1010 "},"Ý":{"ha":943,"x_min":0,"x_max":0,"o":"m 407 414 l 35 1010 l 184 1010 l 385 684 b 473 519 418 629 446 583 b 559 684 500 585 527 631 l 759 1010 l 907 1010 l 536 414 l 536 0 l 407 0 m 513 1309 l 649 1309 l 517 1109 l 418 1109 "},"Ŷ":{"ha":943,"x_min":0,"x_max":0,"o":"m 407 414 l 35 1010 l 184 1010 l 385 684 b 473 519 418 629 446 583 b 559 684 500 585 527 631 l 759 1010 l 907 1010 l 536 414 l 536 0 l 407 0 m 254 1122 l 254 1128 l 413 1309 l 529 1309 l 689 1128 l 689 1122 l 568 1122 l 471 1240 l 374 1122 "},"Ÿ":{"ha":943,"x_min":0,"x_max":0,"o":"m 407 414 l 35 1010 l 184 1010 l 385 684 b 473 519 418 629 446 583 b 559 684 500 585 527 631 l 759 1010 l 907 1010 l 536 414 l 536 0 l 407 0 m 329 1135 b 248 1215 284 1135 248 1171 b 329 1295 248 1259 284 1295 b 409 1215 373 1295 409 1259 b 329 1135 409 1171 373 1135 m 614 1135 b 534 1215 570 1135 534 1171 b 614 1295 534 1259 570 1295 b 694 1215 659 1295 694 1259 b 614 1135 694 1171 659 1135 "},"Ȳ":{"ha":943,"x_min":0,"x_max":0,"o":"m 407 414 l 35 1010 l 184 1010 l 385 684 b 473 519 418 629 446 583 b 559 684 500 585 527 631 l 759 1010 l 907 1010 l 536 414 l 536 0 l 407 0 m 659 1167 l 283 1167 l 283 1263 l 659 1263 "},"Ẏ":{"ha":943,"x_min":0,"x_max":0,"o":"m 407 414 l 35 1010 l 184 1010 l 385 684 b 473 519 418 629 446 583 b 559 684 500 585 527 631 l 759 1010 l 907 1010 l 536 414 l 536 0 l 407 0 m 471 1135 b 387 1215 425 1135 387 1171 b 471 1296 387 1260 425 1296 b 557 1215 518 1296 557 1260 b 471 1135 557 1171 518 1135 "},"Ỳ":{"ha":943,"x_min":0,"x_max":0,"o":"m 407 414 l 35 1010 l 184 1010 l 385 684 b 473 519 418 629 446 583 b 559 684 500 585 527 631 l 759 1010 l 907 1010 l 536 414 l 536 0 l 407 0 m 292 1309 l 429 1309 l 524 1109 l 423 1109 "},"Ỵ":{"ha":943,"x_min":0,"x_max":0,"o":"m 407 414 l 35 1010 l 184 1010 l 385 684 b 473 519 418 629 446 583 b 559 684 500 585 527 631 l 759 1010 l 907 1010 l 536 414 l 536 0 l 407 0 m 473 -286 b 389 -205 427 -286 389 -250 b 473 -124 389 -160 427 -124 b 559 -205 520 -124 559 -160 b 473 -286 559 -250 520 -286 "},"Ỷ":{"ha":943,"x_min":0,"x_max":0,"o":"m 407 414 l 35 1010 l 184 1010 l 385 684 b 473 519 418 629 446 583 b 559 684 500 585 527 631 l 759 1010 l 907 1010 l 536 414 l 536 0 l 407 0 m 419 1109 l 467 1202 b 452 1229 477 1221 471 1229 l 358 1229 l 358 1309 l 452 1309 b 548 1168 564 1309 596 1244 l 511 1109 "},"Ỹ":{"ha":943,"x_min":0,"x_max":0,"o":"m 407 414 l 35 1010 l 184 1010 l 385 684 b 473 519 418 629 446 583 b 559 684 500 585 527 631 l 759 1010 l 907 1010 l 536 414 l 536 0 l 407 0 m 560 1143 b 395 1199 493 1143 430 1199 b 359 1145 372 1199 361 1172 l 274 1145 b 384 1286 277 1227 311 1286 b 547 1229 454 1286 502 1229 b 585 1284 570 1229 581 1244 l 669 1284 b 560 1143 666 1198 627 1143 "},"Ɏ":{"ha":928,"x_min":0,"x_max":0,"o":"m 924 722 l 728 722 l 536 414 l 536 0 l 407 0 l 407 414 l 215 722 l 4 722 l 4 803 l 165 803 l 35 1010 l 184 1010 l 312 803 l 632 803 l 759 1010 l 907 1010 l 778 803 l 924 803 m 361 722 l 385 684 b 473 519 418 629 446 583 b 559 684 500 585 527 631 l 583 722 "},"Υ":{"ha":943,"x_min":0,"x_max":0,"o":"m 407 414 l 35 1010 l 184 1010 l 385 684 b 473 519 418 629 446 583 b 559 684 500 585 527 631 l 759 1010 l 907 1010 l 536 414 l 536 0 l 407 0 "},"Ύ":{"ha":1220,"x_min":0,"x_max":0,"o":"m 684 414 l 313 1010 l 462 1010 l 662 684 b 750 519 696 629 723 583 b 837 684 777 585 804 631 l 1036 1010 l 1185 1010 l 813 414 l 813 0 l 684 0 m 90 1010 l 220 1010 l 151 811 l 66 811 "},"Ϋ":{"ha":943,"x_min":0,"x_max":0,"o":"m 407 414 l 35 1010 l 184 1010 l 385 684 b 473 519 418 629 446 583 b 559 684 500 585 527 631 l 759 1010 l 907 1010 l 536 414 l 536 0 l 407 0 m 329 1135 b 248 1215 284 1135 248 1171 b 329 1295 248 1259 284 1295 b 409 1215 373 1295 409 1259 b 329 1135 409 1171 373 1135 m 614 1135 b 534 1215 570 1135 534 1171 b 614 1295 534 1259 570 1295 b 694 1215 659 1295 694 1259 b 614 1135 694 1171 659 1135 "},"Ὑ":{"ha":1270,"x_min":0,"x_max":0,"o":"m 734 414 l 362 1010 l 511 1010 l 711 684 b 800 519 745 629 772 583 b 886 684 827 585 854 631 l 1086 1010 l 1234 1010 l 863 414 l 863 0 l 734 0 m 227 805 b 66 913 120 805 66 841 b 227 1017 66 983 120 1017 l 252 1017 l 252 945 l 227 945 b 158 903 181 945 158 930 b 227 854 158 870 181 854 l 236 854 l 236 805 l 227 805 "},"Ὓ":{"ha":1500,"x_min":0,"x_max":0,"o":"m 964 414 l 593 1010 l 742 1010 l 942 684 b 1030 519 976 629 1003 583 b 1117 684 1057 585 1084 631 l 1316 1010 l 1465 1010 l 1093 414 l 1093 0 l 964 0 m 227 805 b 66 913 120 805 66 841 b 227 1017 66 983 120 1017 l 252 1017 l 252 945 l 227 945 b 158 903 181 945 158 930 b 227 854 158 870 181 854 l 236 854 l 236 805 l 227 805 m 376 811 l 307 1010 l 437 1010 l 460 811 "},"Ὕ":{"ha":1492,"x_min":0,"x_max":0,"o":"m 956 414 l 585 1010 l 734 1010 l 934 684 b 1022 519 968 629 995 583 b 1109 684 1049 585 1076 631 l 1308 1010 l 1457 1010 l 1085 414 l 1085 0 l 956 0 m 227 805 b 66 913 120 805 66 841 b 227 1017 66 983 120 1017 l 252 1017 l 252 945 l 227 945 b 158 903 181 945 158 930 b 227 854 158 870 181 854 l 236 854 l 236 805 l 227 805 m 363 1010 l 494 1010 l 425 811 l 340 811 "},"Ὗ":{"ha":1375,"x_min":0,"x_max":0,"o":"m 839 414 l 467 1010 l 616 1010 l 817 684 b 905 519 850 629 878 583 b 991 684 932 585 959 631 l 1191 1010 l 1339 1010 l 968 414 l 968 0 l 839 0 m 353 1084 b 188 1141 286 1084 222 1141 b 152 1087 164 1141 153 1114 l 66 1087 b 176 1228 69 1168 104 1228 b 340 1171 247 1228 294 1171 b 378 1225 362 1171 373 1186 l 461 1225 b 353 1084 458 1140 419 1084 m 332 804 b 171 912 224 804 171 840 b 332 1016 171 981 224 1016 l 357 1016 l 357 943 l 332 943 b 262 901 286 943 262 929 b 332 852 262 869 286 852 l 340 852 l 340 804 l 332 804 "},"Ῠ":{"ha":943,"x_min":0,"x_max":0,"o":"m 407 414 l 35 1010 l 184 1010 l 385 684 b 473 519 418 629 446 583 b 559 684 500 585 527 631 l 759 1010 l 907 1010 l 536 414 l 536 0 l 407 0 m 471 1117 b 275 1309 361 1117 275 1201 l 364 1309 b 471 1204 364 1247 409 1204 b 578 1309 534 1204 578 1247 l 668 1309 b 471 1117 668 1202 582 1117 "},"Ῡ":{"ha":943,"x_min":0,"x_max":0,"o":"m 407 414 l 35 1010 l 184 1010 l 385 684 b 473 519 418 629 446 583 b 559 684 500 585 527 631 l 759 1010 l 907 1010 l 536 414 l 536 0 l 407 0 m 659 1167 l 283 1167 l 283 1263 l 659 1263 "},"Ὺ":{"ha":1044,"x_min":0,"x_max":0,"o":"m 509 414 l 137 1010 l 286 1010 l 486 684 b 574 519 520 629 547 583 b 661 684 602 585 629 631 l 861 1010 l 1009 1010 l 637 414 l 637 0 l 509 0 m -122 857 l -191 1057 l -60 1057 l -37 857 "},"Ύ":{"ha":1220,"x_min":0,"x_max":0,"o":"m 684 414 l 313 1010 l 462 1010 l 662 684 b 750 519 696 629 723 583 b 837 684 777 585 804 631 l 1036 1010 l 1185 1010 l 813 414 l 813 0 l 684 0 m 90 1010 l 220 1010 l 151 811 l 66 811 "},"":{"ha":943,"x_min":0,"x_max":0,"o":"m 458 -296 b 299 -164 370 -296 299 -249 b 407 5 299 -102 338 -43 l 407 414 l 35 1010 l 184 1010 l 385 684 b 473 519 418 629 446 583 b 559 684 500 585 527 631 l 759 1010 l 907 1010 l 536 414 l 536 0 b 422 -140 476 -42 422 -83 b 478 -193 422 -173 440 -193 b 541 -174 503 -193 524 -184 l 581 -262 b 458 -296 554 -277 514 -296 "},"Z":{"ha":873,"x_min":0,"x_max":0,"o":"m 88 91 l 540 763 b 640 900 570 808 605 854 b 437 897 572 897 505 897 l 83 897 l 83 1010 l 785 1010 l 785 918 l 340 257 b 234 111 307 208 271 159 b 434 114 300 113 367 114 l 791 114 l 791 0 l 88 0 "},"Ź":{"ha":873,"x_min":0,"x_max":0,"o":"m 88 91 l 540 763 b 640 900 570 808 605 854 b 437 897 572 897 505 897 l 83 897 l 83 1010 l 785 1010 l 785 918 l 340 257 b 234 111 307 208 271 159 b 434 114 300 113 367 114 l 791 114 l 791 0 l 88 0 m 478 1309 l 614 1309 l 483 1109 l 383 1109 "},"Ż":{"ha":873,"x_min":0,"x_max":0,"o":"m 88 91 l 540 763 b 640 900 570 808 605 854 b 437 897 572 897 505 897 l 83 897 l 83 1010 l 785 1010 l 785 918 l 340 257 b 234 111 307 208 271 159 b 434 114 300 113 367 114 l 791 114 l 791 0 l 88 0 m 437 1135 b 352 1215 391 1135 352 1171 b 437 1296 352 1260 391 1296 b 522 1215 484 1296 522 1260 b 437 1135 522 1171 484 1135 "},"Ž":{"ha":873,"x_min":0,"x_max":0,"o":"m 88 91 l 540 763 b 640 900 570 808 605 854 b 437 897 572 897 505 897 l 83 897 l 83 1010 l 785 1010 l 785 918 l 340 257 b 234 111 307 208 271 159 b 434 114 300 113 367 114 l 791 114 l 791 0 l 88 0 m 437 1190 l 533 1309 l 654 1309 l 654 1303 l 494 1122 l 378 1122 l 219 1303 l 219 1309 l 339 1309 "},"Ẑ":{"ha":873,"x_min":0,"x_max":0,"o":"m 88 91 l 540 763 b 640 900 570 808 605 854 b 437 897 572 897 505 897 l 83 897 l 83 1010 l 785 1010 l 785 918 l 340 257 b 234 111 307 208 271 159 b 434 114 300 113 367 114 l 791 114 l 791 0 l 88 0 m 219 1122 l 219 1128 l 378 1309 l 494 1309 l 654 1128 l 654 1122 l 533 1122 l 437 1240 l 339 1122 "},"Ẓ":{"ha":873,"x_min":0,"x_max":0,"o":"m 88 91 l 540 763 b 640 900 570 808 605 854 b 437 897 572 897 505 897 l 83 897 l 83 1010 l 785 1010 l 785 918 l 340 257 b 234 111 307 208 271 159 b 434 114 300 113 367 114 l 791 114 l 791 0 l 88 0 m 435 -286 b 350 -205 389 -286 350 -250 b 435 -124 350 -160 389 -124 b 520 -205 481 -124 520 -160 b 435 -286 520 -250 481 -286 "},"Ẕ":{"ha":873,"x_min":0,"x_max":0,"o":"m 88 91 l 540 763 b 640 900 570 808 605 854 b 437 897 572 897 505 897 l 83 897 l 83 1010 l 785 1010 l 785 918 l 340 257 b 234 111 307 208 271 159 b 434 114 300 113 367 114 l 791 114 l 791 0 l 88 0 m 621 -253 l 245 -253 l 245 -157 l 621 -157 "},"Ȥ":{"ha":873,"x_min":0,"x_max":0,"o":"m 523 -176 b 563 -179 538 -178 553 -179 b 662 -111 638 -179 662 -157 l 662 0 l 88 0 l 88 91 l 540 763 b 640 900 570 808 605 854 b 437 897 572 897 505 897 l 83 897 l 83 1010 l 785 1010 l 785 918 l 340 257 b 234 111 307 208 271 159 b 434 114 300 113 367 114 l 791 114 l 791 -116 b 593 -290 791 -229 722 -290 b 523 -283 564 -290 536 -287 "},"Ƶ":{"ha":873,"x_min":0,"x_max":0,"o":"m 88 91 l 332 453 l 161 453 l 161 557 l 401 557 l 540 763 b 640 900 570 808 605 854 b 437 897 572 897 505 897 l 83 897 l 83 1010 l 785 1010 l 785 918 l 543 557 l 713 557 l 713 453 l 472 453 l 340 257 b 234 111 307 208 271 159 b 434 114 300 113 367 114 l 791 114 l 791 0 l 88 0 "},"Ζ":{"ha":873,"x_min":0,"x_max":0,"o":"m 88 91 l 540 763 b 640 900 570 808 605 854 b 437 897 572 897 505 897 l 83 897 l 83 1010 l 785 1010 l 785 918 l 340 257 b 234 111 307 208 271 159 b 434 114 300 113 367 114 l 791 114 l 791 0 l 88 0 "},"Ɀ":{"ha":885,"x_min":0,"x_max":0,"o":"m 711 -296 b 163 0 502 -296 412 0 l 87 0 l 87 90 l 629 897 l 83 897 l 83 1010 l 785 1010 l 785 919 l 239 106 b 711 -177 488 59 567 -177 b 802 -165 749 -177 777 -171 l 802 -278 b 711 -296 779 -288 755 -296 "},"a":{"ha":780,"x_min":0,"x_max":0,"o":"m 319 -18 b 61 216 176 -18 61 66 b 356 439 61 389 216 421 b 551 508 491 456 551 452 l 551 512 b 392 661 551 606 497 661 b 200 549 283 661 224 602 l 83 588 b 389 768 141 726 271 768 b 673 500 490 768 673 736 l 673 0 l 553 0 l 553 103 l 545 103 b 319 -18 519 50 448 -18 m 340 90 b 551 274 475 90 551 181 l 551 379 b 351 336 530 355 397 342 b 184 210 262 324 184 296 b 340 90 184 131 250 90 "},"á":{"ha":780,"x_min":0,"x_max":0,"o":"m 319 -18 b 61 216 176 -18 61 66 b 356 439 61 389 216 421 b 551 508 491 456 551 452 l 551 512 b 392 661 551 606 497 661 b 200 549 283 661 224 602 l 83 588 b 389 768 141 726 271 768 b 673 500 490 768 673 736 l 673 0 l 553 0 l 553 103 l 545 103 b 319 -18 519 50 448 -18 m 340 90 b 551 274 475 90 551 181 l 551 379 b 351 336 530 355 397 342 b 184 210 262 324 184 296 b 340 90 184 131 250 90 m 420 1057 l 556 1057 l 425 857 l 325 857 "},"ă":{"ha":780,"x_min":0,"x_max":0,"o":"m 319 -18 b 61 216 176 -18 61 66 b 356 439 61 389 216 421 b 551 508 491 456 551 452 l 551 512 b 392 661 551 606 497 661 b 200 549 283 661 224 602 l 83 588 b 389 768 141 726 271 768 b 673 500 490 768 673 736 l 673 0 l 553 0 l 553 103 l 545 103 b 319 -18 519 50 448 -18 m 340 90 b 551 274 475 90 551 181 l 551 379 b 351 336 530 355 397 342 b 184 210 262 324 184 296 b 340 90 184 131 250 90 m 378 865 b 182 1057 269 865 182 949 l 271 1057 b 378 951 271 995 316 951 b 486 1057 441 951 486 995 l 575 1057 b 378 865 575 949 489 865 "},"ắ":{"ha":780,"x_min":0,"x_max":0,"o":"m 319 -18 b 61 216 176 -18 61 66 b 356 439 61 389 216 421 b 551 508 491 456 551 452 l 551 512 b 392 661 551 606 497 661 b 200 549 283 661 224 602 l 83 588 b 389 768 141 726 271 768 b 673 500 490 768 673 736 l 673 0 l 553 0 l 553 103 l 545 103 b 319 -18 519 50 448 -18 m 340 90 b 551 274 475 90 551 181 l 551 379 b 351 336 530 355 397 342 b 184 210 262 324 184 296 b 340 90 184 131 250 90 m 382 846 b 185 1038 272 846 185 930 l 275 1038 b 382 932 275 976 319 932 b 489 1038 444 932 489 976 l 578 1038 b 382 846 578 930 492 846 m 426 1282 l 562 1282 l 431 1095 l 331 1095 "},"ặ":{"ha":780,"x_min":0,"x_max":0,"o":"m 319 -18 b 61 216 176 -18 61 66 b 356 439 61 389 216 421 b 551 508 491 456 551 452 l 551 512 b 392 661 551 606 497 661 b 200 549 283 661 224 602 l 83 588 b 389 768 141 726 271 768 b 673 500 490 768 673 736 l 673 0 l 553 0 l 553 103 l 545 103 b 319 -18 519 50 448 -18 m 340 90 b 551 274 475 90 551 181 l 551 379 b 351 336 530 355 397 342 b 184 210 262 324 184 296 b 340 90 184 131 250 90 m 378 865 b 182 1057 269 865 182 949 l 271 1057 b 378 951 271 995 316 951 b 486 1057 441 951 486 995 l 575 1057 b 378 865 575 949 489 865 m 380 -286 b 295 -205 334 -286 295 -250 b 380 -124 295 -160 334 -124 b 465 -205 427 -124 465 -160 b 380 -286 465 -250 427 -286 "},"ằ":{"ha":780,"x_min":0,"x_max":0,"o":"m 319 -18 b 61 216 176 -18 61 66 b 356 439 61 389 216 421 b 551 508 491 456 551 452 l 551 512 b 392 661 551 606 497 661 b 200 549 283 661 224 602 l 83 588 b 389 768 141 726 271 768 b 673 500 490 768 673 736 l 673 0 l 553 0 l 553 103 l 545 103 b 319 -18 519 50 448 -18 m 340 90 b 551 274 475 90 551 181 l 551 379 b 351 336 530 355 397 342 b 184 210 262 324 184 296 b 340 90 184 131 250 90 m 375 846 b 178 1038 264 846 178 930 l 268 1038 b 375 932 268 976 313 932 b 482 1038 437 932 482 976 l 572 1038 b 375 846 572 930 485 846 m 326 1095 l 195 1282 l 331 1282 l 426 1095 "},"ẳ":{"ha":780,"x_min":0,"x_max":0,"o":"m 319 -18 b 61 216 176 -18 61 66 b 356 439 61 389 216 421 b 551 508 491 456 551 452 l 551 512 b 392 661 551 606 497 661 b 200 549 283 661 224 602 l 83 588 b 389 768 141 726 271 768 b 673 500 490 768 673 736 l 673 0 l 553 0 l 553 103 l 545 103 b 319 -18 519 50 448 -18 m 340 90 b 551 274 475 90 551 181 l 551 379 b 351 336 530 355 397 342 b 184 210 262 324 184 296 b 340 90 184 131 250 90 m 382 846 b 185 1038 272 846 185 930 l 275 1038 b 382 932 275 976 319 932 b 489 1038 444 932 489 976 l 578 1038 b 382 846 578 930 492 846 m 336 1095 l 379 1176 b 364 1202 389 1195 382 1202 l 270 1202 l 270 1282 l 364 1282 b 460 1141 476 1282 511 1217 l 429 1095 "},"ẵ":{"ha":780,"x_min":0,"x_max":0,"o":"m 319 -18 b 61 216 176 -18 61 66 b 356 439 61 389 216 421 b 551 508 491 456 551 452 l 551 512 b 392 661 551 606 497 661 b 200 549 283 661 224 602 l 83 588 b 389 768 141 726 271 768 b 673 500 490 768 673 736 l 673 0 l 553 0 l 553 103 l 545 103 b 319 -18 519 50 448 -18 m 340 90 b 551 274 475 90 551 181 l 551 379 b 351 336 530 355 397 342 b 184 210 262 324 184 296 b 340 90 184 131 250 90 m 378 847 b 185 1037 270 847 185 930 l 272 1037 b 378 931 272 975 316 931 b 485 1037 441 931 485 975 l 572 1037 b 378 847 572 930 487 847 m 473 1114 b 309 1170 406 1114 343 1170 b 273 1116 285 1170 274 1143 l 187 1116 b 297 1257 190 1198 224 1257 b 460 1200 368 1257 415 1200 b 498 1255 483 1200 494 1215 l 582 1255 b 473 1114 579 1169 540 1114 "},"ǎ":{"ha":780,"x_min":0,"x_max":0,"o":"m 319 -18 b 61 216 176 -18 61 66 b 356 439 61 389 216 421 b 551 508 491 456 551 452 l 551 512 b 392 661 551 606 497 661 b 200 549 283 661 224 602 l 83 588 b 389 768 141 726 271 768 b 673 500 490 768 673 736 l 673 0 l 553 0 l 553 103 l 545 103 b 319 -18 519 50 448 -18 m 340 90 b 551 274 475 90 551 181 l 551 379 b 351 336 530 355 397 342 b 184 210 262 324 184 296 b 340 90 184 131 250 90 m 378 938 l 475 1057 l 596 1057 l 596 1050 l 436 869 l 320 869 l 161 1050 l 161 1057 l 281 1057 "},"â":{"ha":780,"x_min":0,"x_max":0,"o":"m 319 -18 b 61 216 176 -18 61 66 b 356 439 61 389 216 421 b 551 508 491 456 551 452 l 551 512 b 392 661 551 606 497 661 b 200 549 283 661 224 602 l 83 588 b 389 768 141 726 271 768 b 673 500 490 768 673 736 l 673 0 l 553 0 l 553 103 l 545 103 b 319 -18 519 50 448 -18 m 340 90 b 551 274 475 90 551 181 l 551 379 b 351 336 530 355 397 342 b 184 210 262 324 184 296 b 340 90 184 131 250 90 m 161 869 l 161 876 l 320 1057 l 436 1057 l 596 876 l 596 869 l 475 869 l 378 988 l 281 869 "},"ấ":{"ha":780,"x_min":0,"x_max":0,"o":"m 319 -18 b 61 216 176 -18 61 66 b 356 439 61 389 216 421 b 551 508 491 456 551 452 l 551 512 b 392 661 551 606 497 661 b 200 549 283 661 224 602 l 83 588 b 389 768 141 726 271 768 b 673 500 490 768 673 736 l 673 0 l 553 0 l 553 103 l 545 103 b 319 -18 519 50 448 -18 m 340 90 b 551 274 475 90 551 181 l 551 379 b 351 336 530 355 397 342 b 184 210 262 324 184 296 b 340 90 184 131 250 90 m 165 850 l 165 857 l 325 1038 l 441 1038 l 601 857 l 601 850 l 479 850 l 383 969 l 286 850 m 570 1282 l 706 1282 l 574 1095 l 475 1095 "},"ậ":{"ha":780,"x_min":0,"x_max":0,"o":"m 319 -18 b 61 216 176 -18 61 66 b 356 439 61 389 216 421 b 551 508 491 456 551 452 l 551 512 b 392 661 551 606 497 661 b 200 549 283 661 224 602 l 83 588 b 389 768 141 726 271 768 b 673 500 490 768 673 736 l 673 0 l 553 0 l 553 103 l 545 103 b 319 -18 519 50 448 -18 m 340 90 b 551 274 475 90 551 181 l 551 379 b 351 336 530 355 397 342 b 184 210 262 324 184 296 b 340 90 184 131 250 90 m 161 869 l 161 876 l 320 1057 l 436 1057 l 596 876 l 596 869 l 475 869 l 378 988 l 281 869 m 380 -286 b 295 -205 334 -286 295 -250 b 380 -124 295 -160 334 -124 b 465 -205 427 -124 465 -160 b 380 -286 465 -250 427 -286 "},"ầ":{"ha":780,"x_min":0,"x_max":0,"o":"m 319 -18 b 61 216 176 -18 61 66 b 356 439 61 389 216 421 b 551 508 491 456 551 452 l 551 512 b 392 661 551 606 497 661 b 200 549 283 661 224 602 l 83 588 b 389 768 141 726 271 768 b 673 500 490 768 673 736 l 673 0 l 553 0 l 553 103 l 545 103 b 319 -18 519 50 448 -18 m 340 90 b 551 274 475 90 551 181 l 551 379 b 351 336 530 355 397 342 b 184 210 262 324 184 296 b 340 90 184 131 250 90 m 165 850 l 165 857 l 325 1038 l 441 1038 l 601 857 l 601 850 l 479 850 l 383 969 l 286 850 m 377 1282 l 513 1282 l 608 1095 l 508 1095 "},"ẩ":{"ha":780,"x_min":0,"x_max":0,"o":"m 319 -18 b 61 216 176 -18 61 66 b 356 439 61 389 216 421 b 551 508 491 456 551 452 l 551 512 b 392 661 551 606 497 661 b 200 549 283 661 224 602 l 83 588 b 389 768 141 726 271 768 b 673 500 490 768 673 736 l 673 0 l 553 0 l 553 103 l 545 103 b 319 -18 519 50 448 -18 m 340 90 b 551 274 475 90 551 181 l 551 379 b 351 336 530 355 397 342 b 184 210 262 324 184 296 b 340 90 184 131 250 90 m 165 850 l 165 857 l 325 1038 l 441 1038 l 601 857 l 601 850 l 479 850 l 383 969 l 286 850 m 471 1095 l 514 1176 b 499 1202 524 1195 517 1202 l 405 1202 l 405 1282 l 499 1282 b 595 1141 611 1282 646 1217 l 564 1095 "},"ẫ":{"ha":780,"x_min":0,"x_max":0,"o":"m 319 -18 b 61 216 176 -18 61 66 b 356 439 61 389 216 421 b 551 508 491 456 551 452 l 551 512 b 392 661 551 606 497 661 b 200 549 283 661 224 602 l 83 588 b 389 768 141 726 271 768 b 673 500 490 768 673 736 l 673 0 l 553 0 l 553 103 l 545 103 b 319 -18 519 50 448 -18 m 340 90 b 551 274 475 90 551 181 l 551 379 b 351 336 530 355 397 342 b 184 210 262 324 184 296 b 340 90 184 131 250 90 m 165 850 l 165 857 l 325 1038 l 441 1038 l 601 857 l 601 850 l 479 850 l 383 969 l 286 850 m 471 1114 b 306 1171 404 1114 340 1171 b 270 1117 282 1171 271 1143 l 184 1117 b 294 1258 187 1198 222 1258 b 458 1200 365 1258 412 1200 b 496 1255 480 1200 491 1216 l 579 1255 b 471 1114 576 1170 537 1114 "},"ȁ":{"ha":780,"x_min":0,"x_max":0,"o":"m 319 -18 b 61 216 176 -18 61 66 b 356 439 61 389 216 421 b 551 508 491 456 551 452 l 551 512 b 392 661 551 606 497 661 b 200 549 283 661 224 602 l 83 588 b 389 768 141 726 271 768 b 673 500 490 768 673 736 l 673 0 l 553 0 l 553 103 l 545 103 b 319 -18 519 50 448 -18 m 340 90 b 551 274 475 90 551 181 l 551 379 b 351 336 530 355 397 342 b 184 210 262 324 184 296 b 340 90 184 131 250 90 m 68 1057 l 204 1057 l 318 857 l 218 857 m 325 1057 l 460 1057 l 540 857 l 440 857 "},"ä":{"ha":780,"x_min":0,"x_max":0,"o":"m 319 -18 b 61 216 176 -18 61 66 b 356 439 61 389 216 421 b 551 508 491 456 551 452 l 551 512 b 392 661 551 606 497 661 b 200 549 283 661 224 602 l 83 588 b 389 768 141 726 271 768 b 673 500 490 768 673 736 l 673 0 l 553 0 l 553 103 l 545 103 b 319 -18 519 50 448 -18 m 340 90 b 551 274 475 90 551 181 l 551 379 b 351 336 530 355 397 342 b 184 210 262 324 184 296 b 340 90 184 131 250 90 m 236 882 b 155 963 191 882 155 919 b 236 1043 155 1007 191 1043 b 316 963 280 1043 316 1007 b 236 882 316 919 280 882 m 522 882 b 441 963 477 882 441 919 b 522 1043 441 1007 477 1043 b 602 963 566 1043 602 1007 b 522 882 602 919 566 882 "},"ǟ":{"ha":780,"x_min":0,"x_max":0,"o":"m 319 -18 b 61 216 176 -18 61 66 b 356 439 61 389 216 421 b 551 508 491 456 551 452 l 551 512 b 392 661 551 606 497 661 b 200 549 283 661 224 602 l 83 588 b 389 768 141 726 271 768 b 673 500 490 768 673 736 l 673 0 l 553 0 l 553 103 l 545 103 b 319 -18 519 50 448 -18 m 340 90 b 551 274 475 90 551 181 l 551 379 b 351 336 530 355 397 342 b 184 210 262 324 184 296 b 340 90 184 131 250 90 m 567 1121 l 191 1121 l 191 1208 l 567 1208 m 239 863 b 159 944 195 863 159 900 b 239 1024 159 988 195 1024 b 319 944 283 1024 319 988 b 239 863 319 900 283 863 m 525 863 b 444 944 480 863 444 900 b 525 1024 444 988 480 1024 b 605 944 569 1024 605 988 b 525 863 605 900 569 863 "},"ȧ":{"ha":780,"x_min":0,"x_max":0,"o":"m 319 -18 b 61 216 176 -18 61 66 b 356 439 61 389 216 421 b 551 508 491 456 551 452 l 551 512 b 392 661 551 606 497 661 b 200 549 283 661 224 602 l 83 588 b 389 768 141 726 271 768 b 673 500 490 768 673 736 l 673 0 l 553 0 l 553 103 l 545 103 b 319 -18 519 50 448 -18 m 340 90 b 551 274 475 90 551 181 l 551 379 b 351 336 530 355 397 342 b 184 210 262 324 184 296 b 340 90 184 131 250 90 m 378 882 b 294 963 332 882 294 918 b 378 1044 294 1008 332 1044 b 464 963 425 1044 464 1008 b 378 882 464 918 425 882 "},"ạ":{"ha":780,"x_min":0,"x_max":0,"o":"m 319 -18 b 61 216 176 -18 61 66 b 356 439 61 389 216 421 b 551 508 491 456 551 452 l 551 512 b 392 661 551 606 497 661 b 200 549 283 661 224 602 l 83 588 b 389 768 141 726 271 768 b 673 500 490 768 673 736 l 673 0 l 553 0 l 553 103 l 545 103 b 319 -18 519 50 448 -18 m 340 90 b 551 274 475 90 551 181 l 551 379 b 351 336 530 355 397 342 b 184 210 262 324 184 296 b 340 90 184 131 250 90 m 380 -286 b 295 -205 334 -286 295 -250 b 380 -124 295 -160 334 -124 b 465 -205 427 -124 465 -160 b 380 -286 465 -250 427 -286 "},"ǡ":{"ha":780,"x_min":0,"x_max":0,"o":"m 319 -18 b 61 216 176 -18 61 66 b 356 439 61 389 216 421 b 551 508 491 456 551 452 l 551 512 b 392 661 551 606 497 661 b 200 549 283 661 224 602 l 83 588 b 389 768 141 726 271 768 b 673 500 490 768 673 736 l 673 0 l 553 0 l 553 103 l 545 103 b 319 -18 519 50 448 -18 m 340 90 b 551 274 475 90 551 181 l 551 379 b 351 336 530 355 397 342 b 184 210 262 324 184 296 b 340 90 184 131 250 90 m 567 1121 l 191 1121 l 191 1208 l 567 1208 m 380 863 b 296 944 334 863 296 899 b 380 1025 296 989 334 1025 b 466 944 427 1025 466 989 b 380 863 466 899 427 863 "},"à":{"ha":780,"x_min":0,"x_max":0,"o":"m 319 -18 b 61 216 176 -18 61 66 b 356 439 61 389 216 421 b 551 508 491 456 551 452 l 551 512 b 392 661 551 606 497 661 b 200 549 283 661 224 602 l 83 588 b 389 768 141 726 271 768 b 673 500 490 768 673 736 l 673 0 l 553 0 l 553 103 l 545 103 b 319 -18 519 50 448 -18 m 340 90 b 551 274 475 90 551 181 l 551 379 b 351 336 530 355 397 342 b 184 210 262 324 184 296 b 340 90 184 131 250 90 m 199 1057 l 336 1057 l 431 857 l 330 857 "},"ả":{"ha":780,"x_min":0,"x_max":0,"o":"m 319 -18 b 61 216 176 -18 61 66 b 356 439 61 389 216 421 b 551 508 491 456 551 452 l 551 512 b 392 661 551 606 497 661 b 200 549 283 661 224 602 l 83 588 b 389 768 141 726 271 768 b 673 500 490 768 673 736 l 673 0 l 553 0 l 553 103 l 545 103 b 319 -18 519 50 448 -18 m 340 90 b 551 274 475 90 551 181 l 551 379 b 351 336 530 355 397 342 b 184 210 262 324 184 296 b 340 90 184 131 250 90 m 326 857 l 374 950 b 359 977 384 968 378 977 l 265 977 l 265 1057 l 359 1057 b 455 916 471 1057 503 992 l 418 857 "},"ȃ":{"ha":780,"x_min":0,"x_max":0,"o":"m 319 -18 b 61 216 176 -18 61 66 b 356 439 61 389 216 421 b 551 508 491 456 551 452 l 551 512 b 392 661 551 606 497 661 b 200 549 283 661 224 602 l 83 588 b 389 768 141 726 271 768 b 673 500 490 768 673 736 l 673 0 l 553 0 l 553 103 l 545 103 b 319 -18 519 50 448 -18 m 340 90 b 551 274 475 90 551 181 l 551 379 b 351 336 530 355 397 342 b 184 210 262 324 184 296 b 340 90 184 131 250 90 m 378 1074 b 585 869 497 1074 585 984 l 496 869 b 378 983 496 936 441 983 b 261 869 316 983 261 936 l 172 869 b 378 1074 172 984 260 1074 "},"ā":{"ha":780,"x_min":0,"x_max":0,"o":"m 319 -18 b 61 216 176 -18 61 66 b 356 439 61 389 216 421 b 551 508 491 456 551 452 l 551 512 b 392 661 551 606 497 661 b 200 549 283 661 224 602 l 83 588 b 389 768 141 726 271 768 b 673 500 490 768 673 736 l 673 0 l 553 0 l 553 103 l 545 103 b 319 -18 519 50 448 -18 m 340 90 b 551 274 475 90 551 181 l 551 379 b 351 336 530 355 397 342 b 184 210 262 324 184 296 b 340 90 184 131 250 90 m 566 915 l 191 915 l 191 1011 l 566 1011 "},"ą":{"ha":780,"x_min":0,"x_max":0,"o":"m 319 -18 b 61 216 176 -18 61 66 b 356 439 61 389 216 421 b 551 508 491 456 551 452 l 551 512 b 392 661 551 606 497 661 b 200 549 283 661 224 602 l 83 588 b 389 768 141 726 271 768 b 673 500 490 768 673 736 l 673 0 b 559 -134 612 -43 559 -77 b 615 -186 559 -166 577 -186 b 678 -168 642 -186 664 -176 l 718 -255 b 595 -289 691 -271 651 -289 b 436 -157 507 -289 436 -242 b 552 11 436 -94 477 -39 l 553 11 l 553 103 l 545 103 b 319 -18 519 50 448 -18 m 340 90 b 551 274 475 90 551 181 l 551 379 b 351 336 530 355 397 342 b 184 210 262 324 184 296 b 340 90 184 131 250 90 "},"ẚ":{"ha":780,"x_min":0,"x_max":0,"o":"m 319 -18 b 61 216 176 -18 61 66 b 356 439 61 389 216 421 b 551 508 491 456 551 452 l 551 512 b 392 661 551 606 497 661 b 200 549 283 661 224 602 l 83 588 b 389 768 141 726 271 768 b 673 500 490 768 673 736 l 673 0 l 553 0 l 553 103 l 545 103 b 319 -18 519 50 448 -18 m 340 90 b 551 274 475 90 551 181 l 551 379 b 351 336 530 355 397 342 b 184 210 262 324 184 296 b 340 90 184 131 250 90 m 322 892 b 408 977 370 892 408 930 b 322 1062 408 1024 370 1062 l 322 1147 b 500 977 420 1147 500 1072 b 322 806 500 882 420 806 "},"å":{"ha":780,"x_min":0,"x_max":0,"o":"m 319 -18 b 61 216 176 -18 61 66 b 356 439 61 389 216 421 b 551 508 491 456 551 452 l 551 512 b 392 661 551 606 497 661 b 200 549 283 661 224 602 l 83 588 b 389 768 141 726 271 768 b 673 500 490 768 673 736 l 673 0 l 553 0 l 553 103 l 545 103 b 319 -18 519 50 448 -18 m 378 806 b 200 977 280 806 200 882 b 378 1147 200 1072 280 1147 b 557 977 477 1147 557 1072 b 378 806 557 882 477 806 m 340 90 b 551 274 475 90 551 181 l 551 379 b 351 336 530 355 397 342 b 184 210 262 324 184 296 b 340 90 184 131 250 90 m 378 892 b 464 977 426 892 464 930 b 378 1062 464 1024 426 1062 b 294 977 331 1062 294 1024 b 378 892 294 930 332 892 "},"ǻ":{"ha":780,"x_min":0,"x_max":0,"o":"m 319 -18 b 61 216 176 -18 61 66 b 356 439 61 389 216 421 b 551 508 491 456 551 452 l 551 512 b 392 661 551 606 497 661 b 200 549 283 661 224 602 l 83 588 b 389 768 141 726 271 768 b 673 500 490 768 673 736 l 673 0 l 553 0 l 553 103 l 545 103 b 319 -18 519 50 448 -18 m 378 806 b 200 977 280 806 200 882 b 378 1147 200 1072 280 1147 b 557 977 477 1147 557 1072 b 378 806 557 882 477 806 m 340 90 b 551 274 475 90 551 181 l 551 379 b 351 336 530 355 397 342 b 184 210 262 324 184 296 b 340 90 184 131 250 90 m 378 892 b 464 977 426 892 464 930 b 378 1062 464 1024 426 1062 b 294 977 331 1062 294 1024 b 378 892 294 930 332 892 m 433 1310 l 556 1310 l 429 1188 l 334 1188 "},"":{"ha":780,"x_min":0,"x_max":0,"o":"m 319 -18 b 61 216 176 -18 61 66 b 356 439 61 389 216 421 b 551 508 491 456 551 452 l 551 512 b 392 661 551 606 497 661 b 200 549 283 661 224 602 l 83 588 b 389 768 141 726 271 768 b 673 500 490 768 673 736 l 673 0 b 559 -134 612 -43 559 -77 b 615 -186 559 -166 577 -186 b 678 -168 642 -186 664 -176 l 718 -255 b 595 -289 691 -271 651 -289 b 436 -157 507 -289 436 -242 b 552 11 436 -94 477 -39 l 553 11 l 553 103 l 545 103 b 319 -18 519 50 448 -18 m 378 806 b 200 977 280 806 200 882 b 378 1147 200 1072 280 1147 b 557 977 477 1147 557 1072 b 378 806 557 882 477 806 m 340 90 b 551 274 475 90 551 181 l 551 379 b 351 336 530 355 397 342 b 184 210 262 324 184 296 b 340 90 184 131 250 90 m 378 892 b 464 977 426 892 464 930 b 378 1062 464 1024 426 1062 b 294 977 331 1062 294 1024 b 378 892 294 930 332 892 "},"ḁ":{"ha":780,"x_min":0,"x_max":0,"o":"m 319 -18 b 61 216 176 -18 61 66 b 356 439 61 389 216 421 b 551 508 491 456 551 452 l 551 512 b 392 661 551 606 497 661 b 200 549 283 661 224 602 l 83 588 b 389 768 141 726 271 768 b 673 500 490 768 673 736 l 673 0 l 553 0 l 553 103 l 545 103 b 319 -18 519 50 448 -18 m 378 -358 b 209 -204 285 -358 209 -290 b 378 -51 209 -119 285 -51 b 548 -204 472 -51 548 -119 b 378 -358 548 -290 472 -358 m 340 90 b 551 274 475 90 551 181 l 551 379 b 351 336 530 355 397 342 b 184 210 262 324 184 296 b 340 90 184 131 250 90 m 378 -281 b 459 -204 423 -281 459 -247 b 378 -128 459 -162 423 -128 b 298 -204 333 -128 298 -162 b 378 -281 298 -247 334 -281 "},"ã":{"ha":780,"x_min":0,"x_max":0,"o":"m 319 -18 b 61 216 176 -18 61 66 b 356 439 61 389 216 421 b 551 508 491 456 551 452 l 551 512 b 392 661 551 606 497 661 b 200 549 283 661 224 602 l 83 588 b 389 768 141 726 271 768 b 673 500 490 768 673 736 l 673 0 l 553 0 l 553 103 l 545 103 b 319 -18 519 50 448 -18 m 340 90 b 551 274 475 90 551 181 l 551 379 b 351 336 530 355 397 342 b 184 210 262 324 184 296 b 340 90 184 131 250 90 m 467 890 b 302 947 400 890 337 947 b 267 893 279 947 268 920 l 181 893 b 291 1034 184 975 218 1034 b 454 977 361 1034 409 977 b 492 1031 477 977 488 992 l 576 1031 b 467 890 573 946 534 890 "},"ɐ":{"ha":780,"x_min":0,"x_max":0,"o":"m 460 776 b 719 543 604 776 719 692 b 424 319 719 369 564 337 b 229 250 289 302 229 307 l 229 246 b 388 98 229 152 283 98 b 580 209 497 98 556 156 l 697 170 b 391 -9 639 33 509 -9 b 107 258 290 -9 107 22 l 107 758 l 227 758 l 227 655 l 235 655 b 460 776 261 709 332 776 m 439 668 b 229 484 304 668 229 577 l 229 379 b 429 422 250 403 382 416 b 596 549 518 434 596 463 b 439 668 596 627 530 668 "},"а":{"ha":780,"x_min":0,"x_max":0,"o":"m 319 -18 b 61 216 176 -18 61 66 b 356 439 61 389 216 421 b 551 508 491 456 551 452 l 551 512 b 392 661 551 606 497 661 b 200 549 283 661 224 602 l 83 588 b 389 768 141 726 271 768 b 673 500 490 768 673 736 l 673 0 l 553 0 l 553 103 l 545 103 b 319 -18 519 50 448 -18 m 340 90 b 551 274 475 90 551 181 l 551 379 b 351 336 530 355 397 342 b 184 210 262 324 184 296 b 340 90 184 131 250 90 "},"ӑ":{"ha":780,"x_min":0,"x_max":0,"o":"m 319 -18 b 61 216 176 -18 61 66 b 356 439 61 389 216 421 b 551 508 491 456 551 452 l 551 512 b 392 661 551 606 497 661 b 200 549 283 661 224 602 l 83 588 b 389 768 141 726 271 768 b 673 500 490 768 673 736 l 673 0 l 553 0 l 553 103 l 545 103 b 319 -18 519 50 448 -18 m 340 90 b 551 274 475 90 551 181 l 551 379 b 351 336 530 355 397 342 b 184 210 262 324 184 296 b 340 90 184 131 250 90 m 378 865 b 182 1057 269 865 182 949 l 271 1057 b 378 951 271 995 316 951 b 486 1057 441 951 486 995 l 575 1057 b 378 865 575 949 489 865 "},"ӓ":{"ha":780,"x_min":0,"x_max":0,"o":"m 319 -18 b 61 216 176 -18 61 66 b 356 439 61 389 216 421 b 551 508 491 456 551 452 l 551 512 b 392 661 551 606 497 661 b 200 549 283 661 224 602 l 83 588 b 389 768 141 726 271 768 b 673 500 490 768 673 736 l 673 0 l 553 0 l 553 103 l 545 103 b 319 -18 519 50 448 -18 m 340 90 b 551 274 475 90 551 181 l 551 379 b 351 336 530 355 397 342 b 184 210 262 324 184 296 b 340 90 184 131 250 90 m 236 882 b 155 963 191 882 155 919 b 236 1043 155 1007 191 1043 b 316 963 280 1043 316 1007 b 236 882 316 919 280 882 m 522 882 b 441 963 477 882 441 919 b 522 1043 441 1007 477 1043 b 602 963 566 1043 602 1007 b 522 882 602 919 566 882 "},"æ":{"ha":1274,"x_min":0,"x_max":0,"o":"m 320 -18 b 61 216 176 -18 61 66 b 384 441 61 389 235 441 l 549 441 l 549 512 b 392 661 549 606 497 661 b 200 549 283 661 224 602 l 83 588 b 389 768 141 726 271 768 b 629 642 467 768 576 749 b 878 768 683 721 766 768 b 1206 389 1039 768 1206 669 l 1206 338 l 658 338 b 889 92 664 180 757 92 b 1076 209 979 92 1046 132 l 1194 178 b 889 -16 1159 63 1046 -16 b 606 129 757 -16 656 40 b 320 -18 570 47 448 -18 m 385 338 b 184 210 278 338 184 296 b 340 90 184 131 250 90 b 549 274 475 90 549 181 l 549 338 m 1081 441 b 878 659 1080 567 1001 659 b 659 441 747 659 666 556 "},"ǣ":{"ha":1274,"x_min":0,"x_max":0,"o":"m 320 -18 b 61 216 176 -18 61 66 b 384 441 61 389 235 441 l 549 441 l 549 512 b 392 661 549 606 497 661 b 200 549 283 661 224 602 l 83 588 b 389 768 141 726 271 768 b 629 642 467 768 576 749 b 878 768 683 721 766 768 b 1206 389 1039 768 1206 669 l 1206 338 l 658 338 b 889 92 664 180 757 92 b 1076 209 979 92 1046 132 l 1194 178 b 889 -16 1159 63 1046 -16 b 606 129 757 -16 656 40 b 320 -18 570 47 448 -18 m 385 338 b 184 210 278 338 184 296 b 340 90 184 131 250 90 b 549 274 475 90 549 181 l 549 338 m 1081 441 b 878 659 1080 567 1001 659 b 659 441 747 659 666 556 m 819 915 l 444 915 l 444 1011 l 819 1011 "}}}
